<svg width="60" height="60" viewBox="0 0 60 60" fill="none" xmlns="http://www.w3.org/2000/svg">
<path d="M60 30C60 13.4315 46.5685 -1.26159e-06 30 -5.37355e-07C13.4315 1.86879e-07 -2.03558e-06 13.4315 -1.31134e-06 30C-5.87108e-07 46.5685 13.4315 60 30 60C46.5685 60 60 46.5685 60 30Z" fill="#80493D"/>
<path d="M39.7905 49L31.0023 35.4349L22.2141 49H16V12H22.2141L31.0023 25.5651L39.6602 12.1943L39.7905 12H46V49H39.7905ZM40.256 48.149H45.1435V12.851H40.256L31.007 27.1423L21.7486 12.851H16.8611V48.149H21.7486L31.0023 33.8624L40.256 48.149ZM40.0233 12.851V12.4255V12.851ZM33.4461 30.7359L33.7999 30.5L34.1583 30.7359L33.7999 30.5L33.4461 30.7359L33.2832 30.5L40.7913 19.3538V41.6463L33.4461 30.7359ZM39.9302 38.8435V22.1611L34.3119 30.5046L39.9302 38.8435ZM21.218 19.363L28.7262 30.5046L22 40.4808L21.218 41.6509V19.363ZM22.0745 40.2449H21.6416H22.0745ZM22.0745 38.8389L27.6928 30.5L22.0745 22.1611V38.8389Z" fill="#140005" fill-opacity="0.35"/>
<path d="M38.7905 48L30.0023 34.4349L21.2141 48H15V11H21.2141L30.0023 24.5651L38.6602 11.1943L38.7905 11H45V48H38.7905ZM39.256 47.149H44.1435V11.851H39.256L30.007 26.1423L20.7486 11.851H15.8611V47.149H20.7486L30.0023 32.8624L39.256 47.149ZM39.0233 11.851V11.4255V11.851ZM32.4461 29.7359L32.7999 29.5L33.1583 29.7359L32.7999 29.5L32.4461 29.7359L32.2832 29.5L39.7913 18.3538V40.6463L32.4461 29.7359ZM38.9302 37.8435V21.1611L33.3119 29.5046L38.9302 37.8435ZM20.218 18.363L27.7262 29.5046L21 39.4808L20.218 40.6509V18.363ZM21.0745 39.2449H20.6416H21.0745ZM21.0745 37.8389L26.6928 29.5L21.0745 21.1611V37.8389Z" fill="#E9D0AC"/>
</svg>
