<?xml version="1.0" encoding="utf-8"?>
<!-- Generator: Adobe Illustrator 24.3.0, SVG Export Plug-In . SVG Version: 6.00 Build 0)  -->
<svg version="1.1" id="Layer_1" xmlns="http://www.w3.org/2000/svg" xmlns:xlink="http://www.w3.org/1999/xlink" x="0px" y="0px"
	 viewBox="0 0 119 76" style="enable-background:new 0 0 119 76;" xml:space="preserve">
<style type="text/css">
	.st0{fill:#FFFFFF;}
	.st1{fill-rule:evenodd;clip-rule:evenodd;fill:#FFFFFF;}
</style>
<path class="st0" d="M23.7,46.6c-0.9,0-1.8,0.4-2.7,1.1c0.9,1,1.5,2,1.8,2.9c0.5,1.5,0.2,2.7-0.8,3.6c-0.9,0.9-2,1.3-3.5,1.3
	c-0.4,0-0.7,0-1.1-0.2L17,56.6c-0.8,2.7-2.1,4.8-3.9,6.3c-1.9,1.7-4.3,2.5-7.2,2.5c-1.2,0-2.3-0.2-3.3-0.7c-1.3-0.6-2.1-1.5-2.5-2.7
	C0,61.6,0,61.3,0.1,61c0.1-0.3,0.3-0.5,0.7-0.5c0.5,0,0.8,0.3,1,0.8c0.1,0.3,0,0.6-0.3,0.9c-0.3,0.3-0.4,0.6-0.3,0.8
	c0.2,0.8,1,1.3,2.1,1.7c0.4,0.2,0.9,0.3,1.3,0.3c0.4,0.1,0.9,0.1,1.3,0.1c2,0,3.7-0.6,5.1-1.7c0.6-0.5,1.1-1,1.5-1.7
	c0.5-0.7,0.9-1.5,1.3-2.4c0-0.1,0.2-0.6,0.5-1.4c0.3-0.8,0.8-2,1.4-3.7c-0.3-0.3-0.4-0.6-0.6-1c-0.2-0.7-0.2-1.4,0-2.1
	c0.2-0.7,0.6-1.2,1.1-1.5l0.2,0.3c-1.1,0.9-1.4,2-1,3.3c0.1,0.2,0.2,0.4,0.4,0.6c0.6-1.4,1.2-2.5,1.9-3.5c0.3-0.4,0.7-0.9,1.1-1.3
	c0.4-0.5,1-1,1.5-1.5c-1.5-1.5-3.6-2.2-6.3-2.2c-2,0-3.9,0.4-5.6,1c-1.9,0.8-3.3,1.9-4.2,3.2c-0.8,1.3-1,2.6-0.6,3.8
	c0.3,1,0.9,1.8,1.9,2.3c0.8,0.5,1.7,0.7,2.7,0.7c1.5,0,2.9-0.5,4.1-1.5c1.4-1.1,1.8-2.5,1.4-4c-0.2-0.7-0.6-1.2-1.2-1.5
	C12.2,49.2,11.6,49,11,49c-1.2,0-2.2,0.3-3.2,1c-0.9,0.6-1.6,1.5-2.2,2.5l-0.2-0.2c0.3-1,0.9-1.9,2-2.6c1.1-0.7,2.2-1,3.4-1
	c0.7,0,1.4,0.2,2,0.6c0.6,0.4,1.1,1,1.3,1.8c0.5,1.7,0.1,3.1-1.3,4.3c-1.2,1.1-2.7,1.6-4.3,1.6c-1.1,0-2.1-0.3-3.1-0.9
	c-1-0.7-1.7-1.6-2-2.7c-0.6-1.9-0.1-3.7,1.3-5.3C6.8,46,9.7,45,13.5,45c3,0,5.4,0.8,7.2,2.4c0.8-0.7,1.7-1,2.9-1.2L23.7,46.6z
	 M17.5,55.1c0.2,0,0.4,0.1,0.5,0.1c1.2,0,2.2-0.7,2.9-2.1c0.7-1.3,0.8-2.7,0.4-4c-0.1-0.3-0.3-0.7-0.6-1.1
	C19.5,49.2,18.4,51.6,17.5,55.1z"/>
<path class="st0" d="M31.1,55.7C31.2,55.7,31.2,55.7,31.1,55.7c0.2-0.1,0.4,0,0.6,0.2c0.2,0.2,0.3,0.4,0.4,0.5
	c0.1,0.3-0.4,1.6-1.4,4c-1,2.4-1.5,3.8-1.4,4.2c0.1,0.2,0.1,0.3,0.3,0.3c0.6,0,2.7-3.6,3-4.1c0.3-0.5,0.6-0.9,0.8-1.3l0.3,0.2
	c-0.3,0.5-0.6,1-0.9,1.6s-2.3,4-3,4c-0.2,0-0.5-0.1-0.7-0.4c-1.1-1.3-0.3-2.6,0.2-4C29.9,59.1,30.5,57.4,31.1,55.7z M33,52
	c0.5,0,0.7,0.2,0.9,0.7c0.1,0.3,0.1,0.6-0.1,0.9C33.6,53.9,33.3,54,33,54c-0.4,0-0.7-0.2-0.9-0.7c-0.1-0.3-0.1-0.6,0.1-0.9
	C32.4,52.2,32.7,52,33,52z"/>
<path class="st0" d="M40,56.6c-0.5,1-2.5,4.9-2.8,5.4c-0.3,0.5-0.4,0.9-0.5,1c-1,1.5-1.8,2.2-2.6,2.2c-0.6,0-1-0.4-1.3-1.3
	c-0.3-1.1,0-3,1.1-5.8c1-2.6,2.2-4.9,3.5-7.1c1.5-2.3,2.6-3.5,3.4-3.5c0.5,0,0.8,0.3,1,0.8c0.4,1.2-0.3,2.9-2,5.1
	c-0.6,0.8-1.9,2.2-3.8,4.2c-0.2,0.3-0.5,0.8-0.8,1.6c-0.1,0.3-0.2,0.6-0.3,0.9c-0.1,0.3-0.2,0.6-0.3,0.9c-0.1,0.4-0.3,0.8-0.4,1.1
	s-0.2,0.5-0.2,0.7c-0.2,0.6-0.7,1.8,0.1,2.1c1.1,0.5,2.2-1.5,2.6-2.1c0.2-0.3,0.4-0.6,0.7-1.2c0.3-0.5,2.2-4.3,2.6-5.1L40,56.6z
	 M35.9,56.9c1.1-1,2.3-2.4,3.4-4c1.5-2.2,2.2-3.8,1.9-4.8c-0.1-0.2-0.2-0.4-0.4-0.4c-0.6,0-1.6,1.5-2.9,4.6c-0.3,0.8-0.7,1.5-1,2.3
	C36.6,55.4,36.3,56.2,35.9,56.9z"/>
<path class="st0" d="M40,55.7C40,55.7,40,55.7,40,55.7c0.2-0.1,0.4,0,0.6,0.2c0.2,0.2,0.3,0.4,0.4,0.5c0.1,0.3-0.4,1.6-1.4,4
	c-1,2.4-1.5,3.8-1.4,4.2c0,0.2,0.1,0.3,0.3,0.3c0.6,0,7.3-9.7,7.5-10.1l0.5,0.2c-0.3,0.5-7.2,10.2-8,10.2c-0.2,0-0.5-0.1-0.7-0.4
	C36.2,62.8,39.2,57.9,40,55.7z M48.1,62.5c0.5-0.7,6.6-7.4,6.8-7.7l0.5,0.2c-0.3,0.5-6.7,7.3-7.1,7.9L48.1,62.5z M41.8,52
	c0.5,0,0.7,0.2,0.9,0.7c0.1,0.3,0.1,0.6-0.1,0.9c-0.2,0.3-0.4,0.5-0.7,0.5c-0.4,0-0.7-0.2-0.9-0.7C41,53,41,52.7,41.1,52.4
	C41.3,52.2,41.5,52,41.8,52z"/>
<path class="st0" d="M46.5,55c-0.7,1.7-1.6,3.7-1.6,4c0.5-0.9,1.1-1.7,1.6-2.3c0.4-0.5,1-1.4,1.8-1.1c0.6,0.3,1,1.5,1.1,2
	c0.6,1.8,0.2,3.6-1.1,5.3c-1.3,1.7-2.8,2.5-4.6,2.5c-0.3,0-0.7-0.1-1.1-0.2c-0.3,0.8-0.6,1.5-0.9,2.2c-0.3,0.7-0.6,1.5-0.8,2.2
	c-0.5,1.2-0.8,2.2-1.1,2.8c-0.3,0.6-0.5,1-0.6,1L39,73.3l-0.5-0.7c0-0.4,0.1-1,0.3-1.7c0.2-0.7,0.5-1.6,0.9-2.7l1.8-4.3
	c-0.1-0.2-0.1-0.4-0.2-0.5c0-0.1-0.1-0.2-0.1-0.3c-0.1-0.3-0.1-0.6-0.1-0.9h0.3c0,0.3,0,0.6,0.1,0.9c0,0.1,0,0.1,0.1,0.2
	c0,0.1,0.1,0.1,0.1,0.2c0.3-0.8,0.8-1.9,1.3-3.1c0.5-1.2,0.9-1.7,1.6-3.4L46.5,55z M42.7,64.8c0.2,0.2,0.5,0.2,0.7,0.2
	c1,0,2-0.8,3-2.4c0.8-1.2,1.3-2.5,1.6-3.8c0-0.1,0.1-0.3,0.1-0.5c0-0.2,0.1-0.5,0.2-0.8c0.1-0.6,0.1-1.1,0-1.5
	c-0.1-0.2-0.2-0.4-0.4-0.4c-0.2,0-0.3,0.1-0.6,0.4c-1,0.9-1.8,2.2-2.7,4c-0.2,0.4-0.4,0.9-0.7,1.7C43.6,62.6,43.2,63.6,42.7,64.8z"
	/>
<path class="st0" d="M55.4,55c-0.7,1.7-1.6,3.7-1.6,4c0.5-0.9,1.1-1.7,1.6-2.3c0.4-0.5,1.1-1.4,1.8-1.1c0.6,0.2,1,1.4,1.1,2
	c0.6,1.9,0.2,3.6-1.1,5.3c-1.3,1.7-2.8,2.5-4.6,2.5c-0.3,0-0.7-0.1-1.1-0.2c-0.3,0.8-0.6,1.5-0.9,2.2s-0.5,1.5-0.8,2.2
	c-0.5,1.2-0.8,2.2-1.1,2.8c-0.3,0.6-0.5,1-0.6,1l-0.3-0.1l-0.5-0.7c0-0.4,0.1-0.9,0.3-1.7s0.5-1.6,0.9-2.7l1.8-4.3
	c-0.1-0.2-0.1-0.4-0.2-0.5c0-0.1-0.1-0.2-0.1-0.3c-0.1-0.3-0.1-0.6-0.1-0.9h0.3c0,0.3,0,0.6,0.1,0.9c0,0.1,0,0.1,0.1,0.2
	c0,0.1,0,0.1,0.1,0.2c0.3-0.8,0.8-1.9,1.3-3.1c0.5-1.2,1.1-2.2,1.8-3.9L55.4,55z M51.5,64.8c0.3,0.2,0.5,0.2,0.8,0.2
	c1,0,2-0.8,3-2.4c0.8-1.2,1.3-2.5,1.6-3.8c0-0.1,0.1-0.3,0.1-0.5s0.1-0.5,0.2-0.8c0.1-0.6,0.1-1.1,0-1.5c-0.1-0.2-0.2-0.4-0.4-0.4
	c-0.1,0-0.3,0.1-0.6,0.4c-1,0.9-1.8,2.2-2.7,4c-0.2,0.4-0.4,0.9-0.7,1.7C52.4,62.6,52,63.6,51.5,64.8z"/>
<path class="st0" d="M65.4,61.4c-1.7,2.5-3.1,3.8-4.3,3.8c-0.9,0-1.6-0.6-1.9-1.9c-0.9-2.9,0-5.2,2.8-6.9c0.7-0.4,1.2-0.7,1.7-0.7
	c0.5,0,0.8,0.3,1,0.8c0.4,1.2,0,2.2-1,3.2c-0.9,0.8-1.9,1.3-3.1,1.3c-0.5,1.6-0.7,2.7-0.5,3.2c0.2,0.5,0.5,0.8,1,0.8
	c1,0,2.4-1.2,4.1-3.7L65.4,61.4z M60.5,60.7c0.6-0.1,1.1-0.2,1.4-0.5c0.5-0.3,1-0.8,1.6-1.6c0.6-0.9,0.9-1.5,0.7-2.1
	C64.1,56.2,64,56,63.7,56c-0.4,0-1,0.7-1.8,2c-0.3,0.6-0.6,1.1-0.8,1.5C60.9,59.9,60.7,60.3,60.5,60.7z"/>
<path class="st0" d="M29.8,59.4c-0.2,0.5-0.5,1-0.8,1.5c-0.3,0.5-0.7,1.1-1.1,1.6c-1.1,1.5-2,2.3-2.7,2.3l-0.3-0.2
	c0.1-0.6,0.6-1.8,1.6-3.9c0.8-1.6,1.1-2.9,0.8-3.9c-0.1-0.2-0.2-0.5-0.5-0.7c-0.2-0.2-0.5-0.4-0.7-0.4c-0.6,0-1.4,0.8-2.4,2.3
	c-0.3,0.5-0.7,1-1,1.5c-0.3,0.5-0.7,1-1,1.5c0.6-1.4,1-2.5,1.3-3.3c0.3-0.8,0.5-1.2,0.5-1.3c0.1-0.2,0.3-0.5,0.7-0.9
	s0.8-0.9,1.4-1.5c0.6-0.6,1.1-1.2,1.6-1.7s0.8-0.9,1-1.3c0.8-1.2,1-2.3,0.8-3.2c-0.1-0.5-0.5-0.8-0.9-0.8c-0.8,0-1.7,1-2.8,2.9
	c-0.2,0.3-0.4,0.8-0.8,1.4c-0.4,0.7-0.8,1.5-1.2,2.6l-0.5,1.3c0,0.1-0.1,0.5-0.3,1c-1.9,1.7-5.2,4.6-5.6,4.5v0.3
	c0.5,0.1,3.4-2.3,5.3-4c-0.3,0.7-0.7,1.5-1.1,2.5c-1.1,2.3-2.1,4.6-2.2,5.2h1.5c0.3-0.3,0.8-1.2,1.5-2.8c0.5-1,0.9-1.8,1.3-2.4
	c0.4-0.7,0.7-1.2,0.9-1.6c0.4-0.6,0.8-1.2,1.3-1.7c0.8-0.7,1.4-0.5,1,0.6c-0.2,0.4-0.4,0.9-0.7,1.5c-0.6,1.2-1,2.1-1.2,2.6
	c-0.3,1-0.4,1.9-0.1,2.7c0.2,0.8,0.6,1.1,1,1.1c0.8,0,1.8-0.8,2.9-2.3c0.8-1,1.4-2.1,2-3.3L29.8,59.4z M24.6,53.5
	c0.3-0.7,0.6-1.4,0.9-2.1c1.1-2.5,2-3.8,2.6-3.8c0.2,0,0.3,0.1,0.4,0.3c0.1,0.2,0,0.5-0.1,1c-0.3,1.2-1,2.5-1.9,3.6
	c-0.4,0.5-0.9,1-1.3,1.5c-0.4,0.5-0.9,1-1.3,1.5C24.1,54.8,24.4,54.2,24.6,53.5z"/>
<path class="st0" d="M79.7,52.7c-0.9,1-2,1.5-3.3,1.5c-0.8,0-1.6-0.2-2.2-0.7c-0.7-0.5-1.2-1.1-1.5-2c-0.3-1.2-0.2-2.3,0.5-3.5
	c1.2-2.1,3.1-3.1,5.9-3.1c0.8,0,1.7,0.2,2.6,0.5c1.1,0.4,1.8,1,2,1.7c0,0.1,0,0.2,0.1,0.3c0,0.1,0,0.2,0,0.4c0,0.3,0,0.6,0.1,0.7
	c0.1,0.4,0.4,0.6,0.9,0.6c0.5,0,1.5-0.9,3-2.6c0.3-0.3,0.6-0.6,0.9-0.8c0.3-0.2,0.6-0.5,1-0.7l0.2,0.2c-1,1-1.8,2.6-2.5,4.9
	l-1.5,5.2c-0.4,1.6-1,3.1-1.6,4.5c-0.6,1.3-1.3,2.6-2.1,3.6c-0.5,0.6-0.9,1.1-1.4,1.3c2.6-0.8,4.8-3.6,6.8-8.3
	c0.3-0.8,0.7-1.6,1-2.4c0.3-0.8,0.6-1.6,1-2.4c0.4-1,0.8-1.8,1.2-2.5c0.4-0.8,0.8-1.4,1.2-2c0.6-0.9,1.4-1.7,2.5-2.2l0.2,0.3
	c-0.5,0.5-0.9,1.1-1.2,1.9C93,47.3,93,47.6,92.8,48c-0.1,0.4-0.2,0.9-0.4,1.5c-1.1,4.7-1.8,7.5-2.1,8.4c-1.2,3.8-2.6,6.1-4.2,6.9
	c0.9-0.2,1.8-0.8,2.7-1.7c0.8-1,1.6-2,2.4-3.3c0.7-1.2,1.4-2.6,2-4.2c0.7-1.8,1.3-3.2,1.6-4.1c0.4-0.9,0.6-1.4,0.6-1.5
	c1.2-2.6,2.3-4.2,3.3-4.7c0.6-0.3,1.2-0.5,2-0.5c1.2,0,1.8,0.4,2.1,1.1c0.2,0.5,0,0.8-0.5,0.8c-0.5,0-0.8-0.2-1-0.7
	c-0.2-0.5-0.6-0.8-1.1-0.8c-1.3,0-2.7,1.3-4.1,4c-0.1,0.2-0.3,0.8-0.7,1.8c-0.4,0.9-0.9,2.3-1.6,4c-0.3,0.8-0.6,1.6-1,2.3
	c-0.3,0.8-0.7,1.5-1.1,2.3c-0.5,1-1.1,1.8-1.6,2.6c-0.6,0.8-1.2,1.4-1.8,2c-0.7,0.6-1.8,1-3.2,1.2L85.1,65c0.8-0.5,1.5-1.4,2-2.7
	c0.1-0.3,0.5-1.5,1-3.5l1.2-4.1c1.1-3.9,2.3-6.8,3.8-8.7c-1,0.8-2.2,3-3.7,6.6c-0.8,2.1-1.6,3.7-2.2,5c-0.6,1.3-1.1,2.2-1.4,2.8
	c-1.9,3.2-4.1,4.8-6.4,4.9l-0.1-0.2c0.7-0.3,1.4-1.1,2-2.2c0.1-0.3,0.3-0.7,0.5-1.2c0.2-0.5,0.4-1.1,0.6-1.8l1.3-4.3
	c0.7-2.1,1.4-4,2.1-5.5s1.5-2.8,2.4-3.7c-0.3,0.3-0.5,0.6-0.8,1c-0.3,0.3-0.6,0.7-0.9,1c-0.7,0.8-1.4,1.2-2.1,1.2
	c-0.5,0-0.9-0.1-1.4-0.4c-0.4-0.3-0.7-0.7-0.9-1.2c-0.1-0.2-0.1-0.4-0.1-0.7c0-0.4,0-0.6-0.1-0.7c-0.1-0.4-0.5-0.7-1.1-0.9
	c-0.5-0.2-0.9-0.2-1.4-0.2c-1.2,0-2.3,0.3-3.4,0.9c-1.2,0.6-2,1.4-2.6,2.3c-0.7,1.2-0.9,2.2-0.6,3.2c0.4,1.4,1.4,2.2,3,2.2
	c1.8,0,3.1-0.9,3.9-2.7c0.3-0.7,0.4-1.4,0.3-1.9h0.2C80.8,50.6,80.6,51.7,79.7,52.7z"/>
<path class="st0" d="M107.6,59.4c-1.7,3.6-3.1,5.4-4,5.4c-0.2,0-0.3-0.1-0.3-0.2c-0.1-0.3,0.1-0.9,0.6-1.8c0.4-0.7,0.7-1.2,0.9-1.7
	c0.2-0.5,0.4-0.8,0.5-1.1c0.5-1.2,0.5-2.2,0.3-3.1c-0.2-0.6-0.5-0.9-0.8-0.9c0,0-0.3,0.2-0.7,0.5c0.2-0.8,0.3-1.3,0.3-1.5l-0.1-0.1
	c0,0-0.1-0.1-0.1-0.1s-0.1-0.1-0.1-0.1c-0.1-0.1-0.2-0.1-0.3-0.1c-0.3,0-0.6,0.2-0.7,0.7c-0.2,0.5-0.2,0.9-0.1,1.2
	c0.1,0.3,0.4,0.4,0.7,0.5c0.1-0.1-5,8.2-5.5,7.9c-0.1-0.1-0.2-0.1-0.3-0.2c-0.1-0.3,0.3-1.7,1.3-4c1-2.3,1.4-3.6,1.3-4
	c-0.1-0.2-0.2-0.4-0.4-0.6c-0.2-0.2-0.3-0.3-0.5-0.3c-0.4,0.8-0.7,1.7-1.1,2.5c-0.4,0.8-0.7,1.6-1.1,2.5c-0.3,0.7-0.7,1.4-1.2,2
	c-0.4,0.6-0.9,1.1-1.3,1.5c-0.5,0.5-0.8,0.7-1,0.7c-0.1,0-0.2-0.1-0.3-0.3c-0.1-0.4,0.3-1.7,1.4-4c1-2.3,1.4-3.6,1.3-4.1
	c-0.2-0.6-0.5-0.8-0.9-0.7c-0.5,0.1-1.9,2-4,4.7l0.1,0.2c0.9-1.1,2.7-3.3,3.1-3.8c0.3-0.3,0.6-0.5,0.2,0.4c0,0.1-0.1,0.2-0.1,0.2
	l-1.4,2.8c-0.3,0.7-0.5,1.2-0.6,1.6c-0.1,0.6,0,1.2,0.2,1.9c0.2,0.8,0.6,1.2,0.9,1.2c0.7,0,1.9-1.2,3.4-3.7
	c-0.3,0.9-0.3,1.8-0.1,2.6c0.2,0.8,0.5,1.2,1,1.1C99.9,65,104,57,104,57c0.2,0,0.4-0.1,0.5-0.3c0.1-0.1,0.2-0.2,0.3-0.3
	s0.1-0.1,0.1-0.1l0.2,0.1c0.1,0.3-0.1,1-0.6,1.9c-0.4,0.7-0.7,1.3-1,1.7c-0.2,0.5-0.4,0.8-0.5,1c-0.5,1.1-0.6,2.1-0.3,2.9
	c0.2,0.8,0.6,1.2,1.1,1.2c0.3,0,0.8-0.2,1.2-0.6c0.4-0.4,0.9-0.9,1.3-1.7c0.3-0.5,0.6-1,0.9-1.6c0.3-0.5,0.5-1.1,0.8-1.6L107.6,59.4
	z"/>
<path class="st0" d="M115.7,64.4c0.6-1.4,1.1-2.3-0.5-3.2c0.2-0.3,0.4-0.6,0.5-0.9c0.2-0.3,0.4-0.7,0.6-1.2c1.6-0.9,2.2-1.9,1.9-2.8
	c-0.1-0.2-0.2-0.4-0.3-0.5c-0.2-0.2-0.3-0.2-0.5-0.2c-0.1,0-0.3,0.6-0.7,1.8c-0.4,1.2-0.8,1.8-1.2,1.8l-0.1-0.1c0-0.3,0-0.6,0.3-1
	c0.2-0.4,0.3-0.8,0.2-1c-0.3-0.9-0.8-1.4-1.4-1.4c-0.3,0-0.7,0.8-0.9,0.9c-1.2,1.4-6.5,11.7-6.3,7.2c0-0.5,2.9-6.9,5.2-11.7h4v-0.3
	h-3.8c0.9-2,1.7-3.7,2.1-4.5H113c-1.5,3.3-6.5,14.5-6.6,15c-0.3,1.5,0.1,2.5,0.7,3c1.4,1.1,5.3-6.5,6.5-8.2c0.1-0.1,0.7-1.1,0.9-1.1
	c0.1,0,0.2,0.1,0.2,0.2c0,0.1-0.1,0.4-0.3,0.9c-0.2,0.5-0.3,0.9-0.2,1.2c0.1,0.3,0.3,0.5,0.6,0.8c0.2,0.2,0.5,0.4,0.8,0.4
	c0,0,0.1,0,0.2,0c0.1,0,0.1,0,0.2,0c-0.8,1.2-1.2,1.9-1.2,1.9c-0.7,0.2-1.4,0.5-2.1,1.1c-0.8,0.7-1.1,1.5-0.9,2.2
	c0.1,0.3,0.3,0.5,0.5,0.5c1.2,0,1.4-4.1,3-3.3c1.9,0.9-2.6,5-3.1,5.7c-1.6,2.2-4.9,4.5-4.1,7.5c0.2,0.6,0.5,0.9,1,0.8
	c3.3-0.2,5.4-10.1,6.5-10.8l2.6-2.3l-0.1-0.3L115.7,64.4z M109.2,75.2c-0.4,0-0.6-0.2-0.7-0.6c-0.3-1.3,2.3-5.2,5.8-8.8
	C114,66.7,110.1,75.1,109.2,75.2z"/>
<path class="st1" d="M64.4,29.5c3.5-1.2,6.1-4.5,6.1-8.4c0-3.9-2.6-7.3-6.1-8.4V4.9h4.8V0.1H54.1v4.9h4.9v7.7
	c-3.6,1.1-6.2,4.5-6.2,8.4s2.6,7.3,6.2,8.4v7.2h-4.9v4.9h15.1v-4.9h-4.8V29.5z M68,21c0,2.5-1.5,4.8-3.6,5.8V15.3
	C66.5,16.3,68,18.5,68,21z M62.7,27.3c-0.4,0.1-0.7,0.1-1.1,0.1c-0.4,0-0.8,0-1.1-0.1V14.7c0.4-0.1,0.7-0.1,1.1-0.1
	c0.4,0,0.7,0,1.1,0.1V27.3z M60.5,5h2.2v7.3c-0.4,0-0.7-0.1-1.1-0.1c-0.4,0-0.8,0-1.1,0.1V5z M55.2,21c0-2.6,1.5-4.8,3.7-5.8v11.6
	C56.8,25.8,55.2,23.6,55.2,21z M60.5,36.7v-6.9c0.4,0.1,0.7,0.1,1.1,0.1c0.4,0,0.7,0,1.1-0.1v6.9H60.5z"/>
</svg>
