<svg width="190" height="38" viewBox="0 0 190 38" fill="none" xmlns="http://www.w3.org/2000/svg">
<path d="M93.65 8.04002C95.67 7.61002 96.96 5.64002 96.53 3.62002C96.1 1.60002 94.13 0.31002 92.11 0.74002C90.09 1.17002 88.8 3.14002 89.23 5.16002C89.53 6.61002 90.67 7.74002 92.11 8.04002L92 9.92002L84.87 11.31L91.8 12.73L90.74 32.32H89.57C87.28 32.27 85 31.92 82.8 31.27L83.28 30.09L76.35 29.77L81.68 33.94L82.18 32.74L92.85 37.03L103.56 32.73L104.07 33.95L109.36 29.78L102.43 30.1L102.91 31.26C100.7 31.91 98.42 32.27 96.11 32.32H94.93L93.93 12.7L100.69 11.31L93.76 9.95002L93.65 8.04002ZM91 4.61002C91 3.61002 91.81 2.80002 92.81 2.80002C93.81 2.80002 94.62 3.61002 94.62 4.61002C94.62 5.61002 93.81 6.42002 92.81 6.42002C91.81 6.42002 91 5.61002 91 4.61002Z" fill="#848498"/>
<path d="M159.84 13.26H151.89C152.51 13.95 152.45 14.59 152.45 15.57V23.92C152.45 24.87 152.5 25.51 151.89 26.23H159.83C163.4 26.23 166.3 23.33 166.3 19.76C166.3 16.19 163.4 13.29 159.83 13.29L159.84 13.26ZM159.78 22.91H155.76V16.55H159.79C161.55 16.64 162.9 18.13 162.82 19.89C162.73 21.52 161.42 22.83 159.78 22.91Z" fill="#848498"/>
<path d="M189.44 14.88C189.41 14.29 189.61 13.71 190 13.26H185.58C186.2 13.95 186.14 14.59 186.14 15.57V21.26L178.76 13.3H174.79C175.41 13.99 175.35 14.63 175.35 15.61V24.48C175.41 25.11 175.2 25.74 174.79 26.21H179.22C178.6 25.52 178.66 24.88 178.66 23.9V17.98L186.28 26.21H190C189.61 25.77 189.41 25.19 189.44 24.59V14.88Z" fill="#848498"/>
<path d="M172 15.1C171.93 14.44 172.13 13.77 172.56 13.26H168.14C168.57 13.77 168.78 14.43 168.7 15.1V24.39C168.77 25.05 168.57 25.72 168.14 26.23H172.56C172.13 25.72 171.92 25.06 172 24.39V15.1Z" fill="#848498"/>
<path d="M134.74 26.2L128.52 13.26H123.95C124.32 13.81 124.34 14.54 123.99 15.11L118.66 26.21H122.92C122.64 25.96 122.58 25.54 122.78 25.22L123.22 24.3H130.15L130.51 25.07L130.56 25.17V25.22C130.77 25.54 130.71 25.96 130.42 26.21H134.68L134.74 26.2ZM124.8 21.01L126.7 17.05L128.6 21.01H124.8Z" fill="#848498"/>
<path d="M147.05 22.56C148.62 21.67 149.61 20.01 149.63 18.2C149.63 15.57 147.56 13.4 144.94 13.27H136.06C136.49 13.78 136.69 14.43 136.62 15.09V24.48C136.68 25.11 136.47 25.73 136.06 26.2H140.47C140.09 25.78 139.9 25.23 139.92 24.66V23.12H143.12L145.96 26.2H150.43L147.05 22.56ZM144.94 19.84H139.91V16.55H144.94C145.85 16.7 146.46 17.56 146.31 18.47C146.19 19.17 145.64 19.72 144.94 19.84Z" fill="#848498"/>
<path d="M116.73 14.88C116.7 14.29 116.9 13.71 117.29 13.26H112.87C113.49 13.95 113.43 14.59 113.43 15.57V21.26L106.05 13.3H102.08C102.7 13.99 102.64 14.63 102.64 15.61V24.48C102.7 25.11 102.49 25.74 102.08 26.21H106.5C105.88 25.52 105.94 24.88 105.94 23.9V17.98L113.56 26.21H117.28C116.89 25.77 116.69 25.19 116.72 24.59L116.73 14.88Z" fill="#848498"/>
<path d="M14.78 13.26H10.37C10.79 13.76 11 14.4 10.93 15.05V20.71C10.94 21.22 10.74 21.72 10.38 22.08C9.55 22.77 8.47 23.11 7.39 23.03C6.31 23.11 5.24 22.77 4.4 22.08C4.02 21.7 3.82 21.18 3.85 20.64V14.85C3.82 14.27 4.02 13.69 4.41 13.26H0C0.39 13.71 0.599999 14.29 0.559999 14.88V20.64C0.529999 22.04 1.07 23.39 2.05 24.39C2.91 25.28 4.54 26.32 7.38 26.32C10.22 26.32 11.85 25.27 12.71 24.39C13.69 23.4 14.23 22.05 14.2 20.65V14.8C14.2 14.23 14.4 13.68 14.78 13.26Z" fill="#848498"/>
<path d="M34.46 21.14L40.12 13.26H35.23C35.54 13.55 35.56 14.04 35.27 14.35C35.26 14.36 35.25 14.37 35.23 14.39L32.78 17.8L30.24 14.22C30.02 13.91 30.09 13.49 30.39 13.26H25.5L31.16 21.15V24.6C31.19 25.19 30.99 25.77 30.6 26.22H35.01C34.63 25.8 34.43 25.25 34.45 24.68L34.46 21.14Z" fill="#848498"/>
<path d="M25.96 22.9H20.4V14.87C20.37 14.28 20.57 13.7 20.96 13.25H16.54C16.93 13.69 17.13 14.26 17.1 14.85V24.56C17.13 25.15 16.93 25.74 16.54 26.18H27.54V22.33C27.11 22.73 26.54 22.93 25.96 22.9Z" fill="#848498"/>
<path d="M81.39 16.36C81.96 16.34 82.51 16.54 82.93 16.92V13.26H70.91C71.53 13.95 71.47 14.59 71.47 15.57V23.92C71.47 24.87 71.52 25.51 70.91 26.23H82.96V22.54C82.53 22.92 81.96 23.13 81.38 23.1H74.76V21.24H81.14V18.23H74.76V16.35H81.39V16.36Z" fill="#848498"/>
<path d="M48.09 18.3C46.33 18.1 43.79 18.13 43.79 17.1C43.79 16.55 44.25 16.11 46.67 16.11C47.98 16.09 49.28 16.29 50.52 16.71C50.96 16.86 51.33 17.15 51.59 17.54L52.04 16.55L52.81 14.85L53.13 14.17C52.68 14.27 52.2 14.22 51.78 14.04C49.96 13.38 48.05 13.07 46.12 13.1C40.99 13.1 40.51 16.38 40.51 17.16C40.51 20.01 43.19 20.72 46.16 21.01C49.13 21.29 50.39 21.13 50.27 22.17C50.2 22.77 49.06 23.25 46.78 23.25C45.41 23.2 44.06 22.89 42.81 22.34C42.38 22.16 42.03 21.83 41.8 21.42L41.61 21.77L40.42 23.92L39.93 24.78C40.33 24.72 40.73 24.78 41.1 24.94C43.02 25.81 45.1 26.29 47.21 26.34C51.6 26.34 53.57 24.16 53.57 22.1C53.54 19.17 50.84 18.63 48.09 18.3Z" fill="#848498"/>
<path d="M63.53 18.3C61.78 18.09 59.25 18.13 59.25 17.1C59.25 16.55 59.71 16.11 62.13 16.11C63.44 16.09 64.74 16.29 65.98 16.71C66.42 16.86 66.79 17.15 67.05 17.54L67.5 16.55L68.27 14.85L68.59 14.17C68.14 14.27 67.66 14.22 67.24 14.04C65.41 13.38 63.48 13.06 61.53 13.09C56.4 13.09 55.92 16.37 55.92 17.15C55.92 20 58.6 20.71 61.57 21C64.54 21.28 65.8 21.12 65.68 22.16C65.61 22.76 64.47 23.24 62.19 23.24C60.82 23.19 59.47 22.88 58.22 22.33C57.79 22.14 57.44 21.82 57.21 21.41L57 21.76L55.81 23.91L55.33 24.8C55.73 24.74 56.13 24.8 56.5 24.96C58.42 25.83 60.5 26.31 62.61 26.36C67 26.36 68.97 24.18 68.97 22.12C68.97 19.17 66.28 18.63 63.53 18.3Z" fill="#848498"/>
</svg>
