<svg width="119" height="76" viewBox="0 0 119 76" fill="none" xmlns="http://www.w3.org/2000/svg">
<path d="M23.7259 46.56C22.8059 46.6 21.9159 46.96 21.0559 47.64C21.9759 48.69 22.5659 49.65 22.8259 50.5C23.2759 51.95 22.9959 53.17 22.0059 54.14C21.1159 55.02 19.9659 55.45 18.5359 55.45C18.1659 55.45 17.7959 55.4 17.4259 55.3L17.0359 56.58C16.2359 59.27 14.9259 61.37 13.1159 62.91C11.1659 64.58 8.76593 65.41 5.92593 65.41C4.74593 65.41 3.63591 65.17 2.59591 64.7C1.29591 64.1 0.455924 63.22 0.105924 62.04C-0.0140759 61.64 -0.0340637 61.29 0.0559363 60.97C0.155936 60.63 0.375909 60.46 0.715909 60.46C1.21591 60.46 1.55592 60.74 1.72592 61.29C1.81592 61.59 1.72591 61.89 1.46591 62.18C1.19591 62.52 1.08592 62.78 1.13592 62.96C1.36592 63.72 2.08592 64.28 3.28592 64.66C3.72592 64.82 4.16592 64.93 4.60592 64.99C5.04592 65.05 5.47591 65.08 5.90591 65.08C7.94591 65.08 9.64594 64.52 11.0259 63.39C11.5759 62.93 12.0859 62.37 12.5559 61.69C13.0159 61.01 13.4659 60.22 13.8959 59.31C13.9259 59.21 14.0959 58.74 14.4259 57.91C14.7459 57.08 15.2259 55.86 15.8559 54.25C15.5859 53.93 15.4059 53.61 15.3059 53.3C15.0959 52.6 15.0959 51.91 15.3159 51.21C15.5159 50.53 15.8859 50.03 16.4159 49.69L16.5759 49.96C15.4759 50.82 15.1359 51.93 15.5559 53.3C15.6259 53.52 15.7459 53.73 15.9159 53.93C16.4859 52.56 17.1359 51.39 17.8459 50.44C18.1459 50.02 18.5259 49.58 18.9759 49.1C19.4259 48.62 19.9459 48.11 20.5259 47.58C18.9759 46.11 16.8759 45.37 14.2459 45.37C12.2459 45.37 10.3759 45.72 8.62591 46.42C6.68591 47.2 5.28591 48.28 4.46591 49.67C3.68591 50.96 3.48591 52.24 3.87591 53.49C4.18591 54.5 4.81593 55.28 5.76593 55.82C6.58593 56.3 7.48592 56.54 8.47592 56.54C9.96592 56.54 11.3359 56.03 12.5759 55.02C13.9459 53.89 14.3959 52.54 13.9259 50.99C13.7259 50.33 13.3259 49.83 12.7359 49.47C12.2159 49.17 11.6259 49.02 10.9759 49.02C9.79592 49.02 8.72591 49.35 7.74591 50C6.82591 50.64 6.09593 51.45 5.58594 52.45L5.40591 52.3C5.66591 51.27 6.34591 50.4 7.43591 49.71C8.49591 49.03 9.64592 48.7 10.8859 48.7C11.5959 48.7 12.2759 48.9 12.9159 49.3C13.5559 49.68 13.9959 50.26 14.2359 51.06C14.7459 52.73 14.3159 54.17 12.9459 55.38C11.7259 56.46 10.2859 56.99 8.61593 56.99C7.51593 56.99 6.49594 56.68 5.55594 56.06C4.55594 55.4 3.87594 54.5 3.52594 53.35C2.94594 51.44 3.38592 49.68 4.85592 48.07C6.76592 46 9.65593 44.97 13.5459 44.97C16.5359 44.97 18.9459 45.79 20.7659 47.42C21.5159 46.76 22.4959 46.38 23.6859 46.26L23.7259 46.56ZM17.4759 55.06C17.6759 55.1 17.8459 55.12 17.9959 55.12C19.2259 55.12 20.2059 54.41 20.9359 53.01C21.6159 51.68 21.7459 50.34 21.3259 48.97C21.2259 48.65 21.0459 48.29 20.7659 47.87C19.5059 49.25 18.4059 51.64 17.4759 55.06Z" fill="#848498"/>
<path d="M31.1259 55.72C31.1559 55.68 31.1859 55.66 31.2159 55.66C31.3459 55.66 31.5159 55.75 31.7159 55.93C31.9259 56.13 32.0559 56.3 32.0959 56.44C32.1759 56.72 31.7159 58.05 30.7059 60.44C29.6859 62.85 29.2359 64.24 29.3459 64.62C29.3959 64.8 29.4959 64.89 29.6259 64.89C30.2059 64.89 32.2859 61.27 32.6359 60.76C32.9759 60.25 33.2359 59.81 33.4259 59.43L33.7059 59.61C33.4159 60.13 33.1059 60.66 32.7659 61.21C32.4259 61.76 30.4959 65.22 29.7159 65.22C29.4759 65.22 29.2459 65.09 29.0359 64.83C27.9759 63.51 28.756 62.24 29.276 60.86C29.896 59.14 30.5159 57.43 31.1259 55.72ZM32.9659 52.02C33.4159 52.02 33.7059 52.24 33.8359 52.68C33.9359 53 33.9059 53.31 33.7559 53.6C33.5859 53.9 33.3459 54.05 33.0459 54.05C32.6159 54.05 32.3259 53.81 32.1859 53.34C32.0859 53.02 32.1059 52.72 32.2459 52.44C32.4259 52.16 32.6659 52.02 32.9659 52.02Z" fill="#848498"/>
<path d="M39.9759 56.56C39.4459 57.57 37.4259 61.43 37.1559 61.97C36.8859 62.52 36.7159 62.84 36.6559 62.94C35.7059 64.43 34.8359 65.18 34.0359 65.18C33.4359 65.18 33.0059 64.74 32.7359 63.87C32.4059 62.8 32.7559 60.87 33.7959 58.08C34.7659 55.51 35.9459 53.14 37.3359 50.95C38.8059 48.62 39.9259 47.46 40.6959 47.46C41.1659 47.46 41.4859 47.74 41.6559 48.3C42.0159 49.47 41.3359 51.16 39.6159 53.37C38.9859 54.19 37.7059 55.59 35.7759 57.58C35.5259 57.86 35.2559 58.38 34.9759 59.16C34.8559 59.46 34.7659 59.76 34.6759 60.06C34.5959 60.36 34.4859 60.65 34.3659 60.93C34.2159 61.37 34.0859 61.73 33.9659 62.02C33.8459 62.31 33.7659 62.53 33.7259 62.69C33.5559 63.31 33.0359 64.45 33.8659 64.81C34.9359 65.26 36.0359 63.34 36.4359 62.69C36.5959 62.43 36.8159 62.04 37.0959 61.51C37.3759 60.98 39.3259 57.23 39.7259 56.39L39.9759 56.56ZM35.9259 56.91C37.0659 55.86 38.1959 54.51 39.3459 52.88C40.8959 50.69 41.5259 49.09 41.2159 48.08C41.1359 47.84 41.0059 47.72 40.8259 47.72C40.2459 47.72 39.2659 49.25 37.8859 52.32C37.5359 53.08 37.2059 53.84 36.8959 54.62C36.5759 55.39 36.2559 56.16 35.9259 56.91Z" fill="#848498"/>
<path d="M39.9959 55.72C40.0259 55.68 40.0459 55.66 40.0859 55.66C40.2159 55.66 40.3759 55.75 40.5859 55.93C40.7959 56.13 40.9259 56.3 40.9659 56.44C41.0459 56.72 40.5859 58.05 39.5759 60.44C38.5559 62.85 38.1059 64.24 38.2159 64.62C38.2659 64.8 38.3659 64.89 38.4959 64.89C39.0759 64.89 45.8159 55.16 45.9859 54.8L46.5259 54.98C46.2359 55.5 39.3559 65.22 38.5759 65.22C38.3359 65.22 38.1059 65.09 37.8959 64.83C36.2359 62.76 39.2259 57.87 39.9959 55.72ZM48.1059 62.49C48.6159 61.83 54.7359 55.14 54.9159 54.78L55.4559 54.96C55.1659 55.48 48.7859 62.28 48.3559 62.82L48.1059 62.49ZM41.8359 52.02C42.2859 52.02 42.5759 52.24 42.7059 52.68C42.8059 53 42.7759 53.31 42.6259 53.6C42.4559 53.9 42.2159 54.05 41.9159 54.05C41.4859 54.05 41.2059 53.81 41.0559 53.34C40.9559 53.02 40.9759 52.72 41.1159 52.44C41.2959 52.16 41.5359 52.02 41.8359 52.02Z" fill="#848498"/>
<path d="M46.5359 54.96C45.8559 56.63 44.9659 58.64 44.9259 58.94C45.4759 57.99 46.0059 57.22 46.5059 56.64C46.9259 56.15 47.5359 55.22 48.2759 55.54C48.8859 55.81 49.2459 56.99 49.4159 57.54C49.9859 59.39 49.6159 61.15 48.3359 62.82C47.0359 64.51 45.4959 65.36 43.7159 65.36C43.3959 65.36 43.0359 65.28 42.6359 65.12C42.3459 65.88 42.0559 66.62 41.7759 67.36C41.4959 68.1 41.2159 68.84 40.9459 69.6C40.4859 70.85 40.1159 71.79 39.8159 72.42C39.5259 73.05 39.3359 73.38 39.2559 73.42L38.9659 73.3L38.4359 72.58C38.4259 72.18 38.5159 71.63 38.7059 70.91C38.8959 70.19 39.2059 69.31 39.6359 68.25L41.4259 63.95C41.3459 63.75 41.2859 63.59 41.2359 63.47C41.1859 63.35 41.1559 63.25 41.1259 63.17C41.0459 62.89 41.0259 62.6 41.0559 62.31H41.3359C41.2959 62.61 41.3159 62.9 41.4059 63.17C41.4259 63.23 41.4459 63.3 41.4759 63.38C41.4959 63.44 41.5259 63.51 41.5659 63.59C41.9059 62.75 42.3459 61.72 42.8759 60.49C43.4059 59.26 43.7559 58.82 44.4359 57.13L46.5359 54.96ZM42.7259 64.79C42.9759 64.95 43.2259 65.03 43.4659 65.03C44.4359 65.03 45.4159 64.24 46.4159 62.67C47.1959 61.44 47.7159 60.17 47.9759 58.88C48.0059 58.74 48.0459 58.56 48.0959 58.34C48.1359 58.12 48.1959 57.87 48.2559 57.59C48.3859 56.97 48.3959 56.48 48.2759 56.1C48.2059 55.86 48.0859 55.74 47.9159 55.74C47.7659 55.74 47.5759 55.86 47.3559 56.1C46.4059 56.98 45.5059 58.32 44.6359 60.13C44.4659 60.49 44.2259 61.06 43.9059 61.83C43.5959 62.61 43.1959 63.6 42.7259 64.79Z" fill="#848498"/>
<path d="M55.3659 54.96C54.6759 56.63 53.7959 58.64 53.7559 58.94C54.3059 57.99 54.8359 57.22 55.3259 56.64C55.7359 56.16 56.4059 55.27 57.1159 55.56C57.7259 55.81 58.0859 57 58.2459 57.53C58.8159 59.38 58.4559 61.14 57.1659 62.81C55.8659 64.5 54.3259 65.35 52.5459 65.35C52.2259 65.35 51.8659 65.27 51.4659 65.11C51.1759 65.87 50.8859 66.61 50.6059 67.35C50.3259 68.09 50.0559 68.83 49.7759 69.59C49.3159 70.84 48.9359 71.78 48.6459 72.41C48.3559 73.04 48.1659 73.37 48.0859 73.41L47.7959 73.29L47.2659 72.57C47.2559 72.17 47.3459 71.62 47.5359 70.9C47.7259 70.18 48.0359 69.3 48.4659 68.24L50.2559 63.94C50.1759 63.74 50.1159 63.58 50.0659 63.46C50.0159 63.34 49.9859 63.24 49.9659 63.16C49.8859 62.88 49.8559 62.59 49.8959 62.3H50.1759C50.1359 62.6 50.1559 62.89 50.2459 63.16C50.2659 63.22 50.2859 63.29 50.3059 63.37C50.3259 63.43 50.3559 63.5 50.3959 63.58C50.7359 62.74 51.1759 61.71 51.7059 60.48C52.2359 59.25 52.8459 58.3 53.5259 56.6L55.3659 54.96ZM51.5459 64.79C51.8059 64.95 52.0459 65.03 52.2959 65.03C53.2659 65.03 54.2459 64.24 55.2459 62.67C56.0259 61.44 56.5459 60.17 56.8059 58.88C56.8359 58.74 56.8759 58.56 56.9259 58.34C56.9759 58.12 57.0259 57.87 57.0859 57.59C57.2159 56.97 57.2259 56.48 57.1059 56.1C57.0359 55.86 56.9159 55.74 56.7459 55.74C56.5959 55.74 56.4059 55.86 56.1759 56.1C55.2259 56.98 54.3259 58.32 53.4559 60.13C53.2859 60.49 53.0459 61.06 52.7259 61.83C52.4159 62.61 52.0259 63.6 51.5459 64.79Z" fill="#848498"/>
<path d="M65.3859 61.42C63.7059 63.95 62.2959 65.21 61.1359 65.21C60.2159 65.21 59.5659 64.57 59.1859 63.3C58.2859 60.36 59.2059 58.05 61.9459 56.38C62.6559 55.94 63.1959 55.72 63.5959 55.72C64.0759 55.72 64.4059 55.99 64.5659 56.53C64.9359 57.72 64.6059 58.78 63.5959 59.69C62.6959 60.53 61.6659 60.95 60.5159 60.97C59.9959 62.56 59.8159 63.64 59.9959 64.22C60.1459 64.72 60.4959 64.97 61.0359 64.97C62.0659 64.97 63.4259 63.75 65.1259 61.3L65.3859 61.42ZM60.5459 60.7C61.1359 60.62 61.6159 60.45 61.9859 60.19C62.4759 59.89 62.9959 59.37 63.5459 58.61C64.1859 57.75 64.4159 57.06 64.2559 56.52C64.1459 56.16 63.9659 55.98 63.6959 55.98C63.2659 55.98 62.6559 56.65 61.8659 57.98C61.5459 58.54 61.2859 59.04 61.0659 59.49C60.8559 59.94 60.6759 60.34 60.5459 60.7Z" fill="#848498"/>
<path d="M29.7659 59.42C29.5359 59.9 29.2559 60.39 28.9359 60.91C28.6059 61.43 28.2359 61.97 27.8159 62.55C26.6859 64.06 25.7959 64.82 25.1159 64.82L24.7959 64.58C24.8659 64.03 25.4059 62.74 26.4159 60.71C27.2359 59.06 27.5059 57.78 27.2259 56.84C27.1559 56.62 26.9959 56.37 26.7459 56.1C26.5259 55.86 26.2859 55.74 26.0259 55.74C25.4659 55.74 24.6659 56.52 23.6259 58.07C23.2959 58.59 22.9659 59.1 22.6459 59.62C22.3159 60.14 21.9959 60.65 21.6659 61.17C22.2359 59.74 22.6659 58.65 22.9659 57.9C23.2559 57.15 23.4259 56.73 23.4759 56.63C23.5759 56.41 23.7959 56.11 24.1359 55.72C24.4759 55.33 24.9359 54.84 25.5159 54.24C26.1459 53.6 26.6659 53.04 27.0959 52.54C27.5259 52.04 27.8559 51.61 28.0959 51.23C28.8759 50 29.1259 48.92 28.8559 48.01C28.7059 47.51 28.3959 47.26 27.9259 47.26C27.1559 47.26 26.2159 48.23 25.1059 50.15C24.9359 50.45 24.6759 50.92 24.3159 51.57C23.9659 52.22 23.5659 53.1 23.1259 54.21L22.6259 55.49C22.6259 55.61 22.5159 55.97 22.2859 56.54C20.3959 58.24 17.1059 61.12 16.6959 61.02V61.36C17.2159 61.49 20.0859 59.02 21.9659 57.33C21.6759 58 21.3059 58.85 20.8259 59.88C19.7659 62.19 18.7259 64.44 18.5759 65.09H20.1059C20.3659 64.82 20.8859 63.9 21.6559 62.33C22.1259 61.38 22.5459 60.57 22.9159 59.9C23.2859 59.23 23.5959 58.7 23.8359 58.3C24.2059 57.72 24.6059 57.08 25.1459 56.64C25.9959 55.95 26.5859 56.11 26.1559 57.22C25.9959 57.64 25.7759 58.13 25.4959 58.68C24.8759 59.89 24.4859 60.77 24.3059 61.31C23.9759 62.31 23.9259 63.2 24.1759 64C24.4059 64.76 24.7259 65.13 25.1359 65.13C25.9359 65.13 26.8959 64.37 27.9959 62.86C28.7559 61.87 29.4359 60.77 30.0159 59.58L29.7659 59.42ZM24.6459 53.46C24.9259 52.77 25.2159 52.07 25.5159 51.38C26.6159 48.86 27.4659 47.6 28.0859 47.6C28.2959 47.6 28.4259 47.71 28.4959 47.93C28.5559 48.13 28.5159 48.46 28.3859 48.94C28.0759 50.19 27.4359 51.39 26.4659 52.54C26.0259 53.06 25.5859 53.56 25.1459 54.06C24.7159 54.56 24.2659 55.05 23.8159 55.55C24.0859 54.85 24.3659 54.15 24.6459 53.46Z" fill="#848498"/>
<path d="M79.6759 52.7099C78.8159 53.6799 77.7059 54.1699 76.3359 54.1699C75.5159 54.1699 74.7759 53.9499 74.1159 53.5099C73.3859 53.0299 72.8959 52.3599 72.6259 51.4799C72.2759 50.3299 72.4359 49.1599 73.0959 47.9899C74.2559 45.9199 76.2359 44.8899 79.0359 44.8899C79.8359 44.8899 80.6959 45.0499 81.5959 45.3699C82.7359 45.7899 83.4059 46.3499 83.6259 47.0699C83.6459 47.1499 83.6659 47.2499 83.6859 47.3499C83.7059 47.4599 83.7159 47.5899 83.7259 47.7499C83.7359 48.0899 83.7559 48.3099 83.7859 48.4099C83.9059 48.8099 84.2059 49.0099 84.6659 49.0099C85.1559 49.0099 86.1359 48.1399 87.6259 46.4099C87.8959 46.0899 88.1959 45.8099 88.5059 45.5699C88.8159 45.3299 89.1459 45.1099 89.4959 44.9099L89.7359 45.1499C88.7459 46.1299 87.9159 47.7699 87.2659 50.0699L85.7859 55.3199C85.3359 56.9499 84.7959 58.4399 84.1659 59.7999C83.5459 61.1499 82.8359 62.3699 82.0459 63.4399C81.5859 64.0799 81.1159 64.4999 80.6459 64.7199C83.2259 63.8799 85.4759 61.1299 87.3959 56.4599C87.7259 55.6599 88.0559 54.8699 88.3659 54.0699C88.6859 53.2699 89.0059 52.4799 89.3159 51.6799C89.6959 50.7299 90.0859 49.8699 90.4859 49.1299C90.8859 48.3799 91.2759 47.7199 91.6559 47.1499C92.2659 46.2099 93.0859 45.4699 94.1059 44.9099L94.2959 45.1799C93.7659 45.6399 93.3659 46.2799 93.0959 47.1199C93.0359 47.2799 92.9559 47.5599 92.8459 47.9599C92.7459 48.3599 92.6159 48.8699 92.4759 49.4799C91.3759 54.1299 90.6759 56.9299 90.3559 57.8599C89.1459 61.6199 87.7659 63.9399 86.2059 64.8099C87.1159 64.6099 88.016 64.0299 88.896 63.0799C89.7459 62.1199 90.5359 61.0299 91.2659 59.7999C91.9959 58.5599 92.676 57.1699 93.306 55.6199C94.046 53.8099 94.5859 52.4399 94.9459 51.4999C95.3059 50.5699 95.496 50.0799 95.526 50.0399C96.716 47.4499 97.7959 45.8699 98.7859 45.2999C99.3459 44.9799 100.006 44.8199 100.766 44.8199C101.926 44.8199 102.616 45.1999 102.846 45.9499C103.006 46.4899 102.846 46.7499 102.336 46.7499C101.846 46.7499 101.516 46.4999 101.346 46.0099C101.126 45.4899 100.786 45.2299 100.296 45.2299C98.9559 45.2299 97.6059 46.5599 96.2459 49.2299C96.1459 49.4499 95.9059 50.0299 95.5159 50.9799C95.1359 51.9199 94.6059 53.2499 93.9259 54.9599C93.6259 55.7499 93.2959 56.5299 92.9459 57.2899C92.5959 58.0499 92.216 58.7999 91.836 59.5599C91.326 60.5099 90.7859 61.3699 90.2259 62.1299C89.6659 62.8899 89.0459 63.5399 88.3759 64.0999C87.6359 64.7399 86.5859 65.1199 85.2259 65.2599L85.1459 64.9899C85.9759 64.4699 86.6459 63.5599 87.1359 62.2499C87.2659 61.9299 87.6059 60.7699 88.1659 58.7599L89.336 54.6099C90.416 50.7499 91.686 47.8499 93.146 45.8999C92.1659 46.6599 90.9159 48.8499 89.4159 52.4899C88.5659 54.5399 87.8459 56.2099 87.2459 57.4999C86.6559 58.7899 86.1859 59.7199 85.8559 60.2699C83.9259 63.4699 81.7859 65.1099 79.4559 65.1899L79.3859 64.9499C80.1259 64.6299 80.7859 63.8899 81.3659 62.7099C81.4859 62.4299 81.6359 62.0399 81.8259 61.5499C82.0059 61.0499 82.2159 60.4299 82.4359 59.6999L83.7859 55.3999C84.4459 53.2699 85.1359 51.4399 85.8759 49.9099C86.6159 48.3799 87.4059 47.1399 88.2559 46.1799C87.9759 46.4999 87.7059 46.8199 87.4259 47.1399C87.1459 47.4599 86.8659 47.7899 86.5759 48.1199C85.8859 48.9199 85.1759 49.3099 84.4459 49.3099C83.9759 49.3099 83.5159 49.1699 83.0559 48.8899C82.6259 48.6299 82.3259 48.2399 82.1659 47.7299C82.1059 47.5299 82.0759 47.2999 82.0659 47.0399C82.0459 46.6799 82.0259 46.4399 81.9859 46.3199C81.8759 45.9399 81.5059 45.6399 80.8759 45.4299C80.3859 45.2699 79.9259 45.1899 79.5159 45.1899C78.3359 45.1899 77.2059 45.4999 76.0959 46.1199C74.9459 46.7599 74.0959 47.5099 73.5459 48.3899C72.8359 49.5599 72.6359 50.6299 72.9259 51.5799C73.3659 53.0099 74.3759 53.7299 75.9659 53.7299C77.7759 53.7299 79.0859 52.8499 79.8959 51.0799C80.2259 50.3399 80.3259 49.7199 80.1859 49.1999H80.4359C80.8259 50.5699 80.5559 51.7299 79.6759 52.7099Z" fill="#848498"/>
<path d="M107.616 59.4499C105.886 63.0699 104.556 64.8799 103.646 64.8799C103.476 64.8799 103.366 64.7999 103.326 64.6399C103.226 64.3199 103.436 63.7099 103.966 62.7899C104.336 62.1099 104.646 61.5499 104.876 61.1099C105.116 60.6599 105.276 60.3099 105.366 60.0499C105.816 58.8999 105.906 57.8699 105.636 56.9799C105.446 56.3599 105.186 56.0499 104.846 56.0499C104.806 56.0499 104.586 56.2299 104.166 56.5899C104.416 55.7499 104.516 55.2499 104.456 55.0699L104.406 55.0099C104.376 54.9699 104.346 54.9399 104.316 54.9099C104.286 54.8799 104.256 54.8399 104.216 54.7799C104.086 54.6999 103.976 54.6499 103.916 54.6299C103.596 54.6299 103.366 54.8699 103.206 55.3499C103.026 55.8099 102.986 56.1999 103.086 56.5099C103.176 56.7899 103.486 56.9299 103.766 56.9899C103.856 56.8499 98.806 65.1899 98.296 64.9299C98.186 64.8699 98.076 64.8599 98.0359 64.7199C97.9259 64.3799 98.376 63.0599 99.366 60.7499C100.366 58.4599 100.806 57.1199 100.686 56.7199C100.616 56.4999 100.496 56.2899 100.296 56.0899C100.126 55.8899 99.9559 55.7899 99.7859 55.7899C99.406 56.6199 99.036 57.4499 98.666 58.2599C98.296 59.0799 97.9259 59.8899 97.5359 60.7099C97.186 61.4499 96.786 62.0999 96.356 62.6599C95.916 63.2299 95.476 63.7399 95.016 64.1899C94.516 64.6499 94.196 64.8799 94.046 64.8799C93.936 64.8799 93.8459 64.7799 93.7859 64.5799C93.6659 64.1799 94.1159 62.8599 95.1559 60.6099C96.1559 58.3399 96.5959 56.9899 96.4659 56.5499C96.2959 55.9899 95.9959 55.7399 95.5959 55.8399C95.0559 55.9699 93.736 57.8399 91.556 60.5199L91.696 60.7599C92.636 59.6199 94.406 57.4099 94.806 56.9999C95.086 56.6999 95.376 56.5399 95.006 57.3999C94.966 57.4899 94.9359 57.5699 94.9059 57.6499L93.546 60.4499C93.206 61.1699 93.016 61.6999 92.976 62.0599C92.886 62.6199 92.946 63.2499 93.166 63.9699C93.406 64.7499 93.716 65.1399 94.116 65.1399C94.856 65.1399 95.986 63.9199 97.476 61.4699C97.1759 62.3899 97.156 63.2399 97.396 64.0299C97.626 64.7899 97.946 65.1999 98.356 65.1599C99.906 65.0099 103.966 56.9899 103.966 56.9899C104.176 56.9499 104.356 56.8499 104.496 56.6899C104.606 56.5499 104.686 56.4499 104.756 56.3899C104.826 56.3299 104.866 56.2899 104.876 56.2699L105.036 56.4199C105.136 56.7399 104.916 57.3799 104.396 58.3599C103.996 59.0599 103.676 59.6299 103.446 60.0799C103.216 60.5299 103.066 60.8499 102.976 61.0499C102.506 62.1399 102.396 63.1199 102.666 63.9699C102.906 64.7499 103.256 65.1399 103.726 65.1399C104.076 65.1399 104.476 64.9599 104.896 64.5899C105.326 64.2199 105.766 63.6399 106.216 62.8399C106.526 62.3199 106.806 61.7899 107.076 61.2399C107.336 60.6899 107.616 60.1499 107.896 59.6099L107.616 59.4499Z" fill="#848498"/>
<path d="M115.656 64.4399C116.216 62.9999 116.736 62.1699 115.116 61.2599C115.266 60.9499 115.466 60.6599 115.646 60.3599C115.856 60.0199 116.076 59.6399 116.296 59.1999C117.846 58.2799 118.486 57.3399 118.206 56.3899C118.156 56.2099 118.046 56.0299 117.876 55.8499C117.716 55.6899 117.566 55.6099 117.416 55.6099C117.356 55.6099 117.136 56.1999 116.736 57.3899C116.316 58.5799 115.906 59.1699 115.496 59.1699L115.356 59.0799C115.316 58.8199 115.406 58.4799 115.616 58.0699C115.826 57.6399 115.896 57.2999 115.826 57.0599C115.556 56.1199 115.076 55.6499 114.406 55.6399C114.146 55.6399 113.676 56.4099 113.536 56.5699C112.366 57.9899 107.056 68.2799 107.246 63.7299C107.266 63.2599 110.196 56.8599 112.456 52.0399H116.426V51.6999H112.616C113.556 49.6999 114.346 47.9999 114.706 47.1899H113.006C111.486 50.4999 106.546 61.6899 106.446 62.2399C106.186 63.7299 106.496 64.7199 107.116 65.2099C108.466 66.2799 112.396 58.6999 113.566 57.0599C113.676 56.9099 114.226 55.9099 114.446 55.9099C114.556 55.9099 114.636 55.9799 114.676 56.1199C114.706 56.2399 114.606 56.5399 114.356 57.0099C114.126 57.5099 114.066 57.9099 114.156 58.2299C114.236 58.4899 114.416 58.7599 114.706 59.0399C114.956 59.2799 115.226 59.3999 115.486 59.4099C115.526 59.4099 115.576 59.4099 115.636 59.3999C115.696 59.3899 115.776 59.3799 115.866 59.3599C115.076 60.5999 114.676 61.2399 114.666 61.2599C113.926 61.4099 113.216 61.7899 112.546 62.3999C111.736 63.1299 111.436 63.8499 111.646 64.5699C111.746 64.9099 111.916 65.0799 112.166 65.0799C113.396 65.0899 113.616 60.9699 115.196 61.7399C117.086 62.6599 112.626 66.7499 112.086 67.4799C110.456 69.6899 107.166 72.0099 107.956 74.9799C108.106 75.5399 108.456 75.8399 109.006 75.8199C112.346 75.6699 114.436 65.6799 115.476 64.9999L118.066 62.7099L118.006 62.3999L115.656 64.4399ZM109.176 75.2099C108.826 75.2399 108.606 75.0099 108.526 74.6499C108.226 73.3199 110.866 69.4699 114.346 65.8999C114.046 66.6599 110.146 75.1199 109.176 75.2099Z" fill="#848498"/>
<path fill-rule="evenodd" clip-rule="evenodd" d="M64.386 29.45C67.926 28.29 70.486 24.96 70.486 21.04C70.486 17.11 67.926 13.78 64.386 12.62V4.94997H69.1859V0.0899658H54.086V4.94997H58.946V12.6C55.366 13.74 52.7859 17.09 52.7859 21.04C52.7859 24.99 55.376 28.34 58.946 29.48V36.69H54.086V41.55H69.1859V36.69H64.386V29.45ZM68.046 21.04C68.046 23.59 66.546 25.79 64.396 26.82V15.27C66.546 16.29 68.046 18.49 68.046 21.04ZM62.7459 27.34C62.3859 27.4 62.016 27.44 61.636 27.44C61.256 27.44 60.886 27.4 60.526 27.34V14.74C60.886 14.68 61.256 14.64 61.636 14.64C62.016 14.64 62.3859 14.68 62.7459 14.74V27.34ZM60.526 4.95998H62.7459V12.26C62.3859 12.22 62.006 12.18 61.636 12.18C61.256 12.18 60.886 12.21 60.526 12.26V4.95998ZM55.236 21.04C55.236 18.47 56.756 16.25 58.946 15.23V26.84C56.756 25.83 55.236 23.61 55.236 21.04ZM60.526 36.69V29.82C60.886 29.87 61.256 29.9 61.636 29.9C62.016 29.9 62.3859 29.87 62.7459 29.82V36.69H60.526Z" fill="#848498"/>
</svg>
