<svg width="140" height="65" viewBox="0 0 140 65" fill="none" xmlns="http://www.w3.org/2000/svg">
<path d="M132.48 31.27C127.5 31.27 124.31 34.16 124.31 39.11C124.31 43.91 127.8 46.54 132.48 46.54C137.55 46.54 139.67 44.58 139.67 44.44V37.88H132.71V40.28H137.06V43.19C135.62 44.24 132.47 44.05 132.47 44.05C129.58 44.05 126.91 42.82 126.91 39.11C126.91 35.83 129.31 33.78 132.47 33.78C134.77 33.78 136.4 34.41 137.31 34.94L138.38 32.64C137.21 31.96 135.18 31.27 132.48 31.27ZM0 31.52V46.35H9.36005C13.39 46.35 14.29 44.14 14.29 41.81C14.29 40.65 13.66 39.16 12.17 38.53C13.17 37.81 13.47 36.85 13.47 35.67C13.47 32.69 11.86 31.53 8.40002 31.53L0 31.52ZM117.14 31.55V41.65L108.34 31.83L108.11 31.57H106.06V46.4H108.67V36.11L117.89 46.38H119.78V31.55H117.14ZM37.65 31.55V46.36H50.15V43.87H40.26V40.17H47.4301V37.77H40.26V34.05H50.13V31.56H37.65V31.55ZM62.39 31.55V34.04H67.91V46.35H70.54V34.04H76.06V31.55H62.39ZM54.94 31.55V46.36H57.55V31.55H54.94ZM19.1201 31.55V46.38H21.73V40.28H25.6201L29.44 46.36H32.51L28.55 40.26C30.78 40.07 32.65 38.75 32.65 35.86C32.65 32.3 29.88 31.53 27.32 31.53L19.1201 31.55ZM81.08 31.55V46.38H92.63V43.89H83.69V31.57H81.08V31.55ZM96.8701 31.55V46.38H99.48V31.55C99.47 31.55 96.8701 31.55 96.8701 31.55ZM2.57001 33.87H8.30005C9.88005 33.87 10.88 34.5 10.88 35.73C10.88 36.45 10.67 37.73 8.88 37.73H2.57001V33.87ZM21.72 33.94H27.33C28.33 33.94 30.03 34.2 30.03 36.08C30.03 37.66 28.49 37.87 27.33 37.87C26.17 37.87 21.72 37.87 21.72 37.87V33.94ZM2.57001 40.07H9.02002C10.42 40.07 11.63 40.37 11.63 42.05C11.63 43.73 10.2101 44.01 9.37006 44.01H2.57001C2.57001 44.02 2.57001 40.07 2.57001 40.07ZM60.7401 53.59C58.9501 53.59 57.57 54.06 56.81 54.89C56.3 55.45 56.07 56.17 56.16 56.96C56.21 57.43 56.39 58.1 57.04 58.68L57.27 58.89L57.01 59.08C56.82 59.22 56.66 59.36 56.54 59.5C55.98 60.11 55.73 60.92 55.8 61.8C55.94 63.31 57.29 64.94 60.73 64.94C64.18 64.94 65.55 63.31 65.67 61.8C65.74 60.89 65.4801 60.1 64.9301 59.5C64.7901 59.36 64.65 59.22 64.46 59.08L64.2 58.89L64.4301 58.68C65.0801 58.07 65.27 57.4 65.31 56.93C65.4 56.14 65.17 55.42 64.66 54.86C63.9 54.03 62.5301 53.59 60.7401 53.59ZM72.17 53.59C70.38 53.59 69.0001 54.06 68.2401 54.89C67.73 55.45 67.5 56.17 67.59 56.96C67.64 57.43 67.82 58.1 68.47 58.68L68.7 58.89L68.44 59.08C68.25 59.22 68.09 59.36 67.97 59.5C67.41 60.11 67.16 60.92 67.23 61.8C67.37 63.31 68.72 64.94 72.16 64.94C75.61 64.94 76.98 63.31 77.1 61.8C77.17 60.89 76.91 60.1 76.36 59.5C76.24 59.36 76.08 59.22 75.89 59.08L75.63 58.89L75.86 58.68C76.51 58.07 76.7001 57.4 76.7401 56.93C76.8101 56.14 76.6 55.42 76.09 54.86C75.31 54.03 73.96 53.59 72.17 53.59ZM51.2401 53.87V64.76H53.36V53.87H51.2401ZM81.76 53.87L78.64 60.67L78.6201 62.58H84.81V64.77H86.72V62.58H87.95V60.67H86.72V53.87H81.76ZM60.7401 55.48C61.9501 55.48 62.86 55.74 63.25 56.16C63.41 56.32 63.46 56.51 63.44 56.77C63.37 57.35 62.5101 57.96 60.7401 57.96C58.9701 57.96 58.11 57.35 58.04 56.77C58.02 56.51 58.06 56.33 58.23 56.16C58.62 55.73 59.5301 55.48 60.7401 55.48ZM72.17 55.48C73.38 55.48 74.2901 55.74 74.6801 56.16C74.8401 56.32 74.8901 56.51 74.8701 56.77C74.8001 57.35 73.94 57.96 72.17 57.96C70.4 57.96 69.54 57.35 69.47 56.77C69.45 56.51 69.49 56.33 69.66 56.16C70.03 55.73 70.96 55.48 72.17 55.48ZM82.97 55.8H84.81V60.69H80.71L82.97 55.8ZM60.7401 60.06C61.2301 60.06 62.9 60.11 63.53 60.8C63.74 61.01 63.81 61.29 63.76 61.66C63.67 62.68 62.13 63.06 60.71 63.06C59.29 63.06 57.75 62.69 57.66 61.66C57.64 61.29 57.71 61.01 57.89 60.8C58.36 60.32 59.3901 60.06 60.7401 60.06ZM72.17 60.06C72.66 60.06 74.33 60.11 74.96 60.8C75.17 61.01 75.24 61.29 75.19 61.66C75.1 62.68 73.56 63.06 72.14 63.06C70.72 63.06 69.18 62.69 69.09 61.66C69.07 61.29 69.14 61.01 69.32 60.8C69.77 60.34 70.82 60.06 72.17 60.06Z" fill="#848498"/>
<path d="M71.96 12.64C71.19 12.17 71.94 11.45 72.66 11.45C73.82 11.45 74.85 12.45 74.85 12.45C74.85 12.45 72.87 13.2 71.96 12.64ZM61.23 22.68C58.55 23.4 59.27 17.54 62.65 12.86C66.1 8.09003 68.82 6.67003 68.82 6.67003C68.23 13.62 64.07 21.91 61.23 22.68ZM77.85 3.77003C76.15 2.96003 73.75 3.37003 71.56 4.17003C71.72 1.14003 71.26 0.280029 71.26 0.280029L68.77 0.980029C68.77 0.980029 69.1 2.73003 68.93 5.43003C62.44 9.18003 58.06 15.46 56.85 19.7C55.52 24.31 59.2 25.87 62.3 23.61C69.91 18.02 71.47 5.29003 71.47 5.29003C73.77 4.59003 75.59 4.96003 76.66 5.90003C79.36 8.23003 75.85 11.81 75.85 11.81C75.85 11.81 74.94 10.76 73.24 10.6C70.52 10.34 69.12 13.63 72.75 13.98C73.36 14.03 74.96 13.82 75.57 13.51C76.18 14.63 75.99 19.82 72.47 21.35C69.33 22.72 68.14 20.79 68.14 20.79C68.05 20.79 66.44 22.89 66.53 23.09C66.53 23.09 68.21 25.58 71.86 24.51C74.75 23.67 76.14 21.16 76.86 19.34C78.09 16.34 77.21 13.68 76.72 12.98C81.57 9.62003 80.85 5.05003 77.85 3.77003Z" fill="#848498"/>
</svg>
