<svg width="362" height="35" viewBox="0 0 362 35" fill="none" xmlns="http://www.w3.org/2000/svg">
<path d="M31.4087 33.5169V32.4284H32.1808C32.7935 32.4284 33.3222 32.1688 33.7502 31.6497C34.1783 31.1306 34.4804 30.578 34.6483 29.9918C34.7154 29.8244 34.7574 29.6485 34.7742 29.4727C34.7909 29.2969 34.7993 29.1294 34.7993 28.9536C34.7658 28.8866 34.749 28.8196 34.749 28.7442C34.749 28.6773 34.749 28.627 34.749 28.5852L32.1724 6.55558L22.2437 33.5169H20.8002L8.80692 8.21345L6.95212 28.5349C6.95212 28.7442 6.96052 28.9619 6.9773 29.1796C6.99409 29.4057 7.03605 29.6402 7.10319 29.883C7.31301 30.5026 7.62354 31.0803 8.05997 31.6162C8.488 32.1521 9.02514 32.42 9.67977 32.42H10.4519V33.5085H0.565225V32.42H1.287C1.94164 32.42 2.55431 32.1353 3.1418 31.566C3.72091 30.9966 4.14894 30.3854 4.4259 29.7323C4.52661 29.4895 4.61054 29.2634 4.68607 29.0541C4.75322 28.8447 4.78679 28.6354 4.78679 28.4344L6.95212 4.63815C6.19677 3.59988 5.24 2.78769 4.09019 2.20158C2.94038 1.61546 1.73182 1.31403 0.456119 1.31403L0.405762 0.175293H9.93156L22.4955 26.6593L32.2311 0.175293H41.6562V1.31403H38.8782H38.8279C38.1397 1.31403 37.5438 1.56522 37.0486 2.06761C36.5534 2.56999 36.3184 3.18123 36.352 3.90131C36.352 3.93481 36.352 3.97667 36.352 4.02691C36.352 4.07715 36.352 4.13576 36.352 4.21112L39.1888 28.3675C39.2223 28.5433 39.2559 28.7191 39.2895 28.9117C39.323 29.1043 39.3986 29.2969 39.4993 29.5062C39.7762 30.2263 40.2043 30.8961 40.7834 31.499C41.3709 32.1019 42.0339 32.4117 42.7976 32.4117H43.5698V33.5002H31.4087V33.5169Z" fill="#606078"/>
<path d="M65.2315 30.5862C62.9655 32.5371 60.3805 33.5168 57.4682 33.5168C54.5895 33.5168 52.0213 32.5371 49.7553 30.5862C47.4892 28.6353 46.3562 26.1485 46.3562 23.1258C46.3562 20.1031 47.4892 17.6079 49.7553 15.6403C52.0213 13.6726 54.5895 12.6846 57.4682 12.6846C60.3805 12.6846 62.9655 13.6642 65.2315 15.6403C67.4976 17.6079 68.6306 20.1031 68.6306 23.1258C68.6222 26.1485 67.4976 28.6353 65.2315 30.5862ZM63.6033 21.0577C63.5362 20.9069 63.4691 20.7478 63.4019 20.572C62.8228 19.1486 61.9332 17.834 60.7162 16.6283C59.4993 15.4226 58.0977 14.8365 56.5031 14.8699C56.3016 14.8699 56.0918 14.8783 55.8652 14.8951C55.647 14.9118 55.412 14.9537 55.177 15.0207C53.6915 15.3974 52.6088 16.2096 51.929 17.4656C51.2492 18.7216 50.8799 20.078 50.8128 21.5433C50.8128 21.5768 50.8128 21.627 50.8128 21.694C50.8128 21.761 50.8128 21.828 50.8128 21.895C50.8128 22.3722 50.8463 22.8495 50.9135 23.3184C50.9806 23.7957 51.0813 24.2562 51.2156 24.6916C51.2492 24.8255 51.2828 24.9595 51.3163 25.0767C51.3499 25.194 51.4003 25.3195 51.4674 25.4619C52.0129 26.9607 52.911 28.3255 54.1615 29.5563C55.412 30.7955 56.8472 31.4152 58.4754 31.4152C58.5761 31.4152 58.6768 31.4152 58.7775 31.4152C58.8782 31.4152 58.9957 31.3984 59.13 31.3649C59.2307 31.3649 59.3314 31.3565 59.4321 31.3398C59.5329 31.323 59.6336 31.2979 59.7427 31.2561C61.2618 30.8542 62.3528 30.0085 63.0159 28.7358C63.6789 27.4631 64.0398 26.0982 64.1069 24.6413C64.1069 24.5743 64.1069 24.5074 64.1069 24.4404C64.1069 24.3734 64.1069 24.298 64.1069 24.2311C64.1069 24.1306 64.1069 24.0217 64.1069 23.8961C64.1069 23.7789 64.1069 23.6533 64.1069 23.511C64.0733 23.176 64.0314 22.8327 63.981 22.4894C63.9307 22.1545 63.8551 21.828 63.7544 21.5265C63.7208 21.3758 63.6705 21.2084 63.6033 21.0577Z" fill="#606078"/>
<path d="M93.3389 33.517C91.3666 33.517 89.3943 33.517 87.4304 33.517V32.4285H88.2109C88.8656 32.4285 89.4447 32.1522 89.9482 31.5996C90.4518 31.0469 90.8211 30.4441 91.0645 29.791C91.1316 29.5817 91.1988 29.3723 91.2491 29.1463C91.2995 28.9202 91.3247 28.7109 91.3247 28.5015V21.644C91.3247 20.1619 90.8127 18.8641 89.7972 17.7672C88.7733 16.662 87.5227 16.1094 86.0372 16.1094C84.5853 16.1094 83.3347 16.6201 82.2773 17.6333C81.2198 18.6464 80.6994 19.8689 80.6994 21.2839V28.5015C80.6994 28.7109 80.7246 28.9202 80.775 29.1463C80.8253 29.3723 80.8841 29.59 80.9596 29.791C81.203 30.4441 81.5807 31.0553 82.101 31.5996C82.6214 32.1522 83.1921 32.4285 83.8131 32.4285H84.5937V33.517C82.6214 33.517 80.6491 33.517 78.6768 33.517C76.7045 33.517 74.7573 33.517 72.8186 33.517V32.4285H73.5488C74.2034 32.4285 74.7909 32.1522 75.3113 31.5996C75.8316 31.0469 76.2093 30.4441 76.4527 29.791C76.5198 29.5817 76.5786 29.3723 76.6289 29.1463C76.6793 28.9202 76.7045 28.7109 76.7045 28.5015V16.9802C76.7045 16.1847 76.4107 15.4981 75.8232 14.912C75.2357 14.3259 74.5223 14.0328 73.6915 14.0328H72.9613V12.9443C74.237 12.9443 75.5295 12.9443 76.822 12.9443C78.1144 12.9443 79.4069 12.9443 80.691 12.9443V16.9299C81.3792 15.7242 82.3444 14.7529 83.5697 14.0328C84.7951 13.3044 86.1044 12.9443 87.4892 12.9443C89.772 12.9443 91.652 13.79 93.1459 15.4814C94.6314 17.1727 95.3784 19.1237 95.3784 21.3342V28.5015C95.3784 28.7109 95.4035 28.9202 95.4539 29.1463C95.5043 29.3723 95.563 29.59 95.6385 29.791C95.8819 30.4441 96.2512 31.0553 96.7548 31.5996C97.25 32.1522 97.8374 32.4285 98.4921 32.4285H99.2726V33.517C97.2835 33.517 95.3112 33.517 93.3389 33.517Z" fill="#606078"/>
<path d="M116.1 32.6044C114.892 33.6762 113.364 34.2121 111.535 34.2121C111.434 34.2121 111.333 34.2121 111.249 34.2121C111.165 34.2121 111.073 34.2121 110.964 34.2121C109.545 34.0697 108.228 33.5339 107.019 32.5793C105.802 31.6332 105.198 30.3856 105.198 28.8282V14.0999H102.034V12.6514L109.193 5.91943V13.0114H116.511V14.0999H109.193C109.193 16.3774 109.193 19.3415 109.193 21.6022C109.193 23.8629 109.193 26.1153 109.193 28.3593C109.193 29.1547 109.512 29.833 110.158 30.4023C110.796 30.9717 111.493 31.3401 112.256 31.5159C112.357 31.5159 112.475 31.5243 112.592 31.5411C112.71 31.5578 112.827 31.5662 112.928 31.5662C114.002 31.5662 114.85 31.248 115.471 30.6117C116.092 29.9753 116.528 29.1882 116.772 28.2588H117.913C117.913 30.0841 117.309 31.5327 116.1 32.6044Z" fill="#606078"/>
<path d="M137.586 17.9849C137.082 18.5877 136.436 18.8891 135.639 18.8891C135.018 18.8891 134.472 18.6631 134.002 18.2193C133.532 17.7755 133.305 17.2229 133.305 16.5614C133.305 16.2516 133.364 15.9586 133.482 15.6823C133.599 15.4059 133.767 15.1631 133.977 14.9622C133.843 14.8952 133.708 14.8617 133.591 14.8617C133.465 14.8617 133.322 14.8617 133.146 14.8617C132.626 14.8617 132.139 14.9538 131.694 15.1464C131.241 15.339 130.846 15.5985 130.502 15.9502C130.259 16.193 130.041 16.4861 129.856 16.8294C129.663 17.1727 129.537 17.5411 129.47 17.9179V28.5517C129.47 28.761 129.495 28.9787 129.554 29.1964C129.604 29.4225 129.663 29.6569 129.73 29.8998C130.007 30.5194 130.393 31.0971 130.897 31.633C131.4 32.1689 131.963 32.4368 132.584 32.4368H133.364V33.5253C131.392 33.5253 129.42 33.5253 127.447 33.5253C125.475 33.5253 123.52 33.5253 121.589 33.5253L121.539 32.4368H122.319C122.94 32.4368 123.503 32.1689 124.006 31.633C124.51 31.0971 124.896 30.5194 125.173 29.8998C125.24 29.6569 125.307 29.4225 125.358 29.1964C125.408 28.9703 125.433 28.7526 125.433 28.5517V16.9801C125.433 16.1846 125.139 15.4981 124.552 14.9119C123.964 14.3258 123.276 14.0328 122.479 14.0328H121.698V12.9443H129.478V14.7612C129.999 13.9993 130.653 13.3964 131.451 12.9443C132.248 12.5005 133.112 12.2744 134.044 12.2744C134.111 12.2744 134.178 12.2744 134.254 12.2744C134.329 12.2744 134.388 12.2744 134.464 12.2744C135.429 12.3749 136.318 12.7601 137.133 13.4132C137.947 14.0746 138.35 14.9203 138.35 15.9502C138.341 16.6954 138.089 17.382 137.586 17.9849Z" fill="#606078"/>
<path d="M157.628 32.3194C155.891 33.1149 154.078 33.5168 152.181 33.5168C149.143 33.5168 146.516 32.5288 144.317 30.5695C142.118 28.6018 141.019 26.115 141.019 23.1258C141.019 20.1701 142.009 17.6917 143.998 15.6905C145.987 13.6893 148.513 12.6846 151.593 12.6846C154.136 12.6846 156.226 13.4298 157.871 14.9202C159.516 16.4106 160.515 18.3364 160.876 20.6809H145.895C145.861 20.9153 145.828 21.1665 145.811 21.4177C145.794 21.6689 145.786 21.9368 145.786 22.2048C145.786 22.4057 145.794 22.6318 145.811 22.8662C145.828 23.1007 145.853 23.3268 145.895 23.5277C146.113 25.3614 146.81 27.0528 147.993 28.5934C149.176 30.1424 150.872 30.9128 153.096 30.9128C154.564 30.9128 155.949 30.6783 157.259 30.2011C158.559 29.7238 159.768 29.0707 160.884 28.2166L161.908 28.8865C160.784 30.3769 159.365 31.5156 157.628 32.3194ZM155.941 18.7383C155.874 18.4285 155.781 18.1103 155.672 17.767C155.353 16.8209 154.825 15.9501 154.094 15.1714C153.356 14.3927 152.441 13.9991 151.333 13.9991C150.259 13.9991 149.327 14.4094 148.538 15.2216C147.75 16.0338 147.145 16.9214 146.717 17.8675C146.575 18.1689 146.457 18.4704 146.365 18.7551C146.272 19.0397 146.197 19.3244 146.121 19.5924H156.05C156.042 19.3328 156.008 19.0481 155.941 18.7383Z" fill="#606078"/>
<path d="M180.062 29.9165C179.659 30.6952 179.113 31.3567 178.425 31.9093C177.728 32.4619 176.973 32.8471 176.142 33.0731C175.311 33.2992 174.464 33.4416 173.599 33.5169C173.499 33.5169 173.398 33.5169 173.314 33.5169C173.23 33.5169 173.129 33.5169 173.029 33.5169C172.617 33.5169 172.206 33.4918 171.812 33.4416C171.417 33.3913 171.023 33.3327 170.645 33.2574C170.301 33.1904 169.965 33.0983 169.629 32.9978C169.302 32.8973 168.983 32.755 168.673 32.5791C168.639 32.5456 168.589 32.5121 168.513 32.4787C168.446 32.4452 168.379 32.4117 168.303 32.3782C168.27 32.3447 168.228 32.3196 168.178 32.3028C168.127 32.2861 168.077 32.2526 168.043 32.2191C167.976 32.1856 167.892 32.1605 167.808 32.1354C167.724 32.1186 167.64 32.1102 167.573 32.1102C167.54 32.1102 167.498 32.1102 167.447 32.1102C167.397 32.1102 167.355 32.1437 167.321 32.2107C167.288 32.2777 167.254 32.3531 167.221 32.4452C167.187 32.5289 167.17 32.6294 167.17 32.7298C167.17 32.7633 167.17 32.7968 167.17 32.8387C167.17 32.8722 167.17 32.9057 167.17 32.9392L166.079 32.9894V26.8771H167.17C167.17 28.5684 167.716 29.8579 168.807 30.7622C169.898 31.6581 171.274 32.0935 172.936 32.0516C173.003 32.0516 173.079 32.0516 173.171 32.0516C173.255 32.0516 173.347 32.0349 173.457 32.0014C174.321 31.9009 175.11 31.5241 175.823 30.8878C176.528 30.2514 176.889 29.4643 176.889 28.5349C176.889 27.706 176.57 27.0529 175.932 26.5924C175.295 26.1235 174.539 25.6797 173.675 25.2694C173.641 25.2694 173.599 25.2611 173.549 25.2443C173.499 25.2276 173.448 25.2024 173.415 25.169C173.205 25.0685 173.012 24.968 172.819 24.8843C172.626 24.8005 172.433 24.7084 172.223 24.5996C171.526 24.2898 170.846 23.9465 170.167 23.5697C169.495 23.1845 168.866 22.7575 168.278 22.2719C167.657 21.7192 167.145 21.0996 166.751 20.413C166.348 19.7181 166.155 18.9478 166.155 18.077C166.155 17.248 166.34 16.4777 166.7 15.7744C167.061 15.0627 167.573 14.4514 168.236 13.9323C168.924 13.3462 169.697 12.9191 170.544 12.6596C171.392 12.4 172.248 12.2744 173.112 12.2744C173.801 12.2744 174.48 12.3498 175.135 12.5089C175.79 12.6596 176.411 12.9108 177.007 13.2624C177.04 13.2624 177.074 13.2708 177.107 13.2876C177.141 13.3043 177.175 13.3294 177.208 13.3629C177.275 13.3629 177.334 13.3713 177.393 13.388C177.443 13.4048 177.502 13.4299 177.577 13.4634C177.645 13.4634 177.72 13.4718 177.787 13.4885C177.854 13.5053 177.93 13.5136 177.997 13.5136C178.098 13.4801 178.19 13.4466 178.257 13.4132C178.324 13.3797 178.375 13.3462 178.408 13.3127C178.475 13.2457 178.509 13.1703 178.509 13.0782C178.509 12.9945 178.509 12.9024 178.509 12.7935H179.6V17.3485H178.509C178.509 16.8629 178.358 16.4275 178.073 16.0256C177.779 15.632 177.443 15.2971 177.057 15.0124C176.579 14.6356 176.025 14.3509 175.42 14.1584C174.816 13.9658 174.204 13.8737 173.582 13.8737C173.062 13.8737 172.559 13.949 172.08 14.0997C171.593 14.2505 171.165 14.51 170.779 14.8533C170.435 15.1631 170.158 15.5232 169.948 15.9167C169.739 16.3102 169.638 16.7373 169.638 17.181C169.638 17.5997 169.755 17.9765 169.999 18.3198C170.242 18.6631 170.553 18.9729 170.939 19.2492C171.249 19.492 171.593 19.7097 171.971 19.919C172.349 20.1284 172.752 20.3126 173.163 20.4884C173.297 20.5554 173.431 20.614 173.549 20.6642C173.666 20.7145 173.801 20.7731 173.935 20.8484C174.246 20.9824 174.573 21.1331 174.925 21.2838C175.269 21.4429 175.614 21.5853 175.958 21.7276C177.133 22.3137 178.215 23.0506 179.206 23.9549C180.188 24.8592 180.683 25.9895 180.683 27.3711C180.649 28.3005 180.456 29.1378 180.062 29.9165Z" fill="#606078"/>
<path d="M212.097 33.3076V30.871C211.224 31.7334 210.225 32.3865 209.084 32.8387C207.942 33.2824 206.725 33.5085 205.45 33.5085C202.579 33.5085 200.196 32.4368 198.29 30.3016C196.394 28.1665 195.445 25.7132 195.445 22.9501C195.445 20.1869 196.394 17.7336 198.29 15.5734C200.196 13.4215 202.579 12.3414 205.45 12.3414C206.734 12.3414 207.942 12.5842 209.084 13.0698C210.225 13.5555 211.224 14.2086 212.097 15.0375V4.31995C212.097 3.49102 211.803 2.78768 211.215 2.20156C210.628 1.61544 209.931 1.32239 209.134 1.32239H208.362V0.233887C209.671 0.233887 210.98 0.233887 212.281 0.233887C213.574 0.233887 214.866 0.233887 216.15 0.233887V28.9703C216.15 29.7657 216.444 30.4105 217.032 30.9129C217.619 31.4152 218.257 31.7167 218.953 31.8172C219.054 31.8506 219.147 31.8674 219.239 31.8674C219.331 31.8674 219.407 31.8674 219.474 31.8674C219.507 31.8674 219.541 31.8674 219.575 31.8674C219.608 31.8674 219.658 31.8506 219.734 31.8172C219.768 31.8172 219.801 31.8172 219.835 31.8172C219.868 31.8172 219.902 31.8172 219.935 31.8172L220.086 32.9057L212.097 33.3076ZM212.097 17.1056C211.434 16.2432 210.653 15.565 209.73 15.0626C208.807 14.5602 207.816 14.309 206.742 14.309C204.77 14.309 203.083 15.1212 201.69 16.7456C200.288 18.37 199.583 20.3209 199.583 22.5984C199.583 24.8759 200.288 26.8268 201.69 28.4512C203.091 30.0756 204.77 30.8877 206.742 30.8877C207.808 30.8877 208.807 30.6365 209.73 30.1342C210.645 29.6318 211.434 28.9536 212.097 28.0911V17.1056Z" fill="#606078"/>
<path d="M239.34 32.2944C237.661 33.1066 235.907 33.5085 234.078 33.5085C231.14 33.5085 228.605 32.5038 226.474 30.511C224.35 28.5098 223.284 25.9895 223.284 22.9501C223.284 19.9525 224.241 17.4322 226.163 15.3892C228.085 13.3545 230.527 12.333 233.507 12.333C235.966 12.333 237.98 13.095 239.575 14.6105C241.169 16.126 242.135 18.0853 242.479 20.4633H228.001C227.968 20.7061 227.942 20.9573 227.926 21.2085C227.909 21.468 227.9 21.736 227.9 22.0123C227.9 22.2216 227.909 22.4477 227.926 22.6905C227.942 22.9333 227.968 23.151 228.001 23.3604C228.211 25.2276 228.882 26.944 230.024 28.5098C231.165 30.0839 232.81 30.8626 234.95 30.8626C236.369 30.8626 237.712 30.6198 238.97 30.1342C240.229 29.6485 241.404 28.9787 242.47 28.1163L243.461 28.7945C242.395 30.3184 241.018 31.4822 239.34 32.2944ZM237.712 18.504C237.644 18.1942 237.56 17.8676 237.451 17.5159C237.141 16.553 236.629 15.6739 235.924 14.8784C235.211 14.083 234.321 13.6894 233.247 13.6894C232.214 13.6894 231.308 14.1081 230.553 14.937C229.789 15.766 229.201 16.6619 228.79 17.6248C228.647 17.9346 228.538 18.236 228.454 18.5291C228.37 18.8221 228.287 19.1068 228.219 19.3831H237.821C237.812 19.1068 237.779 18.8138 237.712 18.504Z" fill="#606078"/>
<path d="M280.296 33.517H256.897V32.4285H257.67C258.299 32.4285 258.845 32.1605 259.331 31.6246C259.818 31.0888 260.196 30.4943 260.473 29.8412C260.573 29.5984 260.649 29.3472 260.699 29.0709C260.758 28.7945 260.783 28.5517 260.783 28.3424V4.31165C260.783 3.51621 260.49 2.82961 259.902 2.2435C259.306 1.65738 258.626 1.36432 257.821 1.36432H257.04V0.225586C258.005 0.225586 258.987 0.225586 259.969 0.225586C260.96 0.225586 261.933 0.225586 262.898 0.225586C263.863 0.225586 264.845 0.225586 265.827 0.225586C266.818 0.225586 267.791 0.225586 268.765 0.225586V1.36432H267.993C267.195 1.36432 266.499 1.64901 265.911 2.21838C265.324 2.78775 265.03 3.49109 265.03 4.31165V28.334C265.03 28.3675 265.03 28.4094 265.03 28.468C265.03 28.5182 265.03 28.5601 265.03 28.5936C265.097 29.3555 265.433 30.0505 266.037 30.6952C266.65 31.3316 267.346 31.6498 268.144 31.6498L275.101 31.7C276.276 31.7 277.367 31.2562 278.375 30.3519C279.373 29.456 280.12 28.468 280.607 27.4046C280.708 27.2371 280.792 27.0529 280.867 26.8604C280.934 26.6678 280.993 26.4836 281.018 26.3161L282.059 26.5757L280.296 33.517Z" fill="#606078"/>
<path d="M301.916 33.517V29.6319C301.194 30.8711 300.237 31.8256 299.037 32.4787C297.846 33.1318 296.587 33.4835 295.277 33.517C292.961 33.584 291.047 32.7718 289.545 31.0804C288.043 29.3891 287.287 27.4214 287.287 25.1774C287.287 24.6583 287.287 24.0889 287.287 23.4693C287.287 22.8497 287.287 22.2301 287.287 21.6105C287.254 21.577 287.229 21.5519 287.229 21.5351C287.229 21.5184 287.229 21.4932 287.229 21.4598C287.229 20.8736 287.229 19.5842 287.229 18.9813C287.229 18.3785 287.229 17.8175 287.229 17.2983C287.229 17.0974 287.203 16.8713 287.153 16.6285C287.103 16.3857 287.027 16.1429 286.918 15.9C286.675 15.2804 286.297 14.7027 285.802 14.1668C285.307 13.6309 284.744 13.363 284.123 13.363H283.343V12.2745H291.282C291.282 13.2123 291.282 14.1835 291.282 15.1967C291.282 16.2182 291.282 17.223 291.282 18.2277C291.282 19.266 291.282 20.9825 291.282 22.004C291.282 23.0255 291.282 23.9968 291.282 24.9262C291.282 26.4082 291.794 27.6977 292.835 28.7778C293.876 29.8663 295.135 30.4106 296.629 30.4106C298.013 30.4106 299.239 29.8915 300.313 28.8616C301.379 27.8233 301.916 26.6176 301.916 25.236V17.29C301.916 17.089 301.891 16.8629 301.84 16.6201C301.79 16.3773 301.715 16.1345 301.605 15.8917C301.362 15.272 300.984 14.6943 300.489 14.1584C299.986 13.6226 299.423 13.3546 298.802 13.3546H298.022V12.2661H305.961V28.803C305.961 29.5649 306.247 30.2599 306.817 30.8962C307.388 31.5326 308.085 31.834 308.916 31.8005C309.058 31.8005 309.176 31.7838 309.276 31.7503C309.344 31.7503 309.461 31.7503 309.637 31.7503L309.738 33.517H301.916Z" fill="#606078"/>
<path d="M337.946 14.0663C337.804 14.0663 337.653 14.0663 337.476 14.0663C337.132 14.0663 336.763 14.1249 336.385 14.2505C336.008 14.3761 335.613 14.5435 335.194 14.7529C335.126 14.8282 335.034 14.8868 334.933 14.9454C334.833 14.9957 334.724 15.0627 334.623 15.1297C334.136 15.4143 333.666 15.766 333.196 16.1763C332.734 16.5866 332.323 16.9885 331.979 17.382C331.912 17.4574 331.845 17.5244 331.794 17.5997C331.744 17.6751 331.685 17.7421 331.61 17.8174L327.925 22.5315C328.001 22.6403 328.236 23.0004 328.63 23.6032C329.025 24.2145 329.47 24.8676 329.948 25.5876C330.468 26.3328 331.14 27.3544 331.971 28.6438C332.105 28.8196 332.248 29.0122 332.382 29.2132C332.525 29.4058 332.693 29.5983 332.902 29.7742C333.314 30.2347 333.792 30.6785 334.329 31.1139C334.866 31.5409 335.429 31.8675 336.016 32.0768C336.226 32.1856 336.452 32.261 336.696 32.3196C336.939 32.3698 337.157 32.4033 337.367 32.4033C337.434 32.4033 337.502 32.4033 337.552 32.4033C337.602 32.4033 337.644 32.4033 337.686 32.4033V33.5253H326.062V32.4033C326.717 32.4368 327.187 32.3029 327.464 32.0014C327.741 31.7 327.875 31.3148 327.875 30.8459C327.833 30.5612 327.766 30.2766 327.665 29.9919C327.565 29.7072 327.422 29.4225 327.246 29.1378C327.078 28.8866 326.901 28.6354 326.725 28.3842C326.557 28.1331 326.381 27.8651 326.205 27.5804C326.029 27.3292 325.861 27.078 325.685 26.8269C325.508 26.5757 325.332 26.3245 325.164 26.0733C325.131 26.1068 324.988 26.2826 324.745 26.6092C324.501 26.9273 324.241 27.2706 323.964 27.6223C323.654 28.0158 323.259 28.535 322.772 29.1797C322.462 29.5732 322.227 29.9668 322.076 30.3603C321.916 30.7538 321.841 31.0971 321.841 31.3818C321.841 31.7335 321.925 31.993 322.101 32.1521C322.269 32.3112 322.529 32.395 322.881 32.395C323.091 32.395 323.293 32.395 323.502 32.395C323.704 32.395 323.914 32.395 324.123 32.395V33.5169H314.472V32.395C314.64 32.395 314.808 32.395 314.959 32.395C315.11 32.395 315.261 32.395 315.403 32.395C315.815 32.395 316.268 32.2945 316.755 32.1019C317.241 31.9009 317.72 31.6414 318.207 31.3232C318.685 31.0385 319.163 30.6868 319.633 30.2766C320.103 29.8663 320.515 29.4644 320.859 29.0708C320.926 29.0039 320.985 28.9285 321.035 28.8531C321.085 28.7862 321.144 28.7108 321.22 28.6354C321.497 28.3173 321.748 27.9823 322 27.639C322.244 27.3041 322.495 26.9692 322.781 26.651C323.024 26.3245 323.276 26.0063 323.536 25.6881C323.796 25.3699 324.048 25.0518 324.291 24.7252C324.224 24.6247 323.964 24.2145 323.511 23.5195C323.058 22.8245 322.562 22.0877 322.009 21.3006C321.455 20.4131 320.691 19.2492 319.726 17.8174C319.382 17.315 318.979 16.8294 318.509 16.3438C318.047 15.8581 317.535 15.4395 316.981 15.0794C316.847 14.9706 316.696 14.8785 316.536 14.7864C316.377 14.7026 316.234 14.6189 316.1 14.5435C315.789 14.4012 315.487 14.284 315.194 14.1919C314.9 14.0998 314.615 14.0579 314.338 14.0579C314.304 14.0579 314.262 14.0579 314.203 14.0579C314.153 14.0579 314.094 14.0579 314.019 14.0579L313.968 12.9275H325.592V14.0579C325.525 14.0579 325.466 14.0579 325.416 14.0579C325.357 14.0579 325.298 14.0579 325.231 14.0579C324.954 14.0914 324.703 14.1751 324.476 14.2923C324.249 14.4179 324.073 14.6105 323.93 14.8533C323.897 14.9622 323.863 15.0627 323.83 15.1715C323.796 15.2804 323.779 15.3892 323.779 15.4981C323.779 15.5734 323.788 15.632 323.805 15.6823C323.813 15.7325 323.83 15.7995 323.83 15.8665C323.905 16.1512 323.981 16.4191 324.09 16.6703C324.191 16.9215 324.317 17.1392 324.451 17.315C324.652 17.6332 324.87 17.9598 325.097 18.2779C325.315 18.6045 325.533 18.9227 325.743 19.2408C325.953 19.559 326.163 19.8856 326.39 20.2037C326.616 20.5219 326.834 20.8485 327.036 21.1667C327.279 20.8485 327.514 20.5219 327.758 20.2037C328.001 19.8856 328.261 19.5423 328.538 19.1822C328.781 18.8641 329.033 18.5375 329.293 18.2193C329.554 17.9011 329.822 17.5746 330.099 17.2564C330.133 17.1894 330.183 17.1141 330.259 17.0387C330.326 16.9717 330.376 16.8964 330.41 16.821C330.51 16.6368 330.611 16.4526 330.703 16.26C330.787 16.0674 330.863 15.8749 330.938 15.699C330.972 15.5567 330.997 15.4311 331.014 15.3222C331.031 15.2134 331.039 15.1045 331.039 14.9957C331.039 14.9622 331.039 14.9203 331.039 14.8868C331.039 14.8533 331.022 14.8199 330.989 14.778C330.989 14.7445 330.98 14.7026 330.964 14.6691C330.947 14.6273 330.938 14.5938 330.938 14.5603C330.871 14.3426 330.737 14.2002 330.552 14.1333C330.359 14.0663 330.158 14.0244 329.956 14.0244C329.755 14.0244 329.537 14.0244 329.335 14.0244C329.126 14.0244 328.941 14.0244 328.765 14.0244V12.894H338.366V14.0244C338.223 14.0663 338.081 14.0663 337.946 14.0663Z" fill="#606078"/>
<path d="M357.871 32.2944C356.192 33.1066 354.438 33.5085 352.6 33.5085C349.663 33.5085 347.128 32.5038 345.005 30.511C342.873 28.5098 341.807 25.9895 341.807 22.9501C341.807 19.9525 342.772 17.4322 344.686 15.3892C346.608 13.3545 349.05 12.333 352.029 12.333C354.488 12.333 356.511 13.095 358.106 14.6105C359.692 16.126 360.665 18.0853 361.01 20.4633H346.532C346.498 20.7061 346.473 20.9573 346.456 21.2085C346.44 21.468 346.431 21.736 346.431 22.0123C346.431 22.2216 346.44 22.4477 346.456 22.6905C346.473 22.9333 346.498 23.151 346.532 23.3604C346.742 25.2276 347.413 26.944 348.555 28.5098C349.704 30.0839 351.341 30.8626 353.49 30.8626C354.908 30.8626 356.251 30.6198 357.51 30.1342C358.777 29.6485 359.935 28.9787 361.01 28.1163L362 28.7945C360.926 30.3184 359.549 31.4822 357.871 32.2944ZM356.234 18.504C356.167 18.1942 356.075 17.8676 355.974 17.5159C355.663 16.553 355.151 15.6739 354.438 14.8784C353.725 14.083 352.835 13.6894 351.761 13.6894C350.72 13.6894 349.822 14.1081 349.067 14.937C348.303 15.766 347.715 16.6619 347.304 17.6248C347.161 17.9346 347.052 18.236 346.968 18.5291C346.885 18.8221 346.809 19.1068 346.733 19.3831H356.335C356.343 19.1068 356.31 18.8138 356.234 18.504Z" fill="#606078"/>
</svg>
