<svg width="100" height="38" viewBox="0 0 100 38" fill="none" xmlns="http://www.w3.org/2000/svg">
<path d="M50 0L51.62 4.99H56.87L52.63 8.07L54.25 13.06L50 9.98L45.76 13.06L47.38 8.07L43.14 4.99H48.39L50 0Z" fill="#848498"/>
<path d="M85.93 16.56V25.23H96.83V16.56H100V36.85H96.83V28.1H85.93V36.85H82.76V16.56H85.93Z" fill="#848498"/>
<path d="M79.26 16.56V19.43H74.02V36.85H70.82V19.43H65.57V16.56H79.26Z" fill="#848498"/>
<path d="M62.07 16.56H58.9V36.85H62.07V16.56Z" fill="#848498"/>
<path d="M38.16 16.24L52.23 29.85V16.56H55.41V37.18L41.33 23.57V36.86L38.16 36.85V16.24Z" fill="#848498"/>
<path d="M34.67 16.56V19.43H24.16L24.15 25.23H33.08V28.1H24.15V33.98H34.67V36.85H20.98V16.56H34.67Z" fill="#848498"/>
<path d="M17.6 16.56L5.81 33.98H17.48V36.85H0L11.79 19.43H1.66V16.56H17.6Z" fill="#848498"/>
</svg>
