<svg width="130" height="38" viewBox="0 0 130 38" fill="none" xmlns="http://www.w3.org/2000/svg">
<path d="M3.60999 7.12003C3.60999 5.33003 3.5 5.20004 2.62 5.07004L1.89996 4.96004C1.74996 4.85004 1.74996 4.41002 1.89996 4.29002C3.11996 4.33002 4.06996 4.35004 4.95996 4.35004C5.86996 4.35004 6.82 4.33002 7.81 4.29002C7.96 4.40002 7.96 4.84004 7.81 4.96004L7.32001 5.05003C6.45001 5.20003 6.32996 5.34003 6.32996 7.12003V14C6.32996 15.5 6.21995 16.81 5.88995 17.67C5.23995 19.34 3.86 20.62 1.44 20.71C0.910002 20.73 0 20.6 0 19.95C0 19.59 0.22999 19.11 0.48999 18.85C0.63999 18.7 0.809959 18.6 1.01996 18.6C1.31996 18.6 1.66999 18.83 1.98999 19.07C2.30999 19.32 2.61996 19.55 2.82996 19.55C3.26996 19.55 3.36 18.66 3.44 17.99C3.48 17.67 3.60999 16.28 3.60999 14.26V7.12003Z" fill="#848498"/>
<path d="M15.61 9.29002C15.61 9.82002 15.63 9.86003 16.14 9.86003H17.45C18.44 9.86003 18.65 9.73003 18.86 8.81003L18.95 8.33003C19.08 8.18003 19.56 8.18004 19.65 8.35004C19.61 8.96004 19.6 9.64003 19.6 10.37C19.6 11.09 19.62 11.78 19.65 12.38C19.56 12.55 19.08 12.57 18.95 12.4L18.86 11.93C18.65 11.02 18.44 10.87 17.45 10.87H16.14C15.63 10.87 15.61 10.89 15.61 11.46V13.72C15.61 14.59 15.69 15.2 15.91 15.53C16.16 15.87 16.52 16.02 17.91 16.02C19.57 16.02 20.21 15.96 21.26 13.82C21.41 13.61 21.89 13.69 21.96 13.91C21.88 14.9 21.43 16.44 21.16 16.95C20.15 16.91 18.33 16.89 16.77 16.89H14.3C13.39 16.89 12.46 16.91 11.03 16.95C10.88 16.84 10.88 16.38 11.03 16.28L11.92 16.15C12.78 16.04 12.89 15.9 12.89 14.15V7.06003C12.89 5.33003 12.78 5.20002 11.92 5.04002L11.45 4.95003C11.28 4.84003 11.3 4.40003 11.49 4.28003C12.38 4.32003 13.32 4.34003 14.23 4.34003H18.26C19.47 4.34003 20.56 4.32003 20.81 4.28003C20.83 4.58003 20.96 5.95003 21.06 7.23003C20.98 7.44003 20.54 7.48003 20.35 7.31003C20.14 6.64003 19.88 6.07003 19.63 5.81003C19.27 5.45003 18.7 5.22003 17.77 5.22003H16.25C15.62 5.22003 15.62 5.26004 15.62 5.96004V9.29002H15.61Z" fill="#848498"/>
<path d="M28.3999 12.6C27.9399 12.6 27.8899 12.62 27.7699 12.98L27.07 15.19C26.96 15.57 26.94 15.72 26.94 15.87C26.94 15.98 27.09 16.1 27.62 16.19L28.19 16.28C28.3 16.41 28.3399 16.85 28.1499 16.95C27.4799 16.91 26.72 16.91 25.93 16.89C25.28 16.89 24.85 16.95 23.97 16.95C23.76 16.84 23.78 16.44 23.91 16.28L24.42 16.23C24.88 16.17 25.2799 16.02 25.5799 15.28C25.9199 14.52 26.24 13.61 26.76 12.24L28.47 7.60004C28.93 6.40004 29.2699 5.74003 29.2099 5.19003C30.1199 4.98003 30.83 4.05003 30.86 4.05003C31.11 4.05003 31.22 4.15002 31.3 4.43002C31.45 4.98002 31.68 5.68003 32.16 7.03003L34.75 14.48C35.15 15.62 35.3199 16.04 36.0199 16.17L36.74 16.28C36.85 16.38 36.89 16.83 36.72 16.95C35.81 16.91 34.78 16.89 33.79 16.89C32.84 16.89 32.1 16.91 31.22 16.95C31.01 16.84 30.97 16.44 31.18 16.28L31.79 16.19C32.23 16.11 32.31 15.98 32.31 15.87C32.31 15.74 32.1799 15.28 31.9499 14.58L31.44 12.95C31.34 12.65 31.19 12.61 30.53 12.61H28.3999V12.6ZM30.43 11.59C30.87 11.59 30.98 11.53 30.81 11.04L30.32 9.50003C30.05 8.68003 29.7999 7.90003 29.6399 7.50003C29.4499 7.92003 29.14 8.72003 28.86 9.59003L28.3899 11.02C28.1999 11.53 28.31 11.59 28.79 11.59H30.43Z" fill="#848498"/>
<path d="M51 13.66C51 14.9 51 16.09 51.04 16.72C50.91 16.95 50.37 17.16 49.92 17.16C49.9 17.16 49.27 16.19 48.38 15.09L43.99 9.65002C42.91 8.28002 42.26 7.50003 41.92 7.22003C41.82 7.41003 41.82 7.73003 41.82 8.44003V12.13C41.82 13.67 41.9 15.09 42.11 15.61C42.28 16.01 42.7199 16.12 43.2099 16.22L43.74 16.3C43.89 16.45 43.85 16.85 43.74 16.97C42.71 16.93 41.95 16.91 41.19 16.91C40.49 16.91 39.78 16.93 39.06 16.97C38.95 16.86 38.91 16.46 39.06 16.3L39.38 16.25C39.89 16.14 40.25 16.02 40.43 15.62C40.62 15.1 40.6999 13.68 40.6999 12.14V7.31003C40.6999 6.27003 40.7 5.96003 40.57 5.69003C40.44 5.37003 40.15 5.18002 39.49 5.04002L38.9599 4.96004C38.8299 4.81004 38.85 4.35002 39.04 4.29002C39.93 4.33002 40.89 4.35004 41.66 4.35004C42.31 4.35004 42.86 4.33002 43.26 4.29002C43.45 5.15002 44.6899 6.59004 46.3999 8.63004L48 10.51C48.86 11.5 49.39 12.16 49.82 12.6C49.9 12.41 49.8999 12.09 49.8999 11.75V9.13004C49.8999 7.59004 49.82 6.16002 49.62 5.65002C49.45 5.25002 49.0299 5.14002 48.5199 5.04002L48.01 4.96004C47.86 4.81004 47.9 4.41002 48.01 4.29002C49.04 4.33002 49.78 4.35004 50.56 4.35004C51.26 4.35004 51.95 4.33002 52.69 4.29002C52.8 4.40002 52.84 4.80004 52.69 4.96004L52.35 5.02003C51.86 5.13003 51.4999 5.25002 51.3299 5.65002C51.1199 6.16002 51.04 7.59004 51.04 9.13004V13.66H51Z" fill="#848498"/>
<path d="M67.4 9.40002C67.4 10.03 67.51 10.1 67.74 10.1C68.14 10.1 68.9 9.38003 69.2 9.00003C70.21 7.78003 71.14 6.66003 71.75 5.77003C71.92 5.52003 72 5.35003 72 5.28003C72 5.20003 71.92 5.09003 71.68 5.03003L71.24 4.95003C71.03 4.82003 71.07 4.36003 71.32 4.28003C72.29 4.32003 72.99 4.34003 73.68 4.34003C74.38 4.34003 75.22 4.32003 75.98 4.28003C76.21 4.36003 76.23 4.79003 76.07 4.95003C75.41 5.03003 74.84 5.12002 74.44 5.29002C73.68 5.59002 72.88 6.34003 71.63 7.72003L70.76 8.71004C70.57 8.92004 70.51 9.07002 70.51 9.15002C70.51 9.25002 70.62 9.47003 71.19 10.33C72.14 11.76 73.26 13.58 74.55 15.29C75.06 15.97 75.42 16.09 75.96 16.18L76.57 16.27C76.68 16.44 76.68 16.84 76.51 16.94C75.56 16.9 74.65 16.88 73.78 16.88C72.81 16.88 71.86 16.9 70.79 16.94C70.54 16.86 70.54 16.39 70.75 16.27L71.23 16.16C71.44 16.12 71.55 16.05 71.55 15.97C71.55 15.89 71.51 15.76 71.4 15.59C71.29 15.42 70.49 14.18 70.3 13.9L69.29 12.36C68.61 11.31 68.28 10.86 67.86 10.86C67.42 10.86 67.4 11.13 67.4 12.15V14.15C67.4 15.92 67.51 16.05 68.37 16.2L68.9 16.28C69.05 16.41 69.05 16.83 68.9 16.95C67.89 16.91 66.94 16.89 66.03 16.89C65.17 16.89 64.19 16.91 63.18 16.95C63.03 16.84 63.03 16.4 63.18 16.28L63.71 16.2C64.57 16.05 64.68 15.92 64.68 14.15V7.08003C64.68 5.31003 64.57 5.18003 63.71 5.03003L63.18 4.95003C62.97 4.84003 62.97 4.40003 63.18 4.28003C64.13 4.32003 65.08 4.34003 66.03 4.34003C66.94 4.34003 67.89 4.32003 68.9 4.28003C69.07 4.39003 69.07 4.83003 68.9 4.95003L68.37 5.03003C67.51 5.18003 67.4 5.32003 67.4 7.08003V9.40002Z" fill="#848498"/>
<path d="M82.51 12.6C82.05 12.6 82 12.62 81.88 12.98L81.18 15.19C81.07 15.57 81.05 15.72 81.05 15.87C81.05 15.98 81.2 16.1 81.73 16.19L82.3 16.28C82.41 16.41 82.45 16.85 82.26 16.95C81.6 16.91 80.84 16.91 80.04 16.89C79.39 16.89 78.9499 16.95 78.0799 16.95C77.8699 16.84 77.8899 16.44 78.0199 16.28L78.54 16.23C79 16.17 79.3899 16.02 79.6999 15.28C80.0399 14.52 80.37 13.61 80.88 12.24L82.59 7.60004C83.0499 6.40004 83.3899 5.74003 83.3299 5.19003C84.2399 4.98003 84.95 4.05003 84.99 4.05003C85.24 4.05003 85.35 4.15002 85.43 4.43002C85.58 4.98002 85.81 5.68003 86.29 7.03003L88.87 14.48C89.27 15.62 89.4399 16.04 90.1399 16.17L90.86 16.28C90.97 16.38 91.0099 16.83 90.84 16.95C89.9299 16.91 88.9 16.89 87.91 16.89C86.96 16.89 86.2199 16.91 85.34 16.95C85.13 16.84 85.09 16.44 85.3 16.28L85.91 16.19C86.35 16.11 86.42 15.98 86.42 15.87C86.42 15.74 86.29 15.28 86.06 14.58L85.55 12.95C85.46 12.65 85.2999 12.61 84.6399 12.61H82.51V12.6ZM84.55 11.59C84.99 11.59 85.1 11.53 84.93 11.04L84.44 9.50003C84.17 8.68003 83.93 7.90003 83.76 7.50003C83.57 7.92003 83.27 8.72003 82.98 9.59003L82.5 11.02C82.31 11.53 82.4199 11.59 82.8999 11.59H84.55Z" fill="#848498"/>
<path d="M97.99 5.22003C95.78 5.22003 95.39 5.81003 94.74 7.41003C94.49 7.56003 94.0799 7.49003 93.9599 7.28003C94.3199 5.95003 94.5099 4.92002 94.6999 3.92003C94.7799 3.84003 95.04 3.84002 95.19 3.90002C95.3 4.28002 95.4 4.36003 96.81 4.36003H102.25C103.56 4.36003 104.15 4.34003 104.47 4.30003C104.57 4.36003 104.61 4.47002 104.58 4.59002C104.28 4.91002 103.23 6.34003 101.73 8.66003L99.66 11.87C97.74 14.85 97.2699 15.56 97.2699 15.78C97.2699 15.93 97.4799 16.03 99.0199 16.03H100.79C102.65 16.03 103.3 15.78 104.34 13.64C104.57 13.49 104.95 13.56 105.08 13.77C104.97 14.82 104.55 16.49 104.24 16.96C102.64 16.92 101.6 16.9 100.27 16.9H95.48C94.47 16.9 93.86 16.92 93.56 16.96C93.43 16.9 93.3699 16.75 93.41 16.64C93.7 16.32 94.59 14.95 95.16 14.09L98.8999 8.39003C99.2399 7.86003 100.16 6.43003 100.5 5.80003C100.63 5.55003 100.69 5.46002 100.69 5.34002C100.69 5.26002 100.52 5.23002 100.04 5.23002H97.99V5.22003Z" fill="#848498"/>
<path d="M112.13 9.29002C112.13 9.82002 112.15 9.86003 112.66 9.86003H113.97C114.96 9.86003 115.17 9.73003 115.38 8.81003L115.47 8.33003C115.6 8.18003 116.08 8.18004 116.17 8.35004C116.13 8.96004 116.12 9.64003 116.12 10.37C116.12 11.09 116.14 11.78 116.17 12.38C116.08 12.55 115.6 12.57 115.47 12.4L115.38 11.93C115.17 11.02 114.96 10.87 113.97 10.87H112.66C112.15 10.87 112.13 10.89 112.13 11.46V13.72C112.13 14.59 112.21 15.2 112.43 15.53C112.68 15.87 113.04 16.02 114.43 16.02C116.09 16.02 116.73 15.96 117.78 13.82C117.93 13.61 118.41 13.69 118.48 13.91C118.4 14.9 117.95 16.44 117.68 16.95C116.67 16.91 114.85 16.89 113.29 16.89H110.82C109.91 16.89 108.97 16.91 107.55 16.95C107.4 16.84 107.4 16.38 107.55 16.28L108.44 16.15C109.3 16.04 109.41 15.9 109.41 14.15V7.06003C109.41 5.33003 109.3 5.20002 108.44 5.04002L107.97 4.95003C107.8 4.84003 107.82 4.40003 108.01 4.28003C108.9 4.32003 109.84 4.34003 110.75 4.34003H114.78C116 4.34003 117.08 4.32003 117.33 4.28003C117.35 4.58003 117.48 5.95003 117.58 7.23003C117.5 7.44003 117.06 7.48003 116.87 7.31003C116.66 6.64003 116.4 6.07003 116.15 5.81003C115.79 5.45003 115.22 5.22003 114.29 5.22003H112.77C112.14 5.22003 112.14 5.26004 112.14 5.96004V9.29002H112.13ZM114.12 3.28003C114.16 3.49003 114.04 3.70003 113.89 3.76003L109.73 2.52003C109.33 2.41003 109.16 2.22003 109.1 2.06003C109.06 1.93003 109.06 1.62003 109.29 1.22003C109.54 0.780032 109.75 0.650024 109.96 0.650024C110.09 0.650024 110.28 0.750033 110.59 0.940033L114.12 3.28003Z" fill="#848498"/>
<path d="M125.17 17.2C123.42 17.2 122.34 16.71 121.94 16.48C121.58 16.06 121.33 14.69 121.33 13.4C121.46 13.15 121.9 13.13 122.05 13.34C122.43 14.58 123.71 16.32 125.32 16.32C126.73 16.32 127.37 15.35 127.37 14.4C127.37 12.86 125.92 11.95 124.78 11.38C123.41 10.7 121.93 9.56003 121.91 7.67003C121.91 5.52003 123.57 4.04002 126.32 4.04002C126.95 4.04002 127.73 4.12003 128.49 4.34003C128.74 4.42003 128.91 4.45004 129.14 4.49004C129.29 4.91004 129.48 5.93004 129.48 7.21004C129.39 7.44004 128.91 7.46003 128.74 7.27003C128.41 6.30003 127.6 4.91003 126.23 4.91003C124.98 4.91003 124.29 5.73002 124.29 6.68002C124.29 7.55002 125.07 8.35003 126.02 8.84003L127.27 9.51003C128.45 10.14 129.95 11.24 129.95 13.33C129.96 15.68 128.04 17.2 125.17 17.2Z" fill="#848498"/>
<path d="M40.67 35.86C40.67 36.35 40.74 36.71 41 36.84C41.04 36.89 41.04 37.01 40.99 37.05C40.84 37.05 40.59 37.09 40.32 37.16C39.46 37.36 38.41 37.54 37.61 37.54C35.94 37.54 34.36 37.09 33.31 36C32.49 35.15 32.08 33.98 32.08 32.81C32.08 31.64 32.49 30.44 33.36 29.53C34.35 28.48 35.87 27.88 37.81 27.88C38.47 27.88 39.18 27.99 39.66 28.09C39.98 28.16 40.39 28.22 40.55 28.22C40.56 28.64 40.66 29.35 40.73 30.44C40.66 30.58 40.35 30.59 40.28 30.47C39.97 29.12 38.98 28.45 37.6 28.45C35.15 28.45 33.96 30.22 33.96 32.59C33.96 33.71 34.21 34.91 34.96 35.8C35.71 36.69 36.83 36.99 37.65 36.99C38.32 36.99 38.72 36.88 38.89 36.67C38.97 36.54 39.02 36.29 39.02 35.79V35.29C39.02 34.3 39.01 34.21 38.07 34.06L37.57 33.98C37.47 33.88 37.47 33.64 37.58 33.58C38.13 33.61 38.79 33.62 39.76 33.62C40.39 33.62 40.86 33.61 41.46 33.58C41.6 33.65 41.61 33.89 41.49 33.98L41.24 34.02C40.72 34.09 40.64 34.21 40.64 35.07V35.86H40.67Z" fill="#848498"/>
<path d="M46.33 30.11C46.33 28.63 46.2 28.59 45.55 28.49L45.33 28.46C45.23 28.36 45.25 28.11 45.36 28.06C45.89 28.09 46.55 28.1 47.16 28.1H49.82C50.71 28.1 51.52 28.09 51.7 28.06C51.75 28.3 51.84 29.4 51.92 30C51.87 30.11 51.59 30.14 51.47 30.05C51.25 29.24 51.04 28.89 50.59 28.78C50.27 28.68 49.85 28.65 49.47 28.65H48.54C47.94 28.65 47.94 28.68 47.94 29.47V31.83C47.94 32.19 47.95 32.21 48.27 32.21H48.94C50.15 32.21 50.39 32.2 50.49 31.6L50.59 31.13C50.7 31.03 50.96 31.03 51.04 31.14C51.02 31.52 51 32.02 51 32.53C51 33.06 51.03 33.55 51.04 33.99C50.97 34.09 50.7 34.09 50.59 34L50.49 33.44C50.39 32.85 50.16 32.83 48.94 32.83H48.27C47.95 32.83 47.94 32.86 47.94 33.21V34.98C47.94 35.69 47.97 36.19 48.18 36.43C48.35 36.63 48.58 36.74 49.76 36.74C51.53 36.77 51.84 36.36 52.33 35.23C52.46 35.13 52.69 35.18 52.78 35.31C52.7 35.9 52.39 36.96 52.19 37.33C51.58 37.3 50.38 37.29 48.75 37.29H47.16C46.55 37.29 45.7 37.3 45.07 37.33C44.96 37.27 44.95 37.02 45.04 36.93L45.56 36.87C46.21 36.8 46.34 36.76 46.34 35.28V30.11H46.33Z" fill="#848498"/>
<path d="M64.88 34.94C64.88 35.36 64.88 37.08 64.92 37.4C64.81 37.55 64.61 37.61 64.45 37.59C64.23 37.3 63.82 36.82 62.82 35.68L59.56 31.96C58.65 30.94 58.21 30.41 57.97 30.2C57.93 30.2 57.93 30.35 57.93 31.09V33.81C57.93 34.86 57.94 36.14 58.18 36.56C58.31 36.77 58.54 36.85 58.89 36.91L59.2 36.95C59.33 37.05 59.31 37.31 59.17 37.35C58.65 37.32 58.11 37.31 57.58 37.31C56.99 37.31 56.62 37.32 56.13 37.35C56.02 37.28 55.99 37.04 56.1 36.95L56.41 36.88C56.68 36.84 56.93 36.78 57.02 36.56C57.2 36.13 57.2 34.91 57.2 33.81V30.5C57.2 29.41 57.21 29.19 56.74 28.79C56.59 28.66 56.2 28.55 56 28.51L55.79 28.47C55.69 28.39 55.71 28.11 55.84 28.07C56.37 28.12 57.14 28.11 57.49 28.11C57.78 28.11 58.12 28.1 58.45 28.07C58.69 28.67 60.21 30.43 60.7 30.96L62.09 32.47C62.68 33.11 63.97 34.59 64.11 34.67C64.15 34.63 64.15 34.56 64.15 34.34V31.62C64.15 30.57 64.14 29.29 63.89 28.87C63.76 28.66 63.54 28.58 63.19 28.52L62.87 28.48C62.75 28.38 62.76 28.12 62.9 28.08C63.44 28.11 63.96 28.12 64.5 28.12C65.1 28.12 65.46 28.11 65.97 28.08C66.08 28.15 66.11 28.39 66 28.48L65.68 28.55C65.42 28.59 65.18 28.65 65.08 28.87C64.89 29.3 64.89 30.52 64.89 31.62V34.94H64.88Z" fill="#848498"/>
<path d="M70.89 30.11C70.89 28.63 70.76 28.59 70.11 28.49L69.89 28.46C69.79 28.36 69.81 28.11 69.92 28.06C70.45 28.09 71.11 28.1 71.72 28.1H74.38C75.27 28.1 76.08 28.09 76.26 28.06C76.31 28.3 76.4 29.4 76.48 30C76.43 30.11 76.15 30.14 76.03 30.05C75.81 29.24 75.6 28.89 75.15 28.78C74.83 28.68 74.41 28.65 74.03 28.65H73.1C72.5 28.65 72.5 28.68 72.5 29.47V31.83C72.5 32.19 72.51 32.21 72.83 32.21H73.5C74.71 32.21 74.95 32.2 75.05 31.6L75.15 31.13C75.26 31.03 75.53 31.03 75.6 31.14C75.58 31.52 75.56 32.02 75.56 32.53C75.56 33.06 75.59 33.55 75.6 33.99C75.53 34.09 75.26 34.09 75.15 34L75.05 33.44C74.95 32.85 74.72 32.83 73.5 32.83H72.83C72.51 32.83 72.5 32.86 72.5 33.21V34.98C72.5 35.69 72.53 36.19 72.74 36.43C72.91 36.63 73.14 36.74 74.32 36.74C76.09 36.77 76.4 36.36 76.89 35.23C77.02 35.13 77.25 35.18 77.34 35.31C77.26 35.9 76.95 36.96 76.75 37.33C76.14 37.3 74.94 37.29 73.31 37.29H71.72C71.11 37.29 70.26 37.3 69.63 37.33C69.52 37.27 69.51 37.02 69.6 36.93L70.12 36.87C70.77 36.8 70.9 36.76 70.9 35.28V30.11H70.89ZM71.43 26.68C71.17 26.58 71.05 26.5 71 26.39C70.97 26.31 71.03 26.11 71.15 25.87C71.3 25.59 71.44 25.51 71.58 25.51C71.68 25.51 71.8 25.56 72.01 25.7L74.48 27.37C74.51 27.5 74.43 27.64 74.31 27.66L71.43 26.68Z" fill="#848498"/>
<path d="M86.37 33.85C85.81 35.12 85.16 36.75 84.92 37.46C84.89 37.5 84.78 37.53 84.68 37.53C84.58 37.53 84.49 37.5 84.41 37.46C84.24 36.9 84.02 36.22 83.77 35.63L81.33 29.76C80.94 28.82 80.81 28.63 80.26 28.52L79.93 28.45C79.83 28.35 79.83 28.1 79.97 28.06C80.51 28.09 81.11 28.1 81.66 28.1C82.29 28.1 82.76 28.09 83.5 28.06C83.63 28.14 83.64 28.37 83.51 28.46L83.16 28.54C82.85 28.61 82.74 28.68 82.74 28.79C82.74 28.92 82.85 29.22 83.42 30.65L84.42 33.13C84.67 33.76 85.05 34.58 85.19 34.9C85.95 33.14 86.78 31.22 87.52 29.32C87.74 28.76 87.7 28.65 87.28 28.55L86.88 28.45C86.78 28.34 86.8 28.12 86.91 28.05C87.48 28.08 87.96 28.09 88.4 28.09C88.9 28.09 89.36 28.08 89.75 28.05C89.86 28.12 89.85 28.34 89.78 28.45L89.43 28.52C89.11 28.59 88.8 28.69 88.56 29.09C88.17 29.76 87.77 30.69 87.14 32.1L86.37 33.85Z" fill="#848498"/>
<path d="M93.64 30.11C93.64 28.63 93.51 28.59 92.86 28.49L92.64 28.46C92.54 28.36 92.56 28.11 92.67 28.06C93.2 28.09 93.86 28.1 94.47 28.1H97.13C98.02 28.1 98.83 28.09 99.01 28.06C99.06 28.3 99.15 29.4 99.23 30C99.18 30.11 98.9 30.14 98.78 30.05C98.56 29.24 98.35 28.89 97.9 28.78C97.58 28.68 97.16 28.65 96.78 28.65H95.85C95.25 28.65 95.25 28.68 95.25 29.47V31.83C95.25 32.19 95.26 32.21 95.58 32.21H96.25C97.46 32.21 97.7 32.2 97.8 31.6L97.9 31.13C98.01 31.03 98.27 31.03 98.35 31.14C98.33 31.52 98.31 32.02 98.31 32.53C98.31 33.06 98.34 33.55 98.35 33.99C98.28 34.09 98.01 34.09 97.9 34L97.8 33.44C97.7 32.85 97.47 32.83 96.25 32.83H95.58C95.26 32.83 95.25 32.86 95.25 33.21V34.98C95.25 35.69 95.28 36.19 95.49 36.43C95.66 36.63 95.89 36.74 97.07 36.74C98.84 36.77 99.15 36.36 99.64 35.23C99.77 35.13 100 35.18 100.09 35.31C100.01 35.9 99.7 36.96 99.5 37.33C98.89 37.3 97.69 37.29 96.06 37.29H94.47C93.86 37.29 93.01 37.3 92.38 37.33C92.27 37.27 92.26 37.02 92.35 36.93L92.87 36.87C93.53 36.8 93.65 36.76 93.65 35.28V30.11H93.64Z" fill="#848498"/>
</svg>
