<svg width="160" height="41" viewBox="0 0 160 41" fill="none" xmlns="http://www.w3.org/2000/svg">
<path d="M156.254 31.73C155.294 32.38 153.254 32.29 153.254 32.29C153.594 31.71 154.864 30.5 154.864 30.5C155.894 29.61 156.584 30.03 156.584 30.03C157.574 30.92 156.254 31.73 156.254 31.73ZM3.76425 32.47C2.33425 31.82 2.73424 30.86 2.73424 30.86C3.04424 30.17 4.00424 30.64 4.00424 30.64C5.19424 31.15 6.44425 33.03 6.44425 33.03C4.81425 33.23 3.76425 32.47 3.76425 32.47ZM156.274 28.42C156.274 28.42 154.704 29.27 152.184 32.27H150.664C150.664 32.27 150.264 32.38 150.264 31.87V28C150.264 28 150.194 27.64 150.604 27.64H151.744C151.744 27.64 152.054 27.6 152.304 28.11L152.464 28.44C152.464 28.44 152.554 28.82 153.024 28.71C153.024 28.71 153.474 28.78 153.334 28.26C153.204 27.75 153.314 28.19 153.314 28.19L152.664 26.2C152.664 26.2 152.614 25.93 152.284 25.93L151.974 25.91C151.974 25.91 151.644 25.89 151.704 26.29C151.704 26.29 151.794 26.71 151.324 26.71H150.654C150.654 26.71 150.294 26.8 150.294 26.15V25.01C150.294 25.01 150.224 24.67 150.724 24.67H153.044C153.044 24.67 153.584 24.49 153.914 25.25L154.094 25.63C154.094 25.63 154.094 26.01 154.634 25.9C154.634 25.9 155.214 25.97 155.034 25.43L154.604 24.13C154.604 24.13 154.584 23.84 154.204 23.84H147.564C147.564 23.84 147.184 23.75 147.184 24.18V24.4C147.184 24.4 147.114 24.6 147.564 24.71C147.564 24.71 148.054 24.73 148.054 25.38L148.014 31.71C148.014 31.71 148.014 32.29 147.634 32.4C147.634 32.4 147.204 32.26 147.184 32.76C147.184 32.76 147.004 33.16 147.604 33.18H150.804C150.804 33.18 151.364 33.16 151.074 33.54C151.074 33.54 149.954 35.4 147.764 36.69C147.764 36.69 146.354 37.58 143.874 37.61H14.9042C14.9042 37.61 12.1742 37.88 10.7442 36.45L8.57424 34.06C8.57424 34.06 8.39425 33.77 8.70425 33.68C8.70425 33.68 11.3642 33.16 12.3042 31.38C13.2442 29.59 13.3542 28.29 13.3542 27V21.01C13.3542 21.01 13.2642 20.58 13.8042 20.56H14.3442C14.3442 20.56 14.6142 20.67 14.6142 20.13V19.88C14.6142 19.88 14.7942 19.52 14.2742 19.52H9.64424C9.64424 19.52 9.30425 19.41 9.28425 19.83V20.12C9.28425 20.12 9.15425 20.52 9.68425 20.52H10.0642C10.0642 20.52 10.6642 20.43 10.6442 21.19V28.44C10.6442 28.44 10.9342 32.22 7.55424 32.71C7.55424 32.71 5.34425 29.47 3.95425 28.68C3.95425 28.68 2.00424 27.2 0.484244 28.57C0.484244 28.57 -1.01575 30.27 1.26425 32.24C1.26425 32.24 3.56424 34.07 7.25424 33.96C7.25424 33.96 9.22424 36.93 9.64424 37.43C9.64424 37.43 11.0942 39.17 12.3042 39.67C13.5142 40.16 13.7142 40.48 17.8942 40.48H141.314C141.314 40.48 144.494 40.68 146.304 39.61C146.304 39.61 147.774 38.92 149.384 37.08L152.624 33.19C152.624 33.19 155.954 33.28 157.744 32.12C157.744 32.12 159.574 31.18 159.714 29.68C159.884 28.19 158.424 27.39 156.274 28.42ZM19.5342 29.8H16.9842C16.3342 29.8 16.6742 29.2 16.6742 29.2L18.0142 25.71C18.2842 25.17 18.5542 25.71 18.5542 25.71L19.6742 29.13C19.9342 29.98 19.5342 29.8 19.5342 29.8ZM23.8942 32.67C23.8942 32.67 23.9142 32.43 23.5342 32.33C23.5342 32.33 23.1042 32.31 22.8642 31.68L20.2942 24.12C20.2942 24.12 20.3142 23.76 19.9042 23.76H17.8642C17.8642 23.76 17.5842 23.76 17.4042 24.18L14.5442 31.81C14.5442 31.81 14.5642 32.32 13.6242 32.3C13.6242 32.3 13.2442 32.32 13.3142 32.7V32.97C13.3142 32.97 13.2642 33.26 13.7142 33.26H16.1742C16.1742 33.26 16.4942 33.28 16.5142 33.02V32.75C16.5142 32.75 16.6042 32.41 16.2242 32.35C16.2242 32.35 15.5542 32.26 15.7742 31.65L16.1342 30.82H20.1642L20.5442 31.78C20.5442 31.78 20.7042 32.25 20.3842 32.32C20.3842 32.32 19.9142 32.34 19.9142 32.59V32.93C19.9142 32.93 19.7842 33.26 20.3742 33.26H23.5542C23.5542 33.26 23.9142 33.37 23.9142 32.97L23.8942 32.67ZM83.3742 32.24H81.8542C81.8542 32.24 81.4542 32.35 81.4542 31.84V27.97C81.4542 27.97 81.3842 27.61 81.7943 27.61H82.9342C82.9342 27.61 83.2442 27.56 83.4942 28.08L83.6542 28.42C83.6542 28.42 83.7442 28.8 84.2142 28.69C84.2142 28.69 84.6642 28.76 84.5242 28.24C84.3942 27.72 84.5042 28.17 84.5042 28.17L83.8542 26.18C83.8542 26.18 83.8042 25.91 83.4742 25.91L83.1642 25.89C83.1642 25.89 82.8242 25.87 82.8942 26.27C82.8942 26.27 82.9842 26.69 82.5142 26.69H81.8442C81.8442 26.69 81.4842 26.78 81.4842 26.13V25C81.4842 25 81.4242 24.67 81.9142 24.67H84.2442C84.2442 24.67 84.7743 24.49 85.1143 25.25L85.2943 25.63C85.2943 25.63 85.2942 26.01 85.8342 25.9C85.8342 25.9 86.4142 25.97 86.2342 25.43L85.8042 24.13C85.8042 24.13 85.7842 23.84 85.4042 23.84H78.7642C78.7642 23.84 78.3842 23.75 78.3842 24.18V24.4C78.3842 24.4 78.3142 24.6 78.7642 24.71C78.7642 24.71 79.2542 24.73 79.2542 25.38L79.2142 31.71C79.2142 31.71 79.2142 32.29 78.8342 32.4C78.8342 32.4 78.4042 32.27 78.3842 32.76C78.3842 32.76 78.2042 33.16 78.8142 33.19H85.5242C85.5242 33.19 85.7742 33.28 85.9242 32.99L86.4842 31.65C86.4842 31.65 86.6842 31.23 86.2642 31.23H85.8342C85.8342 31.23 85.6143 31.16 85.5042 31.43L85.2542 31.85C85.2542 31.85 85.2042 32.23 84.5642 32.25H83.3742V32.24ZM29.9242 32.24H28.4042C28.4042 32.24 28.0042 32.35 28.0042 31.84V27.97C28.0042 27.97 27.9342 27.61 28.3342 27.61H29.4742C29.4742 27.61 29.7842 27.56 30.0342 28.08L30.1942 28.42C30.1942 28.42 30.2842 28.8 30.7542 28.69C30.7542 28.69 31.2042 28.76 31.0642 28.24C30.9342 27.72 31.0442 28.17 31.0442 28.17L30.3942 26.18C30.3942 26.18 30.3542 25.91 30.0142 25.91L29.7042 25.89C29.7042 25.89 29.3642 25.87 29.4342 26.27C29.4342 26.27 29.5242 26.69 29.0542 26.69H28.3842C28.3842 26.69 28.0242 26.78 28.0242 26.13V25C28.0242 25 27.9542 24.67 28.4442 24.67H30.7742C30.7742 24.67 31.3142 24.49 31.6442 25.25L31.8242 25.63C31.8242 25.63 31.8242 26.01 32.3643 25.9C32.3643 25.9 32.9442 25.97 32.7642 25.43L32.3442 24.13C32.3442 24.13 32.3242 23.84 31.9442 23.84H25.3042C25.3042 23.84 24.9242 23.75 24.9242 24.18V24.4C24.9242 24.4 24.8542 24.6 25.3042 24.71C25.3042 24.71 25.7942 24.73 25.7942 25.38L25.7542 31.71C25.7542 31.71 25.7542 32.29 25.3742 32.4C25.3742 32.4 24.9542 32.27 24.9242 32.76C24.9242 32.76 24.7442 33.16 25.3542 33.19H32.0642C32.0642 33.19 32.3142 33.28 32.4642 32.99L33.0242 31.65C33.0242 31.65 33.2242 31.23 32.8042 31.23H32.3742C32.3742 31.23 32.1543 31.16 32.0443 31.43L31.7942 31.85C31.7942 31.85 31.7542 32.23 31.1042 32.25H29.9242V32.24ZM49.0042 32.32H47.4842C47.4842 32.32 47.0842 32.43 47.0842 31.92V28.05C47.0842 28.05 47.0142 27.69 47.4242 27.69H48.5642C48.5642 27.69 48.8742 27.64 49.1242 28.16L49.2842 28.49C49.2842 28.49 49.3742 28.87 49.8442 28.76C49.8442 28.76 50.2942 28.83 50.1542 28.31C50.0242 27.8 50.1342 28.24 50.1342 28.24L49.4842 26.25C49.4842 26.25 49.4342 25.98 49.1042 25.98L48.7943 25.96C48.7943 25.96 48.4542 25.94 48.5242 26.34C48.5242 26.34 48.6143 26.77 48.1442 26.77H47.4742C47.4742 26.77 47.1143 26.86 47.1143 26.21V25.07C47.1143 25.07 47.0442 24.73 47.5342 24.73H49.8643C49.8643 24.73 50.4042 24.55 50.7342 25.31L50.9142 25.69C50.9142 25.69 50.9142 26.07 51.4542 25.96C51.4542 25.96 52.0342 26.03 51.8542 25.49L51.4242 24.19C51.4242 24.19 51.4042 23.9 51.0242 23.9H44.3842C44.3842 23.9 44.0042 23.81 44.0042 24.24V24.46C44.0042 24.46 43.9342 24.66 44.3842 24.77C44.3842 24.77 44.8742 24.79 44.8742 25.44L44.8342 31.77C44.8342 31.77 44.8342 32.35 44.4542 32.46C44.4542 32.46 44.0243 32.33 44.0042 32.82C44.0042 32.82 43.8242 33.22 44.4242 33.25H51.1342C51.1342 33.25 51.3842 33.34 51.5342 33.05L52.0942 31.71C52.0942 31.71 52.2942 31.28 51.8742 31.28H51.4442C51.4442 31.28 51.2243 31.21 51.1143 31.48L50.8643 31.9C50.8643 31.9 50.8242 32.28 50.1742 32.3H49.0042V32.32ZM38.2943 23.63C38.2943 23.63 33.9842 23.61 33.6642 28.42C33.3442 33.27 38.0942 33.34 38.0942 33.34C38.0942 33.34 39.7042 33.54 41.7842 32.13C41.7842 32.13 42.0942 31.91 42.1242 31.46L42.2142 30.57C42.2142 30.57 42.0142 29.83 42.8142 29.83C42.8142 29.83 43.1042 29.81 43.1242 29.47V29.32C43.1242 29.32 43.1442 29.03 42.6342 29.03H39.2342C39.2342 29.03 38.8542 28.96 38.8542 29.28V29.5C38.8542 29.5 38.8342 29.81 39.2342 29.81C39.2342 29.81 40.0642 29.74 40.0642 30.57C40.0642 30.57 40.2442 32.54 38.1642 32.54C36.0842 32.54 36.1342 30.59 36.0642 28.09C35.9942 25.61 36.7842 24.4 38.4842 24.42C40.1842 24.44 40.7642 25.81 40.9442 26.12C40.9442 26.12 41.0542 26.43 41.4542 26.39L41.8842 26.21C41.8842 26.21 42.1543 26.28 42.0443 25.87L41.4642 24.04C41.4642 24.04 41.4642 23.7 41.1442 23.77C41.1442 23.77 40.9442 23.75 40.8342 23.97C40.8342 23.97 40.9043 24.48 40.0742 24.13C40.0542 24.12 39.3843 23.63 38.2943 23.63ZM58.4642 27.97L56.8342 27.95H56.7943C56.6943 27.95 56.4842 27.89 56.4842 27.39V25C56.4842 25 56.4142 24.67 56.9042 24.67L58.7842 24.72C58.7842 24.72 60.2942 24.72 60.3042 26.15C60.2942 27.5 59.5542 27.97 58.4642 27.97ZM63.6342 32.71C63.6342 32.71 63.6742 32.46 63.2542 32.44L63.0642 32.43C63.0642 32.43 62.5142 32.48 62.0242 31.7C62.0242 31.7 60.7742 29.33 59.9942 28.8C59.9942 28.8 59.7442 28.62 59.9942 28.53C59.9942 28.53 61.0442 28.33 61.6742 27.72C61.6742 27.72 62.3942 27.43 62.3643 25.98C62.3643 25.98 62.5243 23.86 59.4342 23.83H53.7442C53.7442 23.83 53.3643 23.74 53.3643 24.17V24.39C53.3643 24.39 53.2942 24.59 53.7442 24.7C53.7442 24.7 54.2342 24.72 54.2342 25.37L54.1942 31.7C54.1942 31.7 54.2442 32.38 53.7242 32.4C53.7242 32.4 53.2742 32.35 53.3042 32.78C53.3042 32.78 53.1543 33.24 53.7542 33.26H56.8842C56.8842 33.26 57.3442 33.35 57.3542 33.04L57.3442 32.68C57.3442 32.68 57.3642 32.4 56.9242 32.4C56.7842 32.36 56.4842 32.23 56.4542 31.84V29.22C56.4542 29.22 56.3842 28.86 56.7842 28.86V28.85L57.4142 28.86C57.4142 28.86 58.2142 28.81 58.6242 29.6L60.0042 32.2C60.0042 32.2 60.4542 33.25 61.5942 33.27H63.3842C63.3842 33.27 63.6542 33.34 63.6542 32.96L63.6342 32.71ZM141.474 27.97L139.844 27.95H139.804C139.704 27.95 139.494 27.89 139.494 27.39V25C139.494 25 139.424 24.67 139.914 24.67L141.784 24.72C141.784 24.72 143.294 24.72 143.304 26.15C143.314 27.5 142.574 27.97 141.474 27.97ZM146.644 32.71C146.644 32.71 146.694 32.46 146.264 32.44L146.074 32.43C146.074 32.43 145.534 32.48 145.034 31.7C145.034 31.7 143.784 29.33 143.004 28.8C143.004 28.8 142.764 28.62 143.004 28.53C143.004 28.53 144.054 28.33 144.684 27.72C144.684 27.72 145.404 27.43 145.384 25.98C145.384 25.98 145.544 23.86 142.444 23.83H136.764C136.764 23.83 136.384 23.74 136.384 24.17V24.39C136.384 24.39 136.314 24.59 136.764 24.7C136.764 24.7 137.254 24.72 137.254 25.37L137.204 31.7C137.204 31.7 137.254 32.38 136.734 32.4C136.734 32.4 136.284 32.35 136.314 32.78C136.314 32.78 136.164 33.24 136.764 33.26H139.894C139.894 33.26 140.354 33.35 140.364 33.04L140.354 32.68C140.354 32.68 140.374 32.4 139.934 32.4C139.794 32.36 139.494 32.23 139.464 31.84V29.22C139.464 29.22 139.394 28.86 139.804 28.86V28.85L140.434 28.86C140.434 28.86 141.234 28.81 141.644 29.6L143.024 32.2C143.024 32.2 143.474 33.25 144.614 33.27H146.404C146.404 33.27 146.674 33.34 146.674 32.96L146.644 32.71ZM68.3042 29.27C68.5142 29.27 68.6842 29.1 68.6842 28.89V28.09C68.6842 27.88 68.5142 27.71 68.3042 27.71H64.6542C64.4442 27.71 64.2742 27.88 64.2742 28.09V28.89C64.2742 29.1 64.4442 29.27 64.6542 29.27H68.3042ZM70.3742 23.77C70.3742 23.77 70.0942 23.79 70.0942 24.04V24.33C70.0942 24.33 70.0542 24.67 70.4842 24.6C70.4842 24.6 71.2042 24.53 71.2042 25.27V31.77C71.2042 31.77 71.2742 32.26 70.7042 32.27C70.7042 32.27 70.3342 32.25 70.3142 32.54V32.92C70.3142 32.92 70.3142 33.25 70.6143 33.28H76.6542C76.6542 33.28 76.8542 33.38 77.0942 32.91L77.7042 31.58C77.7042 31.58 77.8542 31.21 77.5042 31.21H77.0642C77.0642 31.21 76.8242 31.21 76.7442 31.41L76.5242 31.83C76.5242 31.83 76.2942 32.34 75.7342 32.26H73.9442C73.9442 32.26 73.4142 32.33 73.4042 31.83V25.24C73.4042 25.24 73.3343 24.64 73.8542 24.62H74.1042C74.1042 24.62 74.3442 24.65 74.3342 24.3V24.07C74.3342 24.07 74.3842 23.78 74.0142 23.78H70.3742V23.77ZM120.644 23.77C120.644 23.77 120.364 23.79 120.364 24.04V24.33C120.364 24.33 120.324 24.67 120.754 24.6C120.754 24.6 121.474 24.53 121.474 25.27V31.77C121.474 31.77 121.544 32.26 120.974 32.27C120.974 32.27 120.604 32.25 120.584 32.54V32.92C120.584 32.92 120.584 33.25 120.884 33.28H126.924C126.924 33.28 127.124 33.38 127.364 32.91L127.964 31.58C127.964 31.58 128.114 31.21 127.764 31.21H127.324C127.324 31.21 127.094 31.21 127.004 31.41L126.784 31.83C126.784 31.83 126.554 32.34 125.994 32.26H124.194C124.194 32.26 123.664 32.33 123.654 31.83V25.24C123.654 25.24 123.584 24.64 124.104 24.62H124.354C124.354 24.62 124.594 24.65 124.584 24.3V24.07C124.584 24.07 124.634 23.78 124.264 23.78H120.644V23.77ZM93.3743 19.45C93.3743 19.45 87.4042 19.14 87.3342 26.5C87.3342 26.5 87.0642 32.92 93.2442 33.23C93.2442 33.23 94.6743 33.32 95.9543 32.51C95.9543 32.51 96.3542 32.33 96.4442 32.67C96.4442 32.67 96.5142 33.12 96.9742 33.07C96.9742 33.07 97.4442 33.05 97.4942 32.62L98.3242 30.09C98.3242 30.09 98.4843 29.67 98.1243 29.67L97.8142 29.65C97.8142 29.65 97.5642 29.65 97.4342 29.96C97.4342 29.96 96.9843 30.99 96.4543 31.37C96.4543 31.37 95.6143 32.37 93.7043 32.31C93.7043 32.31 90.1242 32.4 90.2542 26.5C90.2542 26.5 89.9442 20.39 93.8142 20.42C93.8142 20.42 95.6743 20.29 97.0143 22.28C97.0143 22.28 97.1742 22.66 97.5742 22.66H97.9543C97.9543 22.66 98.2643 22.68 98.1543 22.17L97.5542 19.84C97.5542 19.84 97.4843 19.55 97.2343 19.55H96.7842C96.7842 19.55 96.5843 19.62 96.6243 19.86C96.6243 19.86 96.6942 20.15 96.5342 20.24C96.5342 20.24 96.4242 20.42 96.1142 20.24C96.1042 20.23 95.0042 19.5 93.3743 19.45ZM106.274 30.38C105.854 32.71 104.064 32.37 104.064 32.37C104.064 32.37 102.274 32.71 101.854 30.38C101.454 28.21 101.804 30.04 101.844 30.29C101.804 30.05 101.484 28.14 101.964 25.91C101.964 25.91 102.364 24.41 104.064 24.45C105.764 24.4 106.164 25.91 106.164 25.91C106.644 28.14 106.324 30.05 106.284 30.29C106.324 30.04 106.674 28.21 106.274 30.38ZM108.774 28.4C108.664 23.66 104.054 23.67 104.054 23.67C104.054 23.67 99.4442 23.65 99.3342 28.4C99.3342 28.4 99.2642 33.07 104.054 33.27C108.844 33.07 108.774 28.4 108.774 28.4ZM106.284 30.29C106.284 30.31 106.274 30.32 106.274 30.32C106.274 30.32 106.274 30.31 106.284 30.29ZM110.074 23.77C110.074 23.77 109.754 23.78 109.754 24.04V24.33C109.754 24.33 109.734 24.61 110.154 24.61L110.354 24.6C110.354 24.6 110.774 24.53 110.774 25.24V30.02C110.774 30.02 110.944 33.31 114.644 33.32C114.644 33.32 118.454 33.52 118.334 29.9V25.15C118.334 25.15 118.254 24.6 118.824 24.58H118.994C118.994 24.58 119.214 24.58 119.214 24.33V24.08C119.214 24.08 119.304 23.78 118.964 23.77H116.734C116.734 23.77 116.424 23.76 116.424 24.01L116.404 24.23C116.404 24.23 116.334 24.58 116.724 24.58C116.724 24.58 117.324 24.48 117.344 25.28V29.93C117.344 29.93 117.584 32.36 115.384 32.36C115.384 32.36 112.934 32.78 112.934 29.78V25.12C112.934 25.12 113.004 24.6 113.464 24.59H113.604C113.604 24.59 113.824 24.62 113.844 24.3V24.07C113.844 24.07 113.914 23.79 113.624 23.78H110.074V23.77ZM127.374 23.77C127.374 23.77 127.104 23.76 126.984 24.02L126.404 25.43C126.404 25.43 126.254 25.74 126.604 25.74H127.054C127.054 25.74 127.224 25.81 127.394 25.48L127.714 24.84C127.714 24.84 127.874 24.62 128.184 24.63H129.524C129.524 24.63 129.914 24.57 129.934 25.12V31.88C129.934 31.88 130.004 32.35 129.724 32.39H129.364C129.364 32.39 129.164 32.41 129.154 32.64V33C129.154 33 129.104 33.27 129.414 33.27H132.894C132.894 33.27 133.134 33.31 133.134 33.02V32.75C133.134 32.75 133.194 32.42 132.934 32.42L132.524 32.41C132.524 32.41 132.094 32.52 132.134 31.77V25.14C132.134 25.14 132.004 24.63 132.514 24.63H133.844C133.844 24.63 134.104 24.55 134.304 24.91L134.634 25.47C134.634 25.47 134.784 25.73 135.074 25.74H135.494C135.494 25.74 135.804 25.74 135.674 25.38L135.084 23.97C135.084 23.97 135.064 23.77 134.614 23.77H127.374Z" fill="#848498"/>
<path d="M91.7643 15.44C91.7643 15.44 86.0642 17.42 80.4642 17.25V2.98999L81.5042 1.47998H85.2242L86.6642 3.48999H83.2042V15.46C83.2042 15.46 88.2643 15.26 93.2643 13.11L95.2742 15.89C95.2742 15.89 94.6042 16.26 92.7242 16.83L91.7643 15.44ZM79.7242 17.25C74.1242 17.42 68.4242 15.44 68.4242 15.44L67.4542 16.85C65.5742 16.28 64.9042 15.91 64.9042 15.91L66.9142 13.13C71.9142 15.28 76.9742 15.48 76.9742 15.48V3.49998H73.5242L74.9642 1.48999H78.6842L79.7242 2.99998V17.25ZM93.4742 12.18C88.3042 14.49 83.8842 14.66 83.8842 14.66V4.25998H87.9742L85.5542 0.73999L81.0542 0.769989L80.0842 2.14998L79.1143 0.769989L74.6143 0.73999L72.1942 4.25998H76.2842V14.66C76.2842 14.66 71.8542 14.49 66.6942 12.18L63.6742 16.34C63.6742 16.34 64.4442 16.71 67.7042 17.85L68.6742 16.37C68.6742 16.37 73.6542 18.16 80.0842 18.12C86.5142 18.16 91.4843 16.37 91.4843 16.37L92.4543 17.85C95.7143 16.71 96.4843 16.34 96.4843 16.34L93.4742 12.18Z" fill="#848498"/>
</svg>
