<svg width="149" height="18" viewBox="0 0 149 18" fill="none" xmlns="http://www.w3.org/2000/svg">
<path d="M135.6 3.67999V4.87H129.91V9.64001H135.36V10.83H129.91V16.04H135.85V17.23H128.57V3.67001H135.6V3.67999ZM126.17 3.67999L122.99 17.24H121.4L118.16 5.22H118.11L114.87 17.24H113.23L110.1 3.67999H111.49L114.07 15.7H114.12L117.36 3.67999H119L122.19 15.7H122.24L124.82 3.67999H126.17ZM147.69 5.31C146.6 4.78 145.42 4.55 144.17 4.62C142.38 4.62 141.01 5.14999 140.05 6.20999C139.09 7.29999 138.59 8.70999 138.56 10.43C138.59 12.18 139.07 13.59 140 14.65C140.96 15.68 142.35 16.22 144.17 16.29C144.63 16.26 145.15 16.22 145.71 16.19C146.27 16.09 146.74 15.96 147.1 15.79V11.02H143.92V9.82999H148.49V16.63C147.1 17.16 145.66 17.42 144.17 17.42C141.98 17.35 140.28 16.71 139.06 15.48C137.87 14.22 137.26 12.53 137.22 10.42C137.25 8.30001 137.88 6.62999 139.11 5.39999C140.34 4.10999 142.02 3.45 144.18 3.41C144.74 3.41 145.37 3.46 146.07 3.56C146.8 3.66 147.41 3.83 147.91 4.06L147.69 5.31ZM21.88 3.67999V12.47C21.85 13.79 21.57 14.82 21.04 15.55C20.51 16.24 19.87 16.76 19.1 17.09C18.34 17.32 17.61 17.45 16.92 17.49C16.22 17.46 15.5 17.33 14.73 17.09C13.9 16.76 13.24 16.25 12.74 15.55C12.21 14.82 11.93 13.79 11.9 12.47V3.67999H13.24V12.47C13.21 13.6 13.52 14.51 14.18 15.2C14.78 15.9 15.69 16.26 16.91 16.29C18.1 16.26 19 15.89 19.59 15.2C20.22 14.51 20.53 13.6 20.53 12.47V3.67999H21.88ZM7.68002 7C7.68002 8.72 6.84002 9.74999 5.15002 10.08V10.13C6.01002 10.3 7.00001 10.64 7.57001 11.17C8.10001 11.73 8.37003 12.46 8.37003 13.35C8.34003 14.81 7.81 15.82 6.78 16.38C5.75 16.94 4.50001 17.22 3.01001 17.22H0V3.66H3.28C4.44 3.63 5.47002 3.86001 6.36002 4.35001C7.20002 4.83001 7.64002 5.71 7.68002 7ZM3.26001 4.87H1.37003V9.59H2.91C3.67 9.62 4.42001 9.47001 5.14001 9.14001C5.84001 8.78001 6.23002 8.07999 6.33002 7.04999C6.23002 6.08999 5.85 5.47999 5.19 5.20999C4.53 4.94999 3.88001 4.83 3.26001 4.87ZM39.77 4.87V9.64001H45.22V10.83H39.77V16.04H45.71V17.23H38.43V3.67001H45.47V4.85999H39.77V4.87ZM50.3 5.51001V17.23H48.96V3.67001H50.7L57.7 15.59H57.75V3.67001H59.09V17.23H57.25L50.35 5.51001H50.3ZM83.55 3.67999L76.96 16.04H83.8V17.23H74.91L81.55 4.87H75.11V3.67999H83.55ZM87.97 0.940002H95.01V2.07001H87.97V0.940002ZM91.49 4.62C90.43 4.62 89.55 4.89999 88.86 5.45999C88.17 6.01999 87.64 6.74999 87.27 7.64999C86.94 8.50999 86.77 9.43999 86.77 10.43C86.77 11.42 86.93 12.35 87.27 13.21C87.63 14.1 88.16 14.83 88.86 15.4C89.56 15.96 90.43 16.26 91.49 16.29C92.58 16.26 93.48 15.96 94.17 15.4C94.87 14.84 95.38 14.11 95.71 13.21C96.04 12.35 96.21 11.42 96.21 10.43C96.21 9.43999 96.05 8.50999 95.71 7.64999C95.38 6.75999 94.87 6.02999 94.17 5.45999C93.48 4.86999 92.58 4.59 91.49 4.62ZM88.07 4.47C88.96 3.81 90.1 3.45999 91.5 3.42999C92.89 3.45999 94.03 3.79001 94.93 4.42001C95.82 5.05001 96.5 5.89001 96.97 6.95001C97.4 8.01001 97.6 9.16999 97.57 10.43C97.57 12.55 97.06 14.24 96.03 15.49C95 16.75 93.5 17.41 91.51 17.48C89.52 17.41 88.02 16.75 86.99 15.49C86 14.23 85.48 12.54 85.45 10.43C85.45 9.16999 85.67 8.01001 86.1 6.95001C86.51 5.89001 87.17 5.06 88.07 4.47ZM2.84 10.73H1.32001V16.04H3.04001C4.00001 16.04 4.88001 15.87 5.67001 15.54C6.50001 15.18 6.94001 14.46 7.01001 13.4C6.94001 12.24 6.50001 11.5 5.67001 11.17C4.84001 10.84 3.9 10.69 2.84 10.73ZM33.88 7C33.88 8.72 33.04 9.74999 31.35 10.08V10.13C32.21 10.3 33.2 10.64 33.77 11.17C34.3 11.73 34.56 12.46 34.56 13.35C34.53 14.81 34 15.82 32.97 16.38C31.94 16.94 30.69 17.22 29.2 17.22H26.19V3.66H29.47C30.63 3.63 31.66 3.86001 32.55 4.35001C33.4 4.83001 33.85 5.71 33.88 7ZM29.46 4.87H27.57V9.59H29.11C29.87 9.62 30.62 9.47001 31.34 9.14001C32.03 8.78001 32.43 8.07999 32.53 7.04999C32.43 6.08999 32.05 5.47999 31.39 5.20999C30.73 4.94999 30.09 4.83 29.46 4.87ZM29.05 10.73H27.53V16.04H29.25C30.21 16.04 31.09 15.87 31.88 15.54C32.71 15.18 33.15 14.46 33.22 13.4C33.15 12.24 32.71 11.5 31.88 11.17C31.05 10.84 30.11 10.69 29.05 10.73ZM66.65 9.23001C65.99 8.31001 65.21 7.28 65.21 6.34C65.21 5.46 65.89 4.48999 67.18 4.48999C68.37 4.48999 69.11 5.31001 69.11 6.29001C69.11 7.83001 67.57 8.70999 66.67 9.20999L66.65 9.23001ZM69.5 14.57C68.99 15.12 68.06 16.15 66.5 16.15C64.94 16.15 63.85 15.12 63.85 13.69C63.85 11.95 65.33 11.13 66.27 10.61L69.5 14.57ZM73.11 16.8C73.09 16.8 72.95 16.64 72.91 16.6C72.62 16.25 72.33 15.98 72.05 15.68C71.5 15.15 71.19 14.74 70.98 14.49C71.95 13.34 72.3 12.64 72.5 12.27V12.08C72.21 11.77 72.11 11.65 71.8 11.22L71.78 11.2L71.62 11.22V11.24C71.27 12.12 70.82 12.96 70.26 13.7C69.25 12.49 68.25 11.26 67.3 10.03C68.61 9.25 70.3 8.23999 70.3 6.26999C70.3 4.66999 69.01 3.5 67.28 3.5C65.31 3.5 64.04 4.89999 64.04 6.51999C64.04 7.23999 64.2 7.96 65.66 9.78C64.31 10.52 62.54 11.5 62.54 13.66C62.54 15.53 63.96 17.17 66.34 17.17C68.11 17.17 69.34 16.19 70.16 15.36C70.74 16.04 70.9 16.26 71.39 16.96L71.41 16.98L71.58 17.06C71.27 17.06 71.89 17.02 72.24 17.02C72.59 17 72.77 17 73 17L73.11 16.8ZM103.8 4.69C104.85 4.69 107.23 4.69 107.23 7.22C107.23 8.84 106.2 9.42999 105.6 9.67999C104.76 10.02 103.89 10.06 101.59 10.08V4.69H103.8ZM109.53 17.23C109.21 16.83 104.74 10.9 104.74 10.9C105.56 10.79 106.6 10.61 107.48 9.67999C108.02 9.12999 108.47 8.23001 108.47 7.20001C108.47 6.88001 108.41 4.7 106.3 3.94C105.51 3.67 104.63 3.66001 103.06 3.67001H100.25V17.22H101.62C101.62 17.22 101.64 13.72 101.62 11.07H103.33C103.57 11.37 108 17.22 108 17.22H109.53V17.23Z" fill="#848498"/>
</svg>
