<svg width="240" height="96" viewBox="0 0 240 96" fill="none" xmlns="http://www.w3.org/2000/svg">
<path d="M118.65 38.0696C120.67 37.6393 121.96 35.6678 121.53 33.6462C121.1 31.6246 119.13 30.3336 117.11 30.7639C115.09 31.1943 113.8 33.1658 114.23 35.1874C114.53 36.6385 115.67 37.7694 117.11 38.0696L117 39.9511L109.87 41.3422L116.8 42.7633L115.74 62.3685H114.57C112.28 62.3185 110 61.9682 107.8 61.3177L108.28 60.1368L101.35 59.8166L106.68 63.9898L107.18 62.7889L117.85 67.0822L128.56 62.7789L129.07 63.9998L134.36 59.8266L127.43 60.1468L127.91 61.3077C125.7 61.9582 123.42 62.3185 121.11 62.3685H119.93L118.93 42.7333L125.69 41.3422L118.76 39.9811L118.65 38.0696ZM116 34.637C116 33.6362 116.81 32.8256 117.81 32.8256C118.81 32.8256 119.62 33.6362 119.62 34.637C119.62 35.6377 118.81 36.4484 117.81 36.4484C116.81 36.4484 116 35.6377 116 34.637Z" fill="#C09E6A"/>
<path d="M184.84 43.2937H176.89C177.51 43.9842 177.45 44.6247 177.45 45.6055V53.962C177.45 54.9127 177.5 55.5532 176.89 56.2738H184.83C188.4 56.2738 191.3 53.3715 191.3 49.7988C191.3 46.226 188.4 43.3237 184.83 43.3237L184.84 43.2937ZM184.78 52.9512H180.76V46.5863H184.79C186.55 46.6763 187.9 48.1675 187.82 49.9289C187.73 51.5601 186.42 52.8712 184.78 52.9512Z" fill="#C09E6A"/>
<path d="M214.44 44.915C214.41 44.3245 214.61 43.7441 215 43.2937H210.58C211.2 43.9842 211.14 44.6247 211.14 45.6055V51.2999L203.76 43.3337H199.79C200.41 44.0243 200.35 44.6648 200.35 45.6455V54.5224C200.41 55.1529 200.2 55.7834 199.79 56.2538H204.22C203.6 55.5633 203.66 54.9228 203.66 53.942V48.0174L211.28 56.2538H215C214.61 55.8134 214.41 55.233 214.44 54.6325V44.915Z" fill="#C09E6A"/>
<path d="M197 45.1351C196.93 44.4746 197.13 43.8041 197.56 43.2937H193.14C193.57 43.8041 193.78 44.4646 193.7 45.1351V54.4324C193.77 55.0929 193.57 55.7634 193.14 56.2738H197.56C197.13 55.7634 196.92 55.1029 197 54.4324V45.1351Z" fill="#C09E6A"/>
<path d="M159.74 56.2438L153.52 43.2937H148.95C149.32 43.8441 149.34 44.5747 148.99 45.1451L143.66 56.2538H147.92C147.64 56.0036 147.58 55.5833 147.78 55.263L148.22 54.3423H155.15L155.51 55.1129L155.56 55.213V55.263C155.77 55.5833 155.71 56.0036 155.42 56.2538H159.68L159.74 56.2438ZM149.8 51.0497L151.7 47.0867L153.6 51.0497H149.8Z" fill="#C09E6A"/>
<path d="M172.05 52.6009C173.62 51.7103 174.61 50.049 174.63 48.2376C174.63 45.6055 172.56 43.4338 169.94 43.3037H161.06C161.49 43.8141 161.69 44.4646 161.62 45.1251V54.5224C161.68 55.1529 161.47 55.7734 161.06 56.2438H165.47C165.09 55.8235 164.9 55.273 164.92 54.7026V53.1614H168.12L170.96 56.2438H175.43L172.05 52.6009ZM169.94 49.8788H164.91V46.5863H169.94C170.85 46.7364 171.46 47.5971 171.31 48.5078C171.19 49.2083 170.64 49.7587 169.94 49.8788Z" fill="#C09E6A"/>
<path d="M141.73 44.915C141.7 44.3245 141.9 43.7441 142.29 43.2937H137.87C138.49 43.9842 138.43 44.6247 138.43 45.6055V51.2999L131.05 43.3337H127.08C127.7 44.0243 127.64 44.6648 127.64 45.6455V54.5224C127.7 55.1529 127.49 55.7834 127.08 56.2538H131.5C130.88 55.5633 130.94 54.9228 130.94 53.942V48.0174L138.56 56.2538H142.28C141.89 55.8134 141.69 55.233 141.72 54.6325L141.73 44.915Z" fill="#C09E6A"/>
<path d="M39.78 43.2937H35.37C35.79 43.7941 36 44.4346 35.93 45.0851V50.7495C35.94 51.2599 35.74 51.7603 35.38 52.1206C34.55 52.8111 33.47 53.1514 32.39 53.0713C31.31 53.1514 30.24 52.8111 29.4 52.1206C29.02 51.7403 28.82 51.2199 28.85 50.6794V44.8849C28.82 44.3045 29.02 43.724 29.41 43.2937H25C25.39 43.7441 25.6 44.3245 25.56 44.915V50.6794C25.53 52.0805 26.07 53.4316 27.05 54.4324C27.91 55.3231 29.54 56.3639 32.38 56.3639C35.22 56.3639 36.85 55.3131 37.71 54.4324C38.69 53.4416 39.23 52.0905 39.2 50.6895V44.8349C39.2 44.2645 39.4 43.714 39.78 43.2937Z" fill="#C09E6A"/>
<path d="M59.46 51.1798L65.12 43.2937H60.23C60.54 43.5839 60.56 44.0743 60.27 44.3845C60.26 44.3946 60.25 44.4046 60.23 44.4246L57.78 47.8372L55.24 44.2545C55.02 43.9442 55.09 43.5239 55.39 43.2937H50.5L56.16 51.1898V54.6425C56.19 55.233 55.99 55.8134 55.6 56.2638H60.01C59.63 55.8435 59.43 55.293 59.45 54.7226L59.46 51.1798Z" fill="#C09E6A"/>
<path d="M50.96 52.9412H45.4V44.905C45.37 44.3145 45.57 43.734 45.96 43.2837H41.54C41.93 43.724 42.13 44.2945 42.1 44.8849V54.6025C42.13 55.193 41.93 55.7834 41.54 56.2238H52.54V52.3708C52.11 52.7711 51.54 52.9712 50.96 52.9412Z" fill="#C09E6A"/>
<path d="M106.39 46.3961C106.96 46.3761 107.51 46.5763 107.93 46.9566V43.2937H95.91C96.53 43.9842 96.47 44.6247 96.47 45.6055V53.962C96.47 54.9127 96.52 55.5532 95.91 56.2738H107.96V52.5809C107.53 52.9612 106.96 53.1714 106.38 53.1414H99.76V51.2799H106.14V48.2676H99.76V46.3861H106.39V46.3961Z" fill="#C09E6A"/>
<path d="M73.09 48.3376C71.33 48.1375 68.79 48.1675 68.79 47.1367C68.79 46.5863 69.25 46.1459 71.67 46.1459C72.98 46.1259 74.28 46.3261 75.52 46.7464C75.96 46.8965 76.33 47.1867 76.59 47.577L77.04 46.5863L77.81 44.8849L78.13 44.2044C77.68 44.3045 77.2 44.2545 76.78 44.0743C74.96 43.4138 73.05 43.1036 71.12 43.1336C65.99 43.1336 65.51 46.4161 65.51 47.1967C65.51 50.049 68.19 50.7595 71.16 51.0497C74.13 51.33 75.39 51.1698 75.27 52.2106C75.2 52.8111 74.06 53.2915 71.78 53.2915C70.41 53.2414 69.06 52.9312 67.81 52.3808C67.38 52.2006 67.03 51.8704 66.8 51.4601L66.61 51.8103L65.42 53.962L64.93 54.8227C65.33 54.7626 65.73 54.8227 66.1 54.9828C68.02 55.8535 70.1 56.3339 72.21 56.3839C76.6 56.3839 78.57 54.2022 78.57 52.1406C78.54 49.2083 75.84 48.6679 73.09 48.3376Z" fill="#C09E6A"/>
<path d="M88.53 48.3376C86.78 48.1275 84.25 48.1675 84.25 47.1367C84.25 46.5863 84.71 46.1459 87.13 46.1459C88.44 46.1259 89.74 46.3261 90.98 46.7464C91.42 46.8965 91.79 47.1867 92.05 47.577L92.5 46.5863L93.27 44.8849L93.59 44.2044C93.14 44.3045 92.66 44.2544 92.24 44.0743C90.41 43.4138 88.48 43.0935 86.53 43.1236C81.4 43.1236 80.92 46.4061 80.92 47.1867C80.92 50.039 83.6 50.7495 86.57 51.0397C89.54 51.3199 90.8 51.1598 90.68 52.2006C90.61 52.8011 89.47 53.2815 87.19 53.2815C85.82 53.2314 84.47 52.9212 83.22 52.3708C82.79 52.1806 82.44 51.8604 82.21 51.4501L82 51.8003L80.81 53.952L80.33 54.8427C80.73 54.7826 81.13 54.8427 81.5 55.0028C83.42 55.8735 85.5 56.3539 87.61 56.4039C92 56.4039 93.97 54.2222 93.97 52.1606C93.97 49.2083 91.28 48.6679 88.53 48.3376Z" fill="#C09E6A"/>
</svg>
