<?xml version="1.0" encoding="utf-8"?>
<!-- Generator: Adobe Illustrator 24.3.0, SVG Export Plug-In . SVG Version: 6.00 Build 0)  -->
<svg version="1.1" id="Layer_1" xmlns="http://www.w3.org/2000/svg" xmlns:xlink="http://www.w3.org/1999/xlink" x="0px" y="0px"
	 viewBox="0 0 100 38" style="enable-background:new 0 0 100 38;" xml:space="preserve">
<style type="text/css">
	.st0{fill:#FFFFFF;}
</style>
<path class="st0" d="M50,0l1.6,5h5.2l-4.2,3.1l1.6,5L50,10l-4.2,3.1l1.6-5L43.1,5h5.2L50,0z"/>
<path class="st0" d="M85.9,16.6v8.7h10.9v-8.7h3.2v20.3h-3.2v-8.7H85.9v8.7h-3.2V16.6H85.9z"/>
<path class="st0" d="M79.3,16.6v2.9H74v17.4h-3.2V19.4h-5.2v-2.9H79.3z"/>
<path class="st0" d="M62.1,16.6h-3.2v20.3h3.2V16.6z"/>
<path class="st0" d="M38.2,16.2l14.1,13.6V16.6h3.2v20.6L41.3,23.6v13.3l-3.2,0V16.2z"/>
<path class="st0" d="M34.7,16.6v2.9H24.2l0,5.8h8.9v2.9h-8.9V34h10.5v2.9H21V16.6H34.7z"/>
<path class="st0" d="M17.6,16.6L5.8,34h11.7v2.9H0l11.8-17.4H1.7v-2.9H17.6z"/>
</svg>
