<svg width="280" height="54" viewBox="0 0 280 54" fill="none" xmlns="http://www.w3.org/2000/svg">
<path d="M138.011 10.8797C140.987 10.246 142.888 7.34288 142.255 4.36604C141.621 1.3892 138.718 -0.511853 135.741 0.121831C132.764 0.755515 130.863 3.65867 131.497 6.63552C131.939 8.77236 133.619 10.4376 135.741 10.8797L135.579 13.6502L125.072 15.6987L135.284 17.7913L133.722 46.6608H131.998C128.623 46.5871 125.263 46.0713 122.021 45.1134L122.728 43.3745L112.516 42.9029L120.371 49.0481L121.107 47.2797L136.832 53.6018L152.615 47.265L153.366 49.0629L161.162 42.9176L150.949 43.3892L151.657 45.0987C148.4 46.0566 145.04 46.5871 141.636 46.6608H139.897L138.423 17.7471L148.385 15.6987L138.173 13.6945L138.011 10.8797ZM134.105 5.82499C134.105 4.35131 135.299 3.15762 136.773 3.15762C138.246 3.15762 139.44 4.35131 139.44 5.82499C139.44 7.29867 138.246 8.49236 136.773 8.49236C135.299 8.49236 134.105 7.29867 134.105 5.82499Z" fill="white"/>
<path d="M235.554 18.5724H223.838C224.752 19.5892 224.663 20.5324 224.663 21.9766V34.2818C224.663 35.6818 224.737 36.625 223.838 37.686H235.539C240.8 37.686 245.074 33.4124 245.074 28.1513C245.074 22.8903 240.8 18.6166 235.539 18.6166L235.554 18.5724ZM235.465 32.7934H229.541V23.4208H235.48C238.074 23.5534 240.063 25.7492 239.945 28.3429C239.813 30.745 237.882 32.6755 235.465 32.7934Z" fill="white"/>
<path d="M279.175 20.9597C279.131 20.0903 279.425 19.2355 280 18.5724H273.486C274.4 19.5892 274.312 20.5324 274.312 21.9766V30.3618L263.436 18.6313H257.585C258.499 19.6481 258.411 20.5913 258.411 22.0355V35.1071C258.499 36.0355 258.189 36.9639 257.585 37.6566H264.114C263.2 36.6397 263.288 35.6966 263.288 34.2524V25.5281L274.518 37.6566H280C279.425 37.0081 279.131 36.1534 279.175 35.2692V20.9597Z" fill="white"/>
<path d="M253.474 21.2839C253.371 20.3113 253.665 19.3239 254.299 18.5724H247.785C248.419 19.3239 248.728 20.2966 248.611 21.2839V34.9745C248.714 35.9471 248.419 36.9345 247.785 37.686H254.299C253.665 36.9345 253.356 35.9618 253.474 34.9745V21.2839Z" fill="white"/>
<path d="M198.564 37.6418L189.398 18.5724H182.663C183.208 19.3829 183.238 20.4587 182.722 21.2987L174.867 37.6566H181.145C180.733 37.2881 180.644 36.6692 180.939 36.1976L181.587 34.8418H191.8L192.331 35.9766L192.404 36.1239V36.1976C192.714 36.6692 192.625 37.2881 192.198 37.6566H198.476L198.564 37.6418ZM183.916 29.9934L186.716 24.1576L189.516 29.9934H183.916Z" fill="white"/>
<path d="M216.705 32.2776C219.019 30.966 220.478 28.5197 220.507 25.8524C220.507 21.9766 217.457 18.7787 213.596 18.5871H200.509C201.143 19.3387 201.438 20.2966 201.335 21.2692V35.1071C201.423 36.0355 201.114 36.9492 200.509 37.6418H207.008C206.448 37.0229 206.168 36.2124 206.198 35.3724V33.1029H210.914L215.099 37.6418H221.686L216.705 32.2776ZM213.596 28.2692H206.183V23.4208H213.596C214.937 23.6418 215.836 24.9092 215.615 26.2503C215.438 27.2818 214.627 28.0924 213.596 28.2692Z" fill="white"/>
<path d="M172.023 20.9597C171.979 20.0903 172.274 19.2355 172.848 18.5724H166.335C167.248 19.5892 167.16 20.5324 167.16 21.9766V30.3618L156.284 18.6313H150.434C151.347 19.6481 151.259 20.5913 151.259 22.0355V35.1071C151.347 36.0355 151.038 36.9639 150.434 37.6566H156.947C156.034 36.6397 156.122 35.6966 156.122 34.2524V25.5281L167.352 37.6566H172.834C172.259 37.0081 171.964 36.1534 172.008 35.2692L172.023 20.9597Z" fill="white"/>
<path d="M21.781 18.5724H15.2821C15.9011 19.3092 16.2105 20.2524 16.1074 21.2103V29.5513C16.1221 30.3029 15.8274 31.0397 15.2968 31.5703C14.0737 32.5871 12.4821 33.0881 10.8905 32.9703C9.29895 33.0881 7.7221 32.5871 6.48421 31.5703C5.92421 31.0103 5.62947 30.2439 5.67368 29.4481V20.9155C5.62947 20.0608 5.92421 19.206 6.49895 18.5724H0C0.574737 19.2355 0.88421 20.0903 0.825262 20.9597V29.4481C0.781052 31.5113 1.57684 33.5008 3.02105 34.9745C4.28842 36.286 6.69053 37.8187 10.8758 37.8187C15.0611 37.8187 17.4632 36.2713 18.7305 34.9745C20.1747 33.5155 20.9705 31.526 20.9263 29.4629V20.8418C20.9263 20.0018 21.2211 19.1913 21.781 18.5724Z" fill="white"/>
<path d="M50.7832 30.185L59.1242 18.5724H51.9179C52.3747 18.9997 52.4042 19.7218 51.9768 20.1787C51.9621 20.1934 51.9474 20.2081 51.9179 20.2376L48.3074 25.2629L44.5642 19.9871C44.24 19.5303 44.3432 18.9113 44.7853 18.5724H37.5789L45.92 30.1997V35.2839C45.9642 36.1534 45.6695 37.0081 45.0947 37.6713H51.5937C51.0337 37.0524 50.7389 36.2418 50.7684 35.4018L50.7832 30.185Z" fill="white"/>
<path d="M38.2568 32.7787H30.0632V20.945C30.0189 20.0755 30.3137 19.2208 30.8884 18.5576H24.3747C24.9495 19.206 25.2442 20.046 25.2 20.9155V35.225C25.2442 36.0945 24.9495 36.9639 24.3747 37.6124H40.5853V31.9387C39.9516 32.5282 39.1116 32.8229 38.2568 32.7787Z" fill="white"/>
<path d="M119.943 23.1408C120.783 23.1113 121.594 23.406 122.213 23.966V18.5724H104.499C105.413 19.5892 105.324 20.5324 105.324 21.9766V34.2818C105.324 35.6818 105.398 36.625 104.499 37.686H122.257V32.2481C121.623 32.8082 120.783 33.1176 119.928 33.0734H110.173V30.3324H119.575V25.8966H110.173V23.126H119.943V23.1408Z" fill="white"/>
<path d="M70.8695 25.9997C68.2758 25.705 64.5326 25.7492 64.5326 24.2313C64.5326 23.4208 65.2105 22.7724 68.7768 22.7724C70.7074 22.7429 72.6232 23.0376 74.4505 23.6566C75.0989 23.8776 75.6442 24.305 76.0274 24.8797L76.6905 23.4208L77.8253 20.9155L78.2968 19.9134C77.6337 20.0608 76.9263 19.9871 76.3074 19.7218C73.6253 18.7492 70.8105 18.2924 67.9663 18.3366C60.4063 18.3366 59.6989 23.1703 59.6989 24.3197C59.6989 28.5197 63.6484 29.566 68.0253 29.9934C72.4021 30.406 74.2589 30.1703 74.0821 31.7029C73.9789 32.5871 72.2989 33.2945 68.9389 33.2945C66.92 33.2208 64.9305 32.7639 63.0884 31.9534C62.4547 31.6882 61.9389 31.2018 61.6 30.5976L61.32 31.1134L59.5663 34.2818L58.8442 35.5492C59.4337 35.4608 60.0232 35.5492 60.5684 35.785C63.3979 37.0671 66.4632 37.7745 69.5726 37.8482C76.0421 37.8482 78.9453 34.6355 78.9453 31.5997C78.9011 27.2818 74.9221 26.486 70.8695 25.9997Z" fill="white"/>
<path d="M93.6232 25.9997C91.0442 25.6903 87.3158 25.7492 87.3158 24.2313C87.3158 23.4208 87.9937 22.7724 91.56 22.7724C93.4905 22.7429 95.4063 23.0376 97.2337 23.6566C97.8821 23.8776 98.4274 24.305 98.8105 24.8797L99.4737 23.4208L100.608 20.9155L101.08 19.9134C100.417 20.0608 99.7095 19.9871 99.0905 19.7218C96.3937 18.7492 93.5495 18.2776 90.6758 18.3218C83.1158 18.3218 82.4084 23.1555 82.4084 24.305C82.4084 28.505 86.3579 29.5513 90.7347 29.9787C95.1116 30.3913 96.9684 30.1555 96.7916 31.6881C96.6884 32.5724 95.0084 33.2797 91.6484 33.2797C89.6295 33.206 87.64 32.7492 85.7979 31.9387C85.1642 31.6587 84.6484 31.1871 84.3095 30.5829L84 31.0987L82.2463 34.2671L81.5389 35.5787C82.1284 35.4903 82.7179 35.5787 83.2632 35.8145C86.0926 37.0966 89.1579 37.8039 92.2674 37.8776C98.7368 37.8776 101.64 34.665 101.64 31.6292C101.64 27.2818 97.6758 26.486 93.6232 25.9997Z" fill="white"/>
</svg>
