<?xml version="1.0" encoding="utf-8"?>
<!-- Generator: Adobe Illustrator 24.3.0, SVG Export Plug-In . SVG Version: 6.00 Build 0)  -->
<svg version="1.1" id="Layer_1" xmlns="http://www.w3.org/2000/svg" xmlns:xlink="http://www.w3.org/1999/xlink" x="0px" y="0px"
	 viewBox="0 0 140 65" style="enable-background:new 0 0 140 65;" xml:space="preserve">
<style type="text/css">
	.st0{fill:#FFFFFF;}
</style>
<path class="st0" d="M132.5,31.3c-5,0-8.2,2.9-8.2,7.8c0,4.8,3.5,7.4,8.2,7.4c5.1,0,7.2-2,7.2-2.1v-6.6h-7v2.4h4.3v2.9
	c-1.4,1.1-4.6,0.9-4.6,0.9c-2.9,0-5.6-1.2-5.6-4.9c0-3.3,2.4-5.3,5.6-5.3c2.3,0,3.9,0.6,4.8,1.2l1.1-2.3
	C137.2,32,135.2,31.3,132.5,31.3z M0,31.5v14.8h9.4c4,0,4.9-2.2,4.9-4.5c0-1.2-0.6-2.7-2.1-3.3c1-0.7,1.3-1.7,1.3-2.9
	c0-3-1.6-4.1-5.1-4.1L0,31.5z M117.1,31.5v10.1l-8.8-9.8l-0.2-0.3h-2.1v14.8h2.6V36.1l9.2,10.3h1.9V31.5H117.1z M37.7,31.5v14.8
	h12.5v-2.5h-9.9v-3.7h7.2v-2.4h-7.2V34h9.9v-2.5L37.7,31.5L37.7,31.5z M62.4,31.5V34h5.5v12.3h2.6V34h5.5v-2.5H62.4z M54.9,31.5
	v14.8h2.6V31.5H54.9z M19.1,31.5v14.8h2.6v-6.1h3.9l3.8,6.1h3.1l-4-6.1c2.2-0.2,4.1-1.5,4.1-4.4c0-3.6-2.8-4.3-5.3-4.3L19.1,31.5z
	 M81.1,31.5v14.8h11.5v-2.5h-8.9V31.6L81.1,31.5L81.1,31.5z M96.9,31.5v14.8h2.6V31.5C99.5,31.5,96.9,31.5,96.9,31.5z M2.6,33.9h5.7
	c1.6,0,2.6,0.6,2.6,1.9c0,0.7-0.2,2-2,2H2.6V33.9z M21.7,33.9h5.6c1,0,2.7,0.3,2.7,2.1c0,1.6-1.5,1.8-2.7,1.8s-5.6,0-5.6,0V33.9z
	 M2.6,40.1H9c1.4,0,2.6,0.3,2.6,2s-1.4,2-2.3,2H2.6C2.6,44,2.6,40.1,2.6,40.1z M60.7,53.6c-1.8,0-3.2,0.5-3.9,1.3
	c-0.5,0.6-0.7,1.3-0.7,2.1c0,0.5,0.2,1.1,0.9,1.7l0.2,0.2L57,59.1c-0.2,0.1-0.3,0.3-0.5,0.4c-0.6,0.6-0.8,1.4-0.7,2.3
	c0.1,1.5,1.5,3.1,4.9,3.1c3.5,0,4.8-1.6,4.9-3.1c0.1-0.9-0.2-1.7-0.7-2.3c-0.1-0.1-0.3-0.3-0.5-0.4l-0.3-0.2l0.2-0.2
	c0.7-0.6,0.8-1.3,0.9-1.8c0.1-0.8-0.1-1.5-0.6-2.1C63.9,54,62.5,53.6,60.7,53.6z M72.2,53.6c-1.8,0-3.2,0.5-3.9,1.3
	c-0.5,0.6-0.7,1.3-0.7,2.1c0.1,0.5,0.2,1.1,0.9,1.7l0.2,0.2l-0.3,0.2c-0.2,0.1-0.4,0.3-0.5,0.4c-0.6,0.6-0.8,1.4-0.7,2.3
	c0.1,1.5,1.5,3.1,4.9,3.1c3.4,0,4.8-1.6,4.9-3.1c0.1-0.9-0.2-1.7-0.7-2.3c-0.1-0.1-0.3-0.3-0.5-0.4l-0.3-0.2l0.2-0.2
	c0.7-0.6,0.8-1.3,0.9-1.8c0.1-0.8-0.1-1.5-0.7-2.1C75.3,54,74,53.6,72.2,53.6z M51.2,53.9v10.9h2.1V53.9H51.2z M81.8,53.9l-3.1,6.8
	l0,1.9h6.2v2.2h1.9v-2.2h1.2v-1.9h-1.2v-6.8H81.8z M60.7,55.5c1.2,0,2.1,0.3,2.5,0.7c0.2,0.2,0.2,0.3,0.2,0.6
	c-0.1,0.6-0.9,1.2-2.7,1.2s-2.6-0.6-2.7-1.2c0-0.3,0-0.4,0.2-0.6C58.6,55.7,59.5,55.5,60.7,55.5z M72.2,55.5c1.2,0,2.1,0.3,2.5,0.7
	c0.2,0.2,0.2,0.3,0.2,0.6c-0.1,0.6-0.9,1.2-2.7,1.2c-1.8,0-2.6-0.6-2.7-1.2c0-0.3,0-0.4,0.2-0.6C70,55.7,71,55.5,72.2,55.5z
	 M83,55.8h1.8v4.9h-4.1L83,55.8z M60.7,60.1c0.5,0,2.2,0,2.8,0.7c0.2,0.2,0.3,0.5,0.2,0.9c-0.1,1-1.6,1.4-3,1.4c-1.4,0-3-0.4-3-1.4
	c0-0.4,0-0.7,0.2-0.9C58.4,60.3,59.4,60.1,60.7,60.1z M72.2,60.1c0.5,0,2.2,0,2.8,0.7c0.2,0.2,0.3,0.5,0.2,0.9
	c-0.1,1-1.6,1.4-3.1,1.4s-3-0.4-3.1-1.4c0-0.4,0.1-0.7,0.2-0.9C69.8,60.3,70.8,60.1,72.2,60.1z"/>
<path class="st0" d="M72,12.6c-0.8-0.5,0-1.2,0.7-1.2c1.2,0,2.2,1,2.2,1S72.9,13.2,72,12.6z M61.2,22.7c-2.7,0.7-2-5.1,1.4-9.8
	c3.4-4.8,6.2-6.2,6.2-6.2C68.2,13.6,64.1,21.9,61.2,22.7z M77.8,3.8c-1.7-0.8-4.1-0.4-6.3,0.4c0.2-3-0.3-3.9-0.3-3.9L68.8,1
	c0,0,0.3,1.8,0.2,4.5c-6.5,3.8-10.9,10-12.1,14.3c-1.3,4.6,2.4,6.2,5.5,3.9c7.6-5.6,9.2-18.3,9.2-18.3c2.3-0.7,4.1-0.3,5.2,0.6
	c2.7,2.3-0.8,5.9-0.8,5.9s-0.9-1.1-2.6-1.2c-2.7-0.3-4.1,3-0.5,3.4c0.6,0.1,2.2-0.2,2.8-0.5c0.6,1.1,0.4,6.3-3.1,7.8
	c-3.1,1.4-4.3-0.6-4.3-0.6c-0.1,0-1.7,2.1-1.6,2.3c0,0,1.7,2.5,5.3,1.4c2.9-0.8,4.3-3.4,5-5.2c1.2-3,0.3-5.7-0.1-6.4
	C81.6,9.6,80.8,5.1,77.8,3.8z"/>
</svg>
