<svg width="280" height="32" viewBox="0 0 280 32" fill="none" xmlns="http://www.w3.org/2000/svg">
<path d="M255.694 5.16666V7.41059H244.965V16.4052H255.241V18.649H244.965V28.4733H256.165V30.7172H242.438V5.14784H255.694V5.16666ZM237.912 5.16666L231.916 30.736H228.918L222.808 8.07057H222.714L216.605 30.736H213.512L207.61 5.16666H210.231L215.096 27.8322H215.19L221.3 5.16666H224.392L230.407 27.8322H230.502L235.367 5.16666H237.912ZM278.491 8.24028C276.436 7.24088 274.211 6.80718 271.854 6.93917C268.479 6.93917 265.895 7.93856 264.085 9.93735C262.275 11.9927 261.332 14.6515 261.275 17.8948C261.332 21.1947 262.237 23.8534 263.991 25.8522C265.801 27.7944 268.422 28.8127 271.854 28.9447C272.721 28.8881 273.702 28.8127 274.758 28.7561C275.814 28.5676 276.7 28.3225 277.379 28.0019V19.0073H271.383V16.7634H280V29.5858C277.379 30.5852 274.664 31.0755 271.854 31.0755C267.724 30.9435 264.519 29.7367 262.218 27.4173C259.974 25.0414 258.824 21.8547 258.749 17.876C258.805 13.8784 259.993 10.7293 262.313 8.40998C264.632 5.97749 267.8 4.73298 271.873 4.65755C272.929 4.65755 274.117 4.75183 275.437 4.94039C276.813 5.12895 277.963 5.44952 278.906 5.88321L278.491 8.24028ZM41.258 5.16666V21.7415C41.2014 24.2306 40.6735 26.1728 39.6741 27.5493C38.6747 28.8504 37.4678 29.8309 36.0159 30.4532C34.5828 30.8869 33.2063 31.132 31.9052 31.2075C30.5852 31.1509 29.2276 30.9058 27.7756 30.4532C26.2105 29.8309 24.966 28.8693 24.0232 27.5493C23.0238 26.1728 22.4958 24.2306 22.4393 21.7415V5.16666H24.966V21.7415C24.9095 23.8723 25.494 25.5883 26.7385 26.8894C27.8699 28.2093 29.5858 28.8881 31.8863 28.9447C34.1302 28.8881 35.8273 28.1905 36.9398 26.8894C38.1278 25.5883 38.7124 23.8723 38.7124 21.7415V5.16666H41.258ZM14.4818 11.427C14.4818 14.6703 12.8979 16.6125 9.71114 17.2348V17.3291C11.3328 17.6497 13.1996 18.2908 14.2744 19.2902C15.2738 20.3462 15.7829 21.7227 15.7829 23.4009C15.7264 26.154 14.7269 28.0585 12.7847 29.1144C10.8425 30.1704 8.48544 30.6984 5.67582 30.6984H0V5.12897H6.18493C8.37228 5.0724 10.3145 5.5061 11.9928 6.43007C13.5767 7.33518 14.4064 8.99454 14.4818 11.427ZM6.14723 7.41059H2.58339V16.3108H5.48724C6.92034 16.3674 8.33459 16.0846 9.69226 15.4623C11.0122 14.7835 11.7476 13.4635 11.9362 11.5213C11.7476 9.71106 11.031 8.56082 9.78652 8.0517C8.54199 7.56143 7.31634 7.33516 6.14723 7.41059ZM74.9923 7.41059V16.4052H85.269V18.649H74.9923V28.4733H86.193V30.7172H72.4655V5.14784H85.7404V7.39171H74.9923V7.41059ZM94.8482 8.61743V30.7172H92.3214V5.14784H95.6024L108.802 27.6247H108.896V5.14784H111.423V30.7172H107.953L94.9424 8.61743H94.8482ZM157.546 5.16666L145.12 28.4733H158.017V30.7172H141.254L153.775 7.41059H141.631V5.16666H157.546ZM165.881 0H179.155V2.13079H165.881V0ZM172.518 6.93917C170.519 6.93917 168.86 7.46715 167.559 8.52311C166.258 9.57907 165.258 10.9556 164.561 12.6527C163.938 14.2743 163.618 16.028 163.618 17.8948C163.618 19.7616 163.919 21.5152 164.561 23.1369C165.239 24.8151 166.239 26.1916 167.559 27.2665C168.879 28.3224 170.519 28.8881 172.518 28.9447C174.573 28.8881 176.27 28.3224 177.572 27.2665C178.892 26.2105 179.853 24.834 180.475 23.1369C181.098 21.5152 181.418 19.7616 181.418 17.8948C181.418 16.028 181.117 14.2743 180.475 12.6527C179.853 10.9745 178.892 9.59793 177.572 8.52311C176.27 7.41058 174.573 6.8826 172.518 6.93917ZM166.069 6.65634C167.747 5.41181 169.897 4.75182 172.537 4.69525C175.158 4.75182 177.308 5.37412 179.005 6.56208C180.683 7.75004 181.965 9.33398 182.851 11.3328C183.662 13.3316 184.039 15.5189 183.983 17.8948C183.983 21.8924 183.021 25.0791 181.079 27.4362C179.137 29.8121 176.308 31.0566 172.556 31.1886C168.803 31.0566 165.975 29.8121 164.033 27.4362C162.166 25.0602 161.185 21.8735 161.129 17.8948C161.129 15.5189 161.544 13.3316 162.354 11.3328C163.127 9.33398 164.372 7.76887 166.069 6.65634ZM5.35524 18.4605H2.48907V28.4733H5.73239C7.54261 28.4733 9.20199 28.1527 10.6917 27.5305C12.2567 26.8516 13.0864 25.494 13.2184 23.4952C13.0864 21.3078 12.2567 19.9125 10.6917 19.2902C9.12656 18.6679 7.35402 18.3851 5.35524 18.4605ZM63.8858 11.427C63.8858 14.6703 62.3018 16.6125 59.1151 17.2348V17.3291C60.7368 17.6497 62.6036 18.2908 63.6784 19.2902C64.6778 20.3462 65.168 21.7227 65.168 23.4009C65.1114 26.154 64.1121 28.0585 62.1698 29.1144C60.2276 30.1704 57.8706 30.6984 55.061 30.6984H49.3851V5.12897H55.5701C57.7574 5.0724 59.6997 5.5061 61.3779 6.43007C62.9807 7.33518 63.8292 8.99454 63.8858 11.427ZM55.5513 7.41059H51.9873V16.3108H54.8913C56.3244 16.3674 57.7386 16.0846 59.0962 15.4623C60.3973 14.7835 61.1516 13.4635 61.3401 11.5213C61.1516 9.71106 60.4351 8.56082 59.1905 8.0517C57.946 7.56143 56.7392 7.33516 55.5513 7.41059ZM54.7781 18.4605H51.9119V28.4733H55.1552C56.9654 28.4733 58.6248 28.1527 60.1145 27.5305C61.6796 26.8516 62.5093 25.494 62.6413 23.4952C62.5093 21.3078 61.6796 19.9125 60.1145 19.2902C58.5494 18.6679 56.7769 18.3851 54.7781 18.4605ZM125.679 15.632C124.434 13.8972 122.963 11.955 122.963 10.1825C122.963 8.52312 124.245 6.69403 126.678 6.69403C128.922 6.69403 130.317 8.2403 130.317 10.0882C130.317 12.9921 127.413 14.6515 125.716 15.5943L125.679 15.632ZM131.053 25.7014C130.091 26.7385 128.337 28.6807 125.396 28.6807C122.454 28.6807 120.399 26.7385 120.399 24.042C120.399 20.761 123.189 19.2147 124.962 18.2342L131.053 25.7014ZM137.86 29.9064C137.822 29.9064 137.558 29.6047 137.483 29.5293C136.936 28.8693 136.389 28.3601 135.861 27.7944C134.824 26.795 134.239 26.0219 133.843 25.5505C135.672 23.382 136.332 22.0621 136.71 21.3644V21.0061C136.163 20.4215 135.974 20.1953 135.39 19.3845L135.352 19.3468L135.05 19.3845V19.4222C134.39 21.0815 133.542 22.6655 132.486 24.0609C130.581 21.7793 128.696 19.4599 126.904 17.1405C129.374 15.6697 132.561 13.7652 132.561 10.0505C132.561 7.03344 130.129 4.82726 126.866 4.82726C123.152 4.82726 120.757 7.46714 120.757 10.5219C120.757 11.8796 121.059 13.2372 123.812 16.6691C121.266 18.0645 117.928 19.9125 117.928 23.9855C117.928 27.5116 120.606 30.6041 125.094 30.6041C128.432 30.6041 130.751 28.7561 132.297 27.191C133.391 28.4733 133.693 28.8881 134.616 30.2081L134.654 30.2458L134.975 30.3966C134.39 30.3966 135.559 30.3212 136.219 30.3212C136.879 30.2835 137.219 30.2835 137.652 30.2835L137.86 29.9064ZM195.73 7.07118C197.71 7.07118 202.198 7.07118 202.198 11.8419C202.198 14.8966 200.256 16.0091 199.125 16.4806C197.541 17.1217 195.9 17.1971 191.563 17.2348V7.07118H195.73ZM206.535 30.7172C205.932 29.963 197.503 18.781 197.503 18.781C199.049 18.5736 201.01 18.2342 202.67 16.4806C203.688 15.4434 204.536 13.7464 204.536 11.8042C204.536 11.2008 204.423 7.09004 200.444 5.65695C198.955 5.14782 197.295 5.12898 194.335 5.14784H189.036V30.6984H191.62C191.62 30.6984 191.657 24.0986 191.62 19.1016H194.844C195.297 19.6673 203.65 30.6984 203.65 30.6984H206.535V30.7172Z" fill="white"/>
</svg>
